<?xml version="1.0" standalone="no"?>
<!DOCTYPE svg PUBLIC "-//W3C//DTD SVG 1.1//EN" "http://www.w3.org/Graphics/SVG/1.1/DTD/svg11.dtd" >
<svg xmlns="http://www.w3.org/2000/svg" xmlns:xlink="http://www.w3.org/1999/xlink" version="1.1">
<metadata>
Created by FontForge 20181014 at Mon Sep 27 07:42:09 2021
 By convertio
Copyright 2020 The Open Sans Project Authors (https://github.com/googlefonts/opensans)
</metadata>
<defs>
<font id="OpenSans-Bold" horiz-adv-x="0" >
  <font-face 
    font-family="Open Sans"
    font-weight="700"
    font-stretch="normal"
    units-per-em="2048"
    panose-1="0 0 0 0 0 0 0 0 0 0"
    ascent="1638"
    descent="-410"
    x-height="1118"
    cap-height="1462"
    bbox="-1268 -604 2701 2189"
    underline-thickness="50"
    underline-position="-125"
    unicode-range="U+000D-FFFD"
  />
<missing-glyph horiz-adv-x="1229" 
 />
    <glyph glyph-name="f_f" unicode="ff" horiz-adv-x="1585" 
d="M778 889h-264v-889h-305v889h-168v147l168 82v82q0 143 48.5 222.5t137 112t209.5 32.5q89 0 162 -14.5t119 -32.5l-78 -224q-35 11 -76 20t-94 9q-64 0 -93.5 -38.5t-29.5 -98.5v-70h264v-229zM1571 889h-264v-889h-305v889h-168v147l168 82v82q0 143 48.5 222.5
t137 112t209.5 32.5q89 0 162 -14.5t119 -32.5l-78 -224q-35 11 -76 20t-94 9q-64 0 -93.5 -38.5t-29.5 -98.5v-70h264v-229z" />
    <glyph glyph-name="fi" unicode="fi" horiz-adv-x="1417" 
d="M778 889h-264v-889h-305v889h-168v147l168 82v82q0 143 48.5 222.5t137 112t209.5 32.5q89 0 162 -14.5t119 -32.5l-78 -224q-35 11 -76 20t-94 9q-64 0 -93.5 -38.5t-29.5 -98.5v-70h264v-229zM1258 1118v-1118h-305v1118h305zM1106 1556q68 0 117 -31.5t49 -117.5
q0 -85 -49 -117.5t-117 -32.5q-69 0 -117.5 32.5t-48.5 117.5q0 86 48.5 117.5t117.5 31.5z" />
    <glyph glyph-name="fl" unicode="fl" horiz-adv-x="1417" 
d="M778 889h-264v-889h-305v889h-168v147l168 82v82q0 143 48.5 222.5t137 112t209.5 32.5q89 0 162 -14.5t119 -32.5l-78 -224q-35 11 -76 20t-94 9q-64 0 -93.5 -38.5t-29.5 -98.5v-70h264v-229zM1258 0h-305v1556h305v-1556z" />
    <glyph glyph-name="f_f_i" unicode="ffi" horiz-adv-x="2210" 
d="M778 889h-264v-889h-305v889h-168v147l168 82v82q0 143 48.5 222.5t137 112t209.5 32.5q89 0 162 -14.5t119 -32.5l-78 -224q-35 11 -76 20t-94 9q-64 0 -93.5 -38.5t-29.5 -98.5v-70h264v-229zM1571 889h-264v-889h-305v889h-168v147l168 82v82q0 143 48.5 222.5
t137 112t209.5 32.5q89 0 162 -14.5t119 -32.5l-78 -224q-35 11 -76 20t-94 9q-64 0 -93.5 -38.5t-29.5 -98.5v-70h264v-229zM2050 1118v-1118h-305v1118h305zM1898 1556q68 0 117 -31.5t49 -117.5q0 -85 -49 -117.5t-117 -32.5q-69 0 -117.5 32.5t-48.5 117.5
q0 86 48.5 117.5t117.5 31.5z" />
    <glyph glyph-name="f_f_l" unicode="ffl" horiz-adv-x="2210" 
d="M778 889h-264v-889h-305v889h-168v147l168 82v82q0 143 48.5 222.5t137 112t209.5 32.5q89 0 162 -14.5t119 -32.5l-78 -224q-35 11 -76 20t-94 9q-64 0 -93.5 -38.5t-29.5 -98.5v-70h264v-229zM1571 889h-264v-889h-305v889h-168v147l168 82v82q0 143 48.5 222.5
t137 112t209.5 32.5q89 0 162 -14.5t119 -32.5l-78 -224q-35 11 -76 20t-94 9q-64 0 -93.5 -38.5t-29.5 -98.5v-70h264v-229zM2050 0h-305v1556h305v-1556z" />
    <glyph glyph-name=".notdef" horiz-adv-x="1229" 
 />
    <glyph glyph-name="NULL" 
 />
    <glyph glyph-name="NULL" 
 />
    <glyph glyph-name="CR" unicode="&#xd;" horiz-adv-x="532" 
 />
    <glyph glyph-name="space" unicode=" " horiz-adv-x="532" 
 />
    <glyph glyph-name="exclam" unicode="!" horiz-adv-x="586" 
d="M416 485h-244l-51 977h346zM117 143q0 94 51.5 132t124.5 38q71 0 122.5 -38t51.5 -132q0 -90 -51.5 -130t-122.5 -40q-73 0 -124.5 40t-51.5 130z" />
    <glyph glyph-name="quotedbl" unicode="&#x22;" horiz-adv-x="967" 
d="M412 1462l-41 -528h-197l-41 528h279zM834 1462l-41 -528h-197l-41 528h279z" />
    <glyph glyph-name="numbersign" unicode="#" horiz-adv-x="1323" 
d="M999 844l-47 -232h258v-206h-297l-77 -406h-220l78 406h-194l-76 -406h-215l74 406h-238v206h277l47 232h-252v209h289l77 407h219l-77 -407h198l78 407h215l-78 -407h240v-209h-279zM539 612h196l47 232h-196z" />
    <glyph glyph-name="dollar" unicode="$" horiz-adv-x="1171" 
d="M518 -119v201q-133 3 -237.5 25.5t-190.5 60.5v264q85 -41 203 -74.5t225 -40.5v310q-158 62 -252.5 120.5t-136 130t-41.5 171.5q0 102 54.5 176.5t151.5 119.5t224 56v153h137v-149q116 -4 216.5 -26.5t197.5 -65.5l-94 -234q-82 34 -164.5 53t-155.5 25v-295
q111 -41 211 -89t163 -122t63 -194q0 -149 -108.5 -250t-328.5 -121v-205h-137zM655 324q70 12 103 41.5t33 76.5q0 28 -15 50t-45.5 41.5t-75.5 39.5v-249zM518 918v235q-41 -6 -70 -19.5t-44 -34.5t-15 -50t13.5 -51t42 -41t73.5 -39z" />
    <glyph glyph-name="percent" unicode="%" horiz-adv-x="1845" 
d="M408 1483q172 0 261 -120t89 -337t-84 -339t-266 -122q-169 0 -257 122t-88 339t82.5 337t262.5 120zM410 1274q-49 0 -72 -62t-23 -188t23 -189t72 -63t72.5 62.5t23.5 189.5q0 126 -23.5 188t-72.5 62zM1446 1462l-811 -1462h-240l811 1462h240zM1432 899
q172 0 261 -120t89 -337q0 -216 -84 -338t-266 -122q-169 0 -257 122t-88 338q0 217 82.5 337t262.5 120zM1434 690q-49 0 -72 -62t-23 -188t23 -189t72 -63t72.5 62.5t23.5 189.5q0 126 -23.5 188t-72.5 62z" />
    <glyph glyph-name="ampersand" unicode="&#x26;" horiz-adv-x="1536" 
d="M635 1483q118 0 210 -37t145.5 -108t53.5 -173q0 -141 -83.5 -237t-208.5 -168l284 -277q42 69 71.5 146t51.5 155h318q-31 -115 -90.5 -245.5t-151.5 -245.5l301 -293h-377l-115 113q-59 -41 -126.5 -71t-144 -46t-161.5 -16q-166 0 -285 52t-182 145.5t-63 217.5
q0 104 32 178.5t92 131t144 104.5q-53 62 -84.5 116t-45 107.5t-13.5 112.5q0 104 54.5 179.5t151 117t222.5 41.5zM528 627q-38 -29 -66.5 -60t-43.5 -66t-15 -77q0 -88 66 -138t164 -50q66 0 123 16t104 45zM633 1247q-51 0 -97.5 -26t-46.5 -97q0 -50 26 -97.5t69 -96.5
q86 47 132 94.5t46 108.5t-41.5 87.5t-87.5 26.5z" />
    <glyph glyph-name="quotesingle" unicode="'" horiz-adv-x="545" 
d="M412 1462l-41 -528h-197l-41 528h279z" />
    <glyph glyph-name="parenleft" unicode="(" horiz-adv-x="694" 
d="M82 561q0 167 32 326.5t99 305t170 269.5h250q-140 -192 -212.5 -424t-72.5 -475q0 -158 32 -314.5t95.5 -301.5t155.5 -271h-248q-103 120 -170 262.5t-99 300t-32 322.5z" />
    <glyph glyph-name="parenright" unicode=")" horiz-adv-x="694" 
d="M612 561q0 -165 -32 -322.5t-98.5 -300t-170.5 -262.5h-248q93 126 156 271t95 301.5t32 314.5q0 162 -32.5 320t-95.5 304.5t-157 274.5h250q104 -124 170.5 -269.5t98.5 -305t32 -326.5z" />
    <glyph glyph-name="asterisk" unicode="*" horiz-adv-x="1116" 
d="M688 1556l-41 -368l373 104l33 -252l-340 -24l223 -297l-227 -121l-156 313l-137 -311l-236 119l221 297l-338 26l39 250l365 -104l-41 368h262z" />
    <glyph glyph-name="plus" unicode="+" horiz-adv-x="1171" 
d="M694 831h387v-219h-387v-385h-219v385h-387v219h387v390h219v-390z" />
    <glyph glyph-name="comma" unicode="," horiz-adv-x="584" 
d="M444 238l15 -23q-18 -72 -46.5 -155t-62 -166t-67.5 -158h-220q20 81 39 170t35.5 175t26.5 157h280z" />
    <glyph glyph-name="hyphen" unicode="-" horiz-adv-x="659" 
d="M61 424v250h537v-250h-537z" />
    <glyph glyph-name="period" unicode="." horiz-adv-x="584" 
d="M117 143q0 94 51.5 132t124.5 38q71 0 122.5 -38t51.5 -132q0 -90 -51.5 -130t-122.5 -40q-73 0 -124.5 40t-51.5 130z" />
    <glyph glyph-name="slash" unicode="/" horiz-adv-x="846" 
d="M836 1462l-545 -1462h-277l545 1462h277z" />
    <glyph glyph-name="zero" unicode="0" horiz-adv-x="1171" 
d="M1096 731q0 -177 -27.5 -316t-88 -236t-158.5 -148t-238 -51q-176 0 -289 89.5t-167 258t-54 403.5q0 237 49.5 405.5t161.5 258.5t299 90q175 0 288.5 -89.5t168.5 -258t55 -406.5zM381 731q0 -167 18.5 -278.5t62.5 -167.5t122 -56q77 0 121.5 55.5t63.5 167t19 279.5
q0 167 -19 279t-63.5 168.5t-121.5 56.5q-78 0 -122 -56.5t-62.5 -168.5t-18.5 -279z" />
    <glyph glyph-name="one" unicode="1" horiz-adv-x="1171" 
d="M846 0h-309v846q0 35 1 86.5t3 106t4 98.5q-11 -13 -44.5 -44.5t-62.5 -56.5l-168 -135l-149 186l471 375h254v-1462z" />
    <glyph glyph-name="two" unicode="2" horiz-adv-x="1171" 
d="M1104 0h-1022v215l367 371q111 114 178.5 190.5t98 139.5t30.5 135q0 87 -48.5 130.5t-129.5 43.5q-85 0 -165 -39t-167 -111l-168 199q63 54 133.5 102t164 77.5t224.5 29.5q144 0 247.5 -52t159.5 -141.5t56 -202.5q0 -121 -48 -221t-139.5 -198t-220.5 -217l-188 -177
v-14h637v-260z" />
    <glyph glyph-name="three" unicode="3" horiz-adv-x="1171" 
d="M1047 1135q0 -101 -42 -175t-113.5 -121t-160.5 -69v-6q176 -22 267.5 -108t91.5 -230q0 -128 -62.5 -229t-192.5 -159t-335 -58q-121 0 -225.5 19.5t-196.5 59.5v263q94 -48 197 -72.5t192 -24.5q166 0 232.5 57.5t66.5 161.5q0 61 -31 103t-107.5 64t-213.5 22h-111
v237h113q135 0 205.5 25.5t96 70t25.5 101.5q0 78 -48 122t-160 44q-70 0 -127.5 -17.5t-103.5 -42t-81 -47.5l-143 213q86 62 201.5 103t275.5 41q226 0 358 -91t132 -257z" />
    <glyph glyph-name="four" unicode="4" horiz-adv-x="1171" 
d="M1137 303h-176v-303h-302v303h-624v215l641 944h285v-919h176v-240zM659 543v248q0 35 1.5 83t3.5 96t4.5 85.5l3.5 52.5h-8q-19 -41 -40 -79.5t-49 -80.5l-268 -405h352z" />
    <glyph glyph-name="five" unicode="5" horiz-adv-x="1171" 
d="M614 934q134 0 238.5 -51t164.5 -150t60 -244q0 -158 -65.5 -272.5t-195 -175.5t-322.5 -61q-115 0 -216.5 19.5t-177.5 59.5v267q76 -40 182.5 -67.5t200.5 -27.5q92 0 155 24.5t95.5 76t32.5 131.5q0 107 -72 164t-221 57q-57 0 -118.5 -11t-102.5 -22l-123 66l55 745
h793v-262h-522l-27 -287q34 7 74 14t112 7z" />
    <glyph glyph-name="six" unicode="6" horiz-adv-x="1171" 
d="M72 621q0 126 18.5 249.5t64.5 233t129 194t211 133t310 48.5q43 0 100.5 -3.5t95.5 -11.5v-247q-40 9 -85.5 14.5t-90.5 5.5q-182 0 -281.5 -58t-140 -160.5t-47.5 -238.5h13q28 49 70.5 87t103.5 60.5t143 22.5q128 0 222 -54.5t145 -157.5t51 -251q0 -158 -61 -272
t-172.5 -174.5t-264.5 -60.5q-112 0 -209 38.5t-170 117.5t-114 199.5t-41 285.5zM600 227q91 0 148 62t57 194q0 107 -49.5 168.5t-149.5 61.5q-68 0 -119.5 -30.5t-79.5 -77t-28 -95.5q0 -51 14 -101t42 -91t69.5 -66t95.5 -25z" />
    <glyph glyph-name="seven" unicode="7" horiz-adv-x="1171" 
d="M227 0l549 1202h-721v260h1049v-194l-553 -1268h-324z" />
    <glyph glyph-name="eight" unicode="8" horiz-adv-x="1171" 
d="M586 1481q126 0 232.5 -39t170.5 -117.5t64 -196.5q0 -88 -34.5 -154t-93.5 -115.5t-134 -86.5q78 -41 148 -95.5t114.5 -127.5t44.5 -170q0 -122 -65 -211.5t-180 -138.5t-267 -49q-164 0 -279 47t-175 134.5t-60 209.5q0 100 37.5 174t101.5 127.5t141 91.5
q-65 41 -118.5 93t-85 119t-31.5 154q0 116 65.5 194t172.5 117.5t231 39.5zM358 389q0 -79 56.5 -130.5t167.5 -51.5q115 0 172 49.5t57 130.5q0 56 -32.5 98t-81.5 75.5t-99 62.5l-27 14q-64 -29 -111.5 -65t-74.5 -81t-27 -102zM584 1255q-76 0 -126 -39t-50 -110
q0 -50 24.5 -87.5t65 -65.5t88.5 -52q46 22 86 49t65 65t25 91q0 71 -50.5 110t-127.5 39z" />
    <glyph glyph-name="nine" unicode="9" horiz-adv-x="1171" 
d="M1098 838q0 -126 -18.5 -250t-64.5 -233.5t-129 -194t-211 -132.5t-310 -48q-43 0 -101 3.5t-96 10.5v248q40 -10 85 -15.5t91 -5.5q183 0 282.5 58t140 161t46.5 238h-12q-29 -48 -68.5 -86.5t-100.5 -61t-155 -22.5q-125 0 -217.5 54.5t-143 158t-50.5 250.5
q0 159 60.5 272.5t172.5 174.5t264 61q112 0 209 -38.5t170.5 -117.5t114.5 -200t41 -285zM569 1231q-90 0 -147 -62t-57 -194q0 -106 49 -168t149 -62q69 0 120 30.5t79.5 77t28.5 95.5q0 51 -14 101t-42 91t-69.5 66t-96.5 25z" />
    <glyph glyph-name="colon" unicode=":" horiz-adv-x="584" 
d="M117 143q0 94 51.5 132t124.5 38q71 0 122.5 -38t51.5 -132q0 -90 -51.5 -130t-122.5 -40q-73 0 -124.5 40t-51.5 130zM117 969q0 94 51.5 132t124.5 38q71 0 122.5 -38t51.5 -132q0 -91 -51.5 -130.5t-122.5 -39.5q-73 0 -124.5 39.5t-51.5 130.5z" />
    <glyph glyph-name="semicolon" unicode=";" horiz-adv-x="584" 
d="M444 238l15 -23q-18 -72 -46.5 -155t-62 -166t-67.5 -158h-220q20 81 39 170t35.5 175t26.5 157h280zM117 969q0 94 51.5 132t124.5 38q71 0 122.5 -38t51.5 -132q0 -91 -51.5 -130.5t-122.5 -39.5q-73 0 -124.5 39.5t-51.5 130.5z" />
    <glyph glyph-name="less" unicode="&#x3c;" horiz-adv-x="1171" 
d="M1081 203l-993 438v143l993 496v-240l-684 -317l684 -281v-239z" />
    <glyph glyph-name="equal" unicode="=" horiz-adv-x="1171" 
d="M88 807v217h993v-217h-993zM88 418v219h993v-219h-993z" />
    <glyph glyph-name="greater" unicode="&#x3e;" horiz-adv-x="1171" 
d="M88 442l684 281l-684 317v240l993 -496v-143l-993 -438v239z" />
    <glyph glyph-name="question" unicode="?" horiz-adv-x="977" 
d="M276 485v74q0 68 19 120.5t61 100t111 97.5q62 44 99.5 79t55 69.5t17.5 78.5q0 65 -48 99t-134 34t-170.5 -27t-171.5 -71l-109 219q100 56 217 90.5t256 34.5q214 0 331.5 -102.5t117.5 -260.5q0 -84 -26.5 -145.5t-80 -114t-133.5 -110.5q-60 -44 -92 -74t-43.5 -59.5
t-11.5 -71.5v-60h-265zM244 143q0 94 51.5 132t124.5 38q71 0 122.5 -38t51.5 -132q0 -90 -51.5 -130t-122.5 -40q-73 0 -124.5 40t-51.5 130z" />
    <glyph glyph-name="at" unicode="@" horiz-adv-x="1837" 
d="M1735 733q0 -95 -22.5 -187.5t-68.5 -167t-115.5 -119t-164.5 -44.5q-75 0 -132.5 36t-80.5 93h-16q-42 -51 -110 -90t-165 -39q-183 0 -282 109.5t-99 287.5q0 138 59 243.5t168 165.5t257 60q97 0 199.5 -17.5t160.5 -37.5l-20 -420q-2 -21 -2.5 -42t-0.5 -27
q0 -85 23.5 -112.5t52.5 -27.5q46 0 77 46t47 123t16 169q0 171 -69.5 291.5t-190 184t-273.5 63.5q-161 0 -284 -51t-206.5 -143t-126 -217t-42.5 -273q0 -184 66 -312t194.5 -194t314.5 -66q119 0 247.5 26.5t235.5 66.5v-193q-98 -41 -219 -65.5t-256 -24.5
q-254 0 -434 90t-275.5 259.5t-95.5 406.5q0 186 61.5 345.5t176.5 279t277.5 186.5t363.5 67q219 0 389.5 -88.5t267.5 -251.5t97 -389zM711 608q0 -112 46.5 -161.5t125.5 -49.5q103 0 145 75t49 196l13 221q-23 5 -52 7.5t-63 2.5q-97 0 -155 -42.5t-83.5 -109
t-25.5 -139.5z" />
    <glyph glyph-name="A" unicode="A" horiz-adv-x="1413" 
d="M1079 0l-106 348h-533l-106 -348h-334l516 1468h379l518 -1468h-334zM899 608l-106 340q-10 34 -26.5 87.5t-33 109t-26.5 96.5q-10 -41 -27.5 -101.5t-33.5 -114.5t-23 -77l-105 -340h381z" />
    <glyph glyph-name="B" unicode="B" horiz-adv-x="1376" 
d="M184 1462h455q292 0 442 -82t150 -288q0 -83 -26.5 -150t-76.5 -110t-122 -56v-10q73 -15 132 -51.5t94.5 -106t35.5 -184.5q0 -133 -65 -228t-185.5 -145.5t-286.5 -50.5h-547v1462zM494 883h180q135 0 187 42.5t52 125.5q0 84 -61.5 120.5t-194.5 36.5h-163v-325z
M494 637v-381h202q140 0 195 54t55 145q0 54 -24 95t-80.5 64t-155.5 23h-192z" />
    <glyph glyph-name="C" unicode="C" horiz-adv-x="1305" 
d="M805 1225q-89 0 -157.5 -34.5t-115 -99.5t-70.5 -157t-24 -207q0 -155 38.5 -264.5t119.5 -167t209 -57.5q89 0 178.5 20t194.5 57v-260q-97 -40 -191 -57.5t-211 -17.5q-226 0 -371.5 93.5t-215.5 262t-70 393.5q0 166 45 304t132 239t215 156t294 55q109 0 218.5 -27.5
t209.5 -75.5l-100 -252q-82 39 -165 68t-163 29z" />
    <glyph glyph-name="D" unicode="D" horiz-adv-x="1516" 
d="M1397 745q0 -247 -94.5 -412.5t-273.5 -249t-431 -83.5h-414v1462h459q230 0 399 -81.5t262 -241t93 -394.5zM1075 737q0 162 -47.5 266.5t-140 154.5t-228.5 50h-165v-952h133q227 0 337.5 121t110.5 360z" />
    <glyph glyph-name="E" unicode="E" horiz-adv-x="1147" 
d="M1026 0h-842v1462h842v-254h-532v-321h495v-254h-495v-377h532v-256z" />
    <glyph glyph-name="F" unicode="F" horiz-adv-x="1124" 
d="M489 0h-305v1462h838v-254h-533v-377h496v-253h-496v-578z" />
    <glyph glyph-name="G" unicode="G" horiz-adv-x="1483" 
d="M739 821h580v-758q-115 -38 -239 -60.5t-281 -22.5q-218 0 -370 86t-231 254t-79 413q0 230 88.5 398t259 260t416.5 92q116 0 229 -25t205 -65l-103 -248q-67 34 -153 57t-180 23q-135 0 -234.5 -62t-154 -173.5t-54.5 -262.5q0 -143 39 -253.5t123 -173t219 -62.5
q66 0 111.5 6.5t85.5 13.5v305h-277v258z" />
    <glyph glyph-name="H" unicode="H" horiz-adv-x="1567" 
d="M1382 0h-309v631h-579v-631h-310v1462h310v-573h579v573h309v-1462z" />
    <glyph glyph-name="I" unicode="I" horiz-adv-x="678" 
d="M184 0v1462h310v-1462h-310z" />
    <glyph glyph-name="J" unicode="J" horiz-adv-x="678" 
d="M31 -430q-60 0 -105.5 6.5t-77.5 15.5v258q32 -7 68.5 -13.5t77.5 -6.5q54 0 97 20.5t68 77.5t25 164v1370h310v-1368q0 -188 -58.5 -303.5t-163 -168t-241.5 -52.5z" />
    <glyph glyph-name="K" unicode="K" horiz-adv-x="1360" 
d="M1360 0h-352l-383 616l-131 -94v-522h-310v1462h310v-669q31 43 61 86t61 86l396 497h344l-510 -647z" />
    <glyph glyph-name="L" unicode="L" horiz-adv-x="1157" 
d="M184 0v1462h310v-1206h593v-256h-903z" />
    <glyph glyph-name="M" unicode="M" horiz-adv-x="1931" 
d="M803 0l-352 1147h-9q2 -41 6.5 -123.5t8.5 -175.5t4 -168v-680h-277v1462h422l346 -1118h6l367 1118h422v-1462h-289v692q0 69 2.5 159t6.5 171.5t6 122.5h-9l-377 -1145h-284z" />
    <glyph glyph-name="N" unicode="N" horiz-adv-x="1665" 
d="M1481 0h-394l-636 1106h-9q4 -69 7 -139t6 -139.5t6 -139.5v-688h-277v1462h391l635 -1095h7q-2 68 -5 135t-5.5 134t-4.5 134v692h279v-1462z" />
    <glyph glyph-name="O" unicode="O" horiz-adv-x="1630" 
d="M1511 733q0 -169 -42 -307.5t-127.5 -238.5t-216.5 -153.5t-310 -53.5t-310 53.5t-216.5 153.5t-127.5 239t-42 309q0 227 74.5 395.5t229.5 261.5t394 93q238 0 391.5 -93t228 -262t74.5 -397zM444 733q0 -153 38.5 -263.5t120.5 -170t212 -59.5q132 0 214 59.5
t119.5 170t37.5 263.5q0 230 -86 362t-283 132q-131 0 -213.5 -59.5t-121 -170t-38.5 -264.5z" />
    <glyph glyph-name="P" unicode="P" horiz-adv-x="1286" 
d="M651 1462q283 0 413 -121.5t130 -334.5q0 -96 -29 -183.5t-94.5 -155.5t-174.5 -107.5t-269 -39.5h-133v-520h-310v1462h467zM635 1208h-141v-434h102q87 0 151 23t99 72t35 126q0 108 -60 160.5t-186 52.5z" />
    <glyph glyph-name="Q" unicode="Q" horiz-adv-x="1630" 
d="M1511 733q0 -163 -38.5 -298.5t-118.5 -234.5t-203 -155l352 -393h-397l-268 328h-12h-11q-179 0 -310 53.5t-216.5 153.5t-127.5 239t-42 309q0 227 74.5 395.5t229.5 261.5t394 93q238 0 391.5 -93t228 -262t74.5 -397zM444 733q0 -153 38.5 -263.5t120.5 -170
t212 -59.5q132 0 214 59.5t119.5 170t37.5 263.5q0 230 -86 362t-283 132q-131 0 -213.5 -59.5t-121 -170t-38.5 -264.5z" />
    <glyph glyph-name="R" unicode="R" horiz-adv-x="1352" 
d="M610 1462q199 0 328.5 -48t192.5 -145t63 -245q0 -100 -38 -175t-100 -127t-134 -85l430 -637h-344l-349 561h-165v-561h-310v1462h426zM588 1208h-94v-395h100q154 0 220.5 51.5t66.5 151.5q0 104 -71.5 148t-221.5 44z" />
    <glyph glyph-name="S" unicode="S" horiz-adv-x="1128" 
d="M1047 406q0 -130 -63 -226t-183.5 -148t-292.5 -52q-76 0 -148.5 10t-139 29.5t-126.5 48.5v288q104 -46 216 -83t222 -37q76 0 122.5 20t67.5 55t21 80q0 55 -37 94t-101.5 73t-145.5 73q-51 24 -111 58.5t-114 84.5t-88.5 121.5t-34.5 171.5q0 131 60 224t171.5 142.5
t263.5 49.5q114 0 217.5 -26.5t216.5 -76.5l-100 -241q-101 41 -181 63.5t-163 22.5q-58 0 -99 -18.5t-62 -52t-21 -77.5q0 -52 30.5 -87.5t92 -68.5t153.5 -77q112 -53 191.5 -110.5t122.5 -135t43 -192.5z" />
    <glyph glyph-name="T" unicode="T" horiz-adv-x="1186" 
d="M748 0h-310v1204h-397v258h1104v-258h-397v-1204z" />
    <glyph glyph-name="U" unicode="U" horiz-adv-x="1548" 
d="M1374 1462v-946q0 -151 -66.5 -272.5t-201 -192.5t-338.5 -71q-290 0 -442 148t-152 392v942h309v-895q0 -181 74 -254t219 -73q102 0 165.5 35t93.5 108t30 186v893h309z" />
    <glyph glyph-name="V" unicode="V" horiz-adv-x="1331" 
d="M1331 1462l-497 -1462h-338l-496 1462h313l275 -870q7 -22 23 -82.5t32.5 -128t22.5 -111.5q6 44 21.5 111t31 127.5t22.5 83.5l277 870h313z" />
    <glyph glyph-name="W" unicode="W" horiz-adv-x="1980" 
d="M1980 1462l-372 -1462h-353l-198 768q-6 22 -16 67t-21 98.5t-19.5 101t-11.5 75.5q-3 -28 -11.5 -75t-19 -100t-20.5 -99t-16 -70l-197 -766h-352l-373 1462h305l187 -798q8 -36 18.5 -86t21 -104.5t19 -105t12.5 -87.5q5 38 13 88.5t17.5 103t19.5 97.5t18 73l213 819
h293l213 -819q7 -27 16.5 -72.5t19.5 -98.5t18.5 -103.5t12.5 -87.5q7 50 19.5 121.5t27 142.5t25.5 119l186 798h305z" />
    <glyph glyph-name="X" unicode="X" horiz-adv-x="1366" 
d="M1366 0h-354l-340 553l-340 -553h-332l485 754l-454 708h342l315 -526l309 526h334l-459 -725z" />
    <glyph glyph-name="Y" unicode="Y" horiz-adv-x="1278" 
d="M639 860l305 602h334l-485 -893v-569h-308v559l-485 903h336z" />
    <glyph glyph-name="Z" unicode="Z" horiz-adv-x="1186" 
d="M1137 0h-1088v201l701 1005h-682v256h1050v-200l-700 -1006h719v-256z" />
    <glyph glyph-name="bracketleft" unicode="[" horiz-adv-x="678" 
d="M627 -324h-484v1786h484v-211h-224v-1364h224v-211z" />
    <glyph glyph-name="backslash" unicode="\" horiz-adv-x="846" 
d="M289 1462l545 -1462h-277l-545 1462h277z" />
    <glyph glyph-name="bracketright" unicode="]" horiz-adv-x="678" 
d="M51 -113h223v1364h-223v211h484v-1786h-484v211z" />
    <glyph glyph-name="asciicircum" unicode="^" horiz-adv-x="1171" 
d="M47 520l438 950h144l495 -950h-239l-322 643l-280 -643h-236z" />
    <glyph glyph-name="underscore" unicode="_" horiz-adv-x="842" 
d="M846 -324h-850v140h850v-140z" />
    <glyph glyph-name="grave" unicode="`" horiz-adv-x="741" 
d="M424 1569q30 -46 72.5 -102t86.5 -108.5t76 -90.5v-27h-202q-39 27 -91 67.5t-106.5 85t-101.5 85.5t-76 69v21h342z" />
    <glyph glyph-name="a" unicode="a" horiz-adv-x="1237" 
d="M618 1141q225 0 345 -98t120 -298v-745h-213l-59 152h-8q-48 -60 -98 -98t-115 -56t-158 -18q-99 0 -177.5 38t-123.5 116.5t-45 199.5q0 178 125 262.5t375 93.5l194 6v49q0 88 -46 129t-128 41q-81 0 -159 -23t-156 -58l-101 206q89 47 199.5 74t228.5 27zM780 518
l-118 -4q-148 -4 -205.5 -53t-57.5 -129q0 -70 41 -99.5t107 -29.5q98 0 165.5 58t67.5 165v92z" />
    <glyph glyph-name="b" unicode="b" horiz-adv-x="1296" 
d="M465 1556v-362q0 -63 -3.5 -125t-8.5 -96h12q44 69 120 117.5t197 48.5q188 0 305 -147t117 -431q0 -191 -54 -320.5t-151 -195t-225 -65.5q-123 0 -194 44t-115 99h-21l-51 -123h-233v1556h305zM684 895q-80 0 -127 -33t-68.5 -99t-23.5 -167v-33q0 -163 48 -249.5
t175 -86.5q94 0 149.5 87t55.5 251t-56 247t-153 83z" />
    <glyph glyph-name="c" unicode="c" horiz-adv-x="1053" 
d="M614 -20q-166 0 -283 60.5t-178 187.5t-61 325q0 205 69.5 334.5t193 190.5t286.5 61q116 0 200.5 -22.5t147.5 -53.5l-90 -236q-72 29 -134 47.5t-124 18.5q-80 0 -133 -37.5t-79 -112.5t-26 -188q0 -111 28 -184t81 -108.5t129 -35.5q95 0 169 25.5t144 71.5v-261
q-70 -44 -146.5 -63.5t-193.5 -19.5z" />
    <glyph glyph-name="d" unicode="d" horiz-adv-x="1296" 
d="M514 -20q-187 0 -304.5 146.5t-117.5 430.5q0 287 119 434.5t311 147.5q80 0 141 -22t105.5 -59t75.5 -83h10q-6 32 -14.5 94.5t-8.5 128.5v358h306v-1556h-234l-59 145h-13q-29 -46 -72.5 -83.5t-103.5 -59.5t-141 -22zM621 223q125 0 176.5 74.5t54.5 224.5v33
q0 163 -50 249.5t-186 86.5q-101 0 -158 -87t-57 -251t57.5 -247t162.5 -83z" />
    <glyph glyph-name="e" unicode="e" horiz-adv-x="1210" 
d="M621 1139q155 0 267 -59.5t173 -172.5t61 -276v-148h-721q5 -129 77.5 -202.5t201.5 -73.5q107 0 196 22t183 66v-236q-83 -41 -173.5 -60t-219.5 -19q-168 0 -297.5 62t-203 189t-73.5 320q0 196 66.5 326.5t185.5 196t277 65.5zM623 922q-89 0 -147.5 -57t-67.5 -179
h428q-1 68 -24.5 121t-70 84t-118.5 31z" />
    <glyph glyph-name="f" unicode="f" horiz-adv-x="793" 
d="M778 889h-264v-889h-305v889h-168v147l168 82v82q0 143 48.5 222.5t137 112t209.5 32.5q89 0 162 -14.5t119 -32.5l-78 -224q-35 11 -76 20t-94 9q-64 0 -93.5 -38.5t-29.5 -98.5v-70h264v-229z" />
    <glyph glyph-name="g" unicode="g" horiz-adv-x="1157" 
d="M487 -492q-234 0 -357.5 81.5t-123.5 228.5q0 101 63 169t185 97q-47 20 -82 65.5t-35 96.5q0 64 37 106.5t107 83.5q-88 38 -139.5 122t-51.5 198q0 122 53.5 207.5t156 130.5t249.5 45q31 0 72 -4t75.5 -9t46.5 -8h390v-155l-175 -45q24 -37 36 -79t12 -89
q0 -180 -125.5 -280.5t-348.5 -100.5q-53 3 -100 8q-23 -18 -35 -38t-12 -42t18.5 -36.5t56 -22t93.5 -7.5h190q184 0 280.5 -79t96.5 -232q0 -196 -163.5 -304t-469.5 -108zM500 -293q109 0 187.5 20.5t120.5 58t42 89.5q0 42 -24.5 66.5t-74 34.5t-126.5 10h-158
q-56 0 -100.5 -18t-70.5 -50.5t-26 -75.5q0 -63 60.5 -99t169.5 -36zM549 555q86 0 126 53t40 144q0 101 -41.5 151.5t-124.5 50.5q-84 0 -126 -50.5t-42 -151.5q0 -91 41.5 -144t126.5 -53z" />
    <glyph glyph-name="h" unicode="h" horiz-adv-x="1346" 
d="M465 1556v-317q0 -83 -5.5 -158t-8.5 -106h16q36 58 85.5 94t109.5 53t129 17q121 0 211 -42.5t140 -133t50 -234.5v-729h-305v653q0 120 -44 181t-136 61t-145 -42.5t-75 -125t-22 -201.5v-526h-305v1556h305z" />
    <glyph glyph-name="i" unicode="i" horiz-adv-x="625" 
d="M465 1118v-1118h-305v1118h305zM313 1556q68 0 117 -31.5t49 -117.5q0 -85 -49 -117.5t-117 -32.5q-69 0 -117.5 32.5t-48.5 117.5q0 86 48.5 117.5t117.5 31.5z" />
    <glyph glyph-name="j" unicode="j" horiz-adv-x="625" 
d="M70 -492q-52 0 -108 7.5t-93 17.5v240q37 -10 69.5 -14.5t73.5 -4.5q62 0 105 34.5t43 135.5v1194h305v-1239q0 -102 -39 -186.5t-126 -134.5t-230 -50zM147 1407q0 86 48.5 117.5t117.5 31.5q68 0 117 -31.5t49 -117.5q0 -85 -49 -117.5t-117 -32.5q-69 0 -117.5 32.5
t-48.5 117.5z" />
    <glyph glyph-name="k" unicode="k" horiz-adv-x="1270" 
d="M465 1556v-696q0 -63 -5 -126t-11 -126h4q31 44 63.5 87t69.5 83l313 340h344l-444 -485l471 -633h-352l-322 453l-131 -105v-348h-305v1556h305z" />
    <glyph glyph-name="l" unicode="l" horiz-adv-x="625" 
d="M465 0h-305v1556h305v-1556z" />
    <glyph glyph-name="m" unicode="m" horiz-adv-x="2011" 
d="M1473 1139q190 0 287.5 -97.5t97.5 -312.5v-729h-306v653q0 120 -41 181t-127 61q-121 0 -172 -86.5t-51 -247.5v-561h-305v653q0 80 -18 134t-55 81t-95 27q-85 0 -133.5 -42.5t-69 -125t-20.5 -201.5v-526h-305v1118h233l41 -143h17q34 58 85.5 94t113.5 53t126 17
q123 0 208.5 -40t131.5 -124h27q50 86 141.5 125t188.5 39z" />
    <glyph glyph-name="n" unicode="n" horiz-adv-x="1346" 
d="M795 1139q179 0 288 -97.5t109 -312.5v-729h-305v653q0 120 -43.5 181t-136.5 61q-140 0 -191 -95t-51 -274v-526h-305v1118h233l41 -143h17q36 58 89.5 94t119 53t135.5 17z" />
    <glyph glyph-name="o" unicode="o" horiz-adv-x="1268" 
d="M1176 561q0 -140 -37.5 -248t-109 -182.5t-172 -112.5t-226.5 -38q-118 0 -216.5 38t-171 112.5t-112 182.5t-39.5 248q0 186 66 315t188 196t291 67q157 0 278.5 -67t191 -196t69.5 -315zM403 561q0 -110 24 -185t75 -113t133 -38q81 0 131.5 38t74 113t23.5 185
q0 111 -23.5 184.5t-74.5 110.5t-133 37q-121 0 -175.5 -83t-54.5 -249z" />
    <glyph glyph-name="p" unicode="p" horiz-adv-x="1296" 
d="M782 1139q189 0 305.5 -147t116.5 -431q0 -190 -55 -319.5t-152 -195.5t-223 -66q-81 0 -139 20.5t-99 53t-71 69.5h-16q8 -40 12 -82t4 -82v-451h-305v1610h248l43 -145h14q30 45 73 83t103.5 60.5t140.5 22.5zM684 895q-80 0 -127 -33t-68.5 -99t-23.5 -167v-33
q0 -108 20.5 -183t69 -114t133.5 -39q70 0 115 39t67.5 114.5t22.5 184.5q0 164 -51 247t-158 83z" />
    <glyph glyph-name="q" unicode="q" horiz-adv-x="1296" 
d="M831 -492v469q0 42 3.5 84.5t9.5 83.5h-13q-43 -69 -118.5 -117t-198.5 -48q-189 0 -305.5 146.5t-116.5 430.5q0 191 54 320.5t150.5 195.5t223.5 66q123 0 199.5 -47.5t124.5 -116.5h8l27 143h258v-1610h-306zM623 219q84 0 133.5 33t71.5 99.5t24 166.5v37
q0 163 -50 249.5t-184 86.5q-109 0 -162 -87t-53 -251q0 -167 54 -250.5t166 -83.5z" />
    <glyph glyph-name="r" unicode="r" horiz-adv-x="930" 
d="M784 1139q23 0 53.5 -2.5t49.5 -6.5l-23 -286q-15 5 -42.5 7.5t-47.5 2.5q-59 0 -114.5 -15t-99.5 -48.5t-69.5 -88t-25.5 -133.5v-569h-305v1118h231l45 -188h15q33 57 82.5 104.5t113 76t137.5 28.5z" />
    <glyph glyph-name="s" unicode="s" horiz-adv-x="1018" 
d="M940 332q0 -114 -53.5 -192.5t-159.5 -119t-264 -40.5q-117 0 -200.5 15t-168.5 50v252q91 -41 195.5 -67.5t183.5 -26.5q89 0 127.5 26.5t38.5 69.5q0 28 -15.5 50.5t-66.5 51t-160 74.5q-105 44 -172.5 89t-100 106.5t-32.5 156.5q0 155 120.5 233.5t322.5 78.5
q104 0 198.5 -21t194.5 -67l-92 -220q-83 36 -156.5 59t-149.5 23q-67 0 -101 -18t-34 -55q0 -27 17.5 -48t68 -46.5t148.5 -65.5q95 -39 165 -81.5t108 -105t38 -161.5z" />
    <glyph glyph-name="t" unicode="t" horiz-adv-x="889" 
d="M631 223q50 0 97.5 10t94.5 25v-227q-49 -22 -121.5 -36.5t-158.5 -14.5q-100 0 -179.5 32.5t-125 113t-45.5 224.5v539h-146v129l168 102l88 236h195v-238h313v-229h-313v-539q0 -64 36.5 -95.5t96.5 -31.5z" />
    <glyph glyph-name="u" unicode="u" horiz-adv-x="1346" 
d="M1186 1118v-1118h-234l-41 143h-16q-36 -57 -90 -93t-119 -53t-135 -17q-120 0 -209 42.5t-138.5 132.5t-49.5 234v729h305v-653q0 -120 43 -181t137 -61q93 0 146 42.5t74.5 125t21.5 201.5v526h305z" />
    <glyph glyph-name="v" unicode="v" horiz-adv-x="1165" 
d="M426 0l-426 1118h319l216 -637q18 -56 28.5 -118t14.5 -111h8q3 53 14.5 113t30.5 116l215 637h319l-426 -1118h-313z" />
    <glyph glyph-name="w" unicode="w" horiz-adv-x="1753" 
d="M1079 0l-86 391q-7 35 -23 103.5t-34.5 147t-34 145.5t-22.5 98h-9q-7 -31 -22 -98t-33.5 -146t-34.5 -148.5t-24 -105.5l-90 -387h-328l-318 1118h304l129 -495q13 -52 25 -123.5t21.5 -138t14.5 -105.5h8q2 29 8.5 77t15 99.5t16 93t11.5 56.5l138 536h336l131 -536
q7 -29 18.5 -92t20.5 -129.5t10 -104.5h8q4 34 14 101t23.5 140.5t27.5 125.5l134 495h299l-322 -1118h-332z" />
    <glyph glyph-name="x" unicode="x" horiz-adv-x="1184" 
d="M389 571l-360 547h346l217 -356l219 356h346l-364 -547l381 -571h-347l-235 383l-236 -383h-346z" />
    <glyph glyph-name="y" unicode="y" horiz-adv-x="1165" 
d="M0 1118h334l211 -629q10 -30 17 -61t12 -64t8 -69h6q6 54 16.5 101t26.5 93l207 629h327l-473 -1261q-43 -116 -112 -193.5t-158.5 -116.5t-196.5 -39q-52 0 -90 5.5t-65 11.5v242q21 -5 53 -9t67 -4q64 0 110 27t77 72.5t49 99.5l18 55z" />
    <glyph glyph-name="z" unicode="z" horiz-adv-x="999" 
d="M938 0h-883v180l518 705h-487v233h834v-198l-504 -687h522v-233z" />
    <glyph glyph-name="braceleft" unicode="{" horiz-adv-x="807" 
d="M725 -324q-175 0 -270 28.5t-131.5 90.5t-36.5 160v315q0 65 -29.5 104t-86.5 57t-140 18v239q83 0 140 17.5t86.5 57t29.5 103.5v318q0 98 36.5 159.5t131.5 90t270 28.5v-225q-53 -1 -92.5 -12.5t-60.5 -41.5t-21 -87v-299q0 -94 -60 -149.5t-174 -72.5v-12
q114 -16 174 -71.5t60 -149.5v-299q0 -57 21 -87.5t60.5 -41.5t92.5 -12v-226z" />
    <glyph glyph-name="bar" unicode="|" horiz-adv-x="1128" 
d="M455 1550h219v-2015h-219v2015z" />
    <glyph glyph-name="braceright" unicode="}" horiz-adv-x="807" 
d="M82 -324v226q53 1 92 12t60.5 41.5t21.5 87.5v299q0 94 60 149.5t173 71.5v12q-113 17 -173 72.5t-60 149.5v299q0 57 -21.5 87t-60.5 41.5t-92 12.5v225q175 0 270 -28.5t131.5 -90t36.5 -159.5v-318q0 -64 29.5 -103.5t86.5 -57t140 -17.5v-239q-83 0 -140 -18
t-86.5 -57t-29.5 -104v-315q0 -98 -36.5 -160t-131.5 -90.5t-270 -28.5z" />
    <glyph glyph-name="asciitilde" unicode="~" horiz-adv-x="1171" 
d="M549 616q-75 32 -128 44t-99 12q-58 0 -120.5 -35.5t-113.5 -85.5v231q51 54 114.5 81.5t141.5 27.5q60 0 120 -11.5t157 -52.5q75 -32 128.5 -43.5t98.5 -11.5q59 0 121 35t112 86v-231q-50 -54 -113.5 -81.5t-142.5 -27.5q-60 0 -119.5 11.5t-156.5 51.5z" />
    <glyph glyph-name="uni00A0" unicode="&#xa0;" horiz-adv-x="532" 
 />
    <glyph glyph-name="exclamdown" unicode="&#xa1;" horiz-adv-x="586" 
d="M168 606h244l51 -975h-346zM467 948q0 -94 -51 -132t-125 -38q-70 0 -122 38t-52 132q0 91 52 130.5t122 39.5q74 0 125 -39.5t51 -130.5z" />
    <glyph glyph-name="cent" unicode="&#xa2;" horiz-adv-x="1171" 
d="M741 1483v-158q97 -4 170 -25t129 -49l-90 -235q-72 29 -134 47t-124 18q-80 0 -132.5 -37.5t-78.5 -112.5t-26 -188q0 -111 28 -183.5t81 -108t128 -35.5q95 0 164.5 20t149.5 56v-254q-64 -31 -128 -48t-137 -22v-188h-178v196q-132 19 -226 84.5t-144 184.5t-50 296
q0 192 52.5 312t147 183t220.5 81v166h178z" />
    <glyph glyph-name="sterling" unicode="&#xa3;" horiz-adv-x="1171" 
d="M700 1483q111 0 210.5 -24t179.5 -58l-93 -230q-70 29 -139.5 46.5t-132.5 17.5q-66 0 -114 -38.5t-48 -133.5v-193h375v-219h-375v-143q0 -73 -23 -121t-57.5 -78t-70.5 -49h718v-260h-1048v248q57 25 97 54.5t61.5 77.5t21.5 126v145h-178v219h178v195
q0 151 59.5 242.5t159 133.5t219.5 42z" />
    <glyph glyph-name="currency" unicode="&#xa4;" horiz-adv-x="1171" 
d="M188 723q0 54 14.5 104t39.5 93l-129 127l147 147l127 -127q43 25 94.5 39t102.5 14q53 0 101.5 -13.5t94.5 -41.5l127 129l150 -143l-129 -129q25 -42 39 -93.5t14 -105.5q0 -55 -13.5 -104.5t-39.5 -94.5l125 -125l-146 -145l-127 125q-43 -23 -93 -37t-103 -14
q-55 0 -105.5 12.5t-93.5 38.5l-125 -123l-145 145l127 125q-26 45 -40 94t-14 103zM395 723q0 -52 25.5 -95t68.5 -68t95 -25q53 0 96.5 25t69.5 68t26 95q0 53 -26 96t-69.5 68.5t-96.5 25.5q-52 0 -95 -25.5t-68.5 -68.5t-25.5 -96z" />
    <glyph glyph-name="yen" unicode="&#xa5;" horiz-adv-x="1171" 
d="M584 860l264 602h313l-383 -747h195v-178h-246v-138h246v-178h-246v-221h-287v221h-247v178h247v138h-247v178h190l-377 747h316z" />
    <glyph glyph-name="brokenbar" unicode="&#xa6;" horiz-adv-x="1128" 
d="M455 1550h219v-815h-219v815zM455 350h219v-815h-219v815z" />
    <glyph glyph-name="section" unicode="&#xa7;" horiz-adv-x="995" 
d="M121 801q0 88 39.5 149.5t93.5 98.5q-63 40 -98 98t-35 133q0 129 111.5 208t293.5 79q102 0 190 -23.5t173 -60.5l-82 -191q-67 32 -138.5 58t-148.5 26q-81 0 -118 -22.5t-37 -69.5q0 -33 22 -59.5t69 -51.5t122 -55q95 -38 166.5 -85.5t111 -109.5t39.5 -143
q0 -100 -34.5 -160.5t-90.5 -97.5q62 -40 93.5 -92.5t31.5 -126.5q0 -148 -118.5 -235.5t-321.5 -87.5q-109 0 -194 20.5t-155 58.5v207q53 -26 114 -48.5t122.5 -36t112.5 -13.5q112 0 153 34t41 83q0 34 -15 58.5t-59.5 50.5t-132.5 63q-102 42 -173.5 86.5t-109.5 105.5
t-38 152zM344 823q0 -41 25 -75.5t76 -66.5t130 -65l15 -6q29 22 53.5 57t24.5 87q0 41 -19.5 75.5t-70 66.5t-144.5 65q-35 -14 -62.5 -50.5t-27.5 -87.5z" />
    <glyph glyph-name="dieresis" unicode="&#xa8;" horiz-adv-x="1243" 
d="M279 1405q0 71 40.5 103t98.5 32q57 0 99 -32t42 -103q0 -67 -42 -100t-99 -33q-58 0 -98.5 33t-40.5 100zM682 1405q0 71 40.5 103t100.5 32q57 0 99.5 -32t42.5 -103q0 -67 -42.5 -100t-99.5 -33q-60 0 -100.5 33t-40.5 100z" />
    <glyph glyph-name="copyright" unicode="&#xa9;" horiz-adv-x="1704" 
d="M852 -20q-163 0 -300.5 55.5t-239 156.5t-157 238.5t-55.5 300.5q0 156 56.5 292.5t159 239.5t239.5 161.5t297 58.5q156 0 292.5 -55.5t239.5 -157t161.5 -238.5t58.5 -301q0 -163 -55.5 -300.5t-157 -238.5t-238.5 -156.5t-301 -55.5zM883 262q-209 0 -312.5 129
t-103.5 340q0 137 48.5 242.5t143.5 166t232 60.5q63 0 129 -16t123 -45l-60 -138q-50 26 -98.5 40t-91.5 14q-121 0 -187.5 -86.5t-66.5 -237.5q0 -157 58.5 -241t193.5 -84q47 0 105.5 13.5t109.5 33.5v-142q-49 -21 -100 -35t-123 -14zM852 111q126 0 236 45.5t194 128.5
t131 196.5t47 249.5q0 128 -46 241t-128.5 199t-193 134.5t-240.5 48.5q-131 0 -242.5 -46t-194.5 -129.5t-129 -197.5t-46 -250t45 -249.5t127 -196.5t194 -128.5t246 -45.5z" />
    <glyph glyph-name="ordfeminine" unicode="&#xaa;" horiz-adv-x="784" 
d="M410 1479q146 0 216 -74t70 -199v-442h-135l-31 110q-43 -58 -105 -90t-136 -32q-73 0 -127.5 24t-84.5 73.5t-30 125.5q0 80 41.5 128t120 71t188.5 28l99 4v17q0 47 -32 73.5t-95 26.5q-46 0 -102 -17t-115 -44l-66 135q66 32 146 57t178 25zM496 1087l-99 -6
q-91 -6 -118 -37.5t-27 -66.5q0 -38 23 -56t55 -18q77 0 121.5 42t44.5 106v36z" />
    <glyph glyph-name="guillemotleft" unicode="&#xab;" horiz-adv-x="1260" 
d="M82 573l371 455l219 -119l-279 -348l279 -348l-219 -119l-371 453v26zM588 573l370 455l220 -119l-279 -348l279 -348l-220 -119l-370 453v26z" />
    <glyph glyph-name="logicalnot" unicode="&#xac;" horiz-adv-x="1171" 
d="M1081 831v-583h-219v364h-774v219h993z" />
    <glyph glyph-name="uni00AD" unicode="&#xad;" horiz-adv-x="659" 
d="M61 424v250h537v-250h-537z" />
    <glyph glyph-name="registered" unicode="&#xae;" horiz-adv-x="1704" 
d="M561 283v905h273q167 0 245 -71t78 -204q0 -97 -49 -152.5t-111 -80.5l238 -397h-186l-195 344h-127v-344h-166zM727 764h102q80 0 120 40.5t40 104.5q0 73 -36.5 105.5t-125.5 32.5h-100v-283zM852 -20q-163 0 -300.5 55.5t-239 156.5t-157 238.5t-55.5 300.5
q0 156 56.5 292.5t159 239.5t239.5 161.5t297 58.5q156 0 292.5 -55.5t239.5 -157t161.5 -238.5t58.5 -301q0 -163 -55.5 -300.5t-157 -238.5t-238.5 -156.5t-301 -55.5zM852 111q126 0 236 45.5t194 128.5t131 196.5t47 249.5q0 128 -46 241t-128.5 199t-193 134.5
t-240.5 48.5q-131 0 -242.5 -46t-194.5 -129.5t-129 -197.5t-46 -250t45 -249.5t127 -196.5t194 -128.5t246 -45.5z" />
    <glyph glyph-name="overscore" unicode="&#xaf;" horiz-adv-x="1024" 
d="M1030 1556h-1036v201h1036v-201z" />
    <glyph glyph-name="degree" unicode="&#xb0;" horiz-adv-x="877" 
d="M438 793q-105 0 -186 43.5t-126.5 121.5t-45.5 179q0 100 45.5 178t126.5 123t186 45q106 0 186 -44.5t125.5 -122.5t45.5 -179t-45.5 -179t-125.5 -121.5t-186 -43.5zM438 983q65 0 110.5 41.5t45.5 112.5q0 74 -45.5 115.5t-110.5 41.5q-64 0 -109.5 -41.5
t-45.5 -115.5q0 -71 45.5 -112.5t109.5 -41.5z" />
    <glyph glyph-name="plusminus" unicode="&#xb1;" horiz-adv-x="1171" 
d="M88 0v219h993v-219h-993zM694 892h387v-219h-387v-385h-219v385h-387v219h387v390h219v-390z" />
    <glyph glyph-name="uni00B2" unicode="&#xb2;" horiz-adv-x="776" 
d="M702 852h-647v168l224 219q61 60 95.5 100t49 72t14.5 68q0 37 -24 57t-64 20t-83.5 -20.5t-96.5 -67.5l-123 152q65 57 146 93t190 36q132 0 213.5 -64t81.5 -186q0 -61 -22.5 -114t-71.5 -109t-129 -129l-105 -94h352v-201z" />
    <glyph glyph-name="uni00B3" unicode="&#xb3;" horiz-adv-x="776" 
d="M377 1747q125 0 207 -62.5t82 -168.5q0 -70 -40.5 -120t-129.5 -79v-12q101 -22 149.5 -80t48.5 -129q0 -121 -88 -190.5t-274 -69.5q-76 0 -142 17t-131 52v191q66 -40 132 -65t139 -25q74 0 108.5 27t34.5 79q0 41 -34.5 74t-131.5 33h-112v159h92q104 0 134 34t30 75
q0 38 -25 63t-76 25q-47 0 -89 -19t-99 -59l-101 141q62 47 137.5 78t178.5 31z" />
    <glyph glyph-name="acute" unicode="&#xb4;" horiz-adv-x="741" 
d="M659 1569v-21q-29 -28 -76 -69t-101 -85.5t-106 -85t-91 -67.5h-203v27q33 38 76.5 90.5t86.5 108.5t72 102h342z" />
    <glyph glyph-name="uni00B5" unicode="&#xb5;" horiz-adv-x="1352" 
d="M1192 1118v-1118h-231l-43 150h-15q-27 -56 -63 -94t-82 -57t-105 -19q-61 0 -110.5 23.5t-81.5 66.5h-6q3 -21 5 -64.5t3.5 -92t1.5 -85.5v-320h-305v1610h305v-653q0 -120 44 -181t138 -61q91 0 143.5 42.5t74.5 125t22 201.5v526h305z" />
    <glyph glyph-name="paragraph" unicode="&#xb6;" horiz-adv-x="1341" 
d="M1167 -260h-161v1616h-166v-1616h-162v819q-31 -9 -66.5 -13.5t-79.5 -4.5q-126 0 -220.5 47.5t-146.5 157t-52 296.5q0 196 56.5 308t158 159t235.5 47h604v-1816z" />
    <glyph glyph-name="periodcentered" unicode="&#xb7;" horiz-adv-x="584" 
d="M117 721q0 94 51.5 132t124.5 38q71 0 122.5 -38t51.5 -132q0 -90 -51.5 -130t-122.5 -40q-73 0 -124.5 40t-51.5 130z" />
    <glyph glyph-name="cedilla" unicode="&#xb8;" horiz-adv-x="420" 
d="M418 -250q0 -115 -67 -178.5t-242 -63.5q-45 0 -81 6t-65 15v168q29 -7 71 -14t72 -7q29 0 50.5 13.5t21.5 48.5q0 37 -37 66t-129 42l78 154h193l-27 -61q41 -13 78 -38.5t60.5 -63t23.5 -87.5z" />
    <glyph glyph-name="uni00B9" unicode="&#xb9;" horiz-adv-x="776" 
d="M584 1729v-877h-238v446q0 27 1 70.5t3 82.5t4 54q-12 -16 -35 -40t-40 -38l-78 -61l-109 127l301 236h191z" />
    <glyph glyph-name="ordmasculine" unicode="&#xba;" horiz-adv-x="795" 
d="M737 1116q0 -173 -92.5 -268.5t-249.5 -95.5q-147 0 -242.5 95.5t-95.5 268.5q0 174 92 268.5t250 94.5q97 0 173 -42.5t120.5 -123.5t44.5 -197zM260 1116q0 -100 32.5 -150.5t104.5 -50.5q71 0 103 50.5t32 150.5t-32 149.5t-103 49.5q-72 0 -104.5 -49.5t-32.5 -149.5
z" />
    <glyph glyph-name="guillemotright" unicode="&#xbb;" horiz-adv-x="1260" 
d="M1178 547l-371 -453l-219 119l278 348l-278 348l219 119l371 -455v-26zM672 547l-371 -453l-219 119l278 348l-278 348l219 119l371 -455v-26z" />
    <glyph glyph-name="onequarter" unicode="&#xbc;" horiz-adv-x="1700" 
d="M319 0l811 1462h240l-811 -1462h-240zM299 586v446q0 27 1 70t3 82.5t4 54.5q-12 -16 -35.5 -40t-40.5 -38l-77 -61l-109 127l301 235h191v-876h-238zM1319 0v152h-383v153l385 578h235v-564h125v-167h-125v-152h-237zM1120 319h199v164q0 42 1.5 89t4.5 96
q-10 -28 -34.5 -79t-43.5 -79z" />
    <glyph glyph-name="onehalf" unicode="&#xbd;" horiz-adv-x="1790" 
d="M319 0l811 1462h240l-811 -1462h-240zM299 586v446q0 20 0.5 50t2 62t3 57.5t2.5 37.5q-12 -16 -35.5 -40t-40.5 -38l-77 -61l-109 127l301 235h191v-876h-238zM1069 0v168l223 219q62 60 96.5 100t49 72t14.5 68q0 37 -24 57.5t-64 20.5t-84 -21t-96 -68l-123 152
q65 57 146 93t190 36q132 0 213.5 -64t81.5 -186q0 -61 -22.5 -114t-72 -109t-129.5 -129l-104 -94h352v-201h-647z" />
    <glyph glyph-name="threequarters" unicode="&#xbe;" horiz-adv-x="1731" 
d="M391 0l811 1462h240l-811 -1462h-240zM362 569q-75 0 -141 17.5t-131 52.5v190q66 -40 132 -65t138 -25q74 0 109 27.5t35 79.5q0 41 -34.5 73.5t-131.5 32.5h-113v160h92q105 0 134.5 33.5t29.5 75.5q0 38 -24.5 63t-75.5 25q-48 0 -90 -19t-98 -59l-101 141
q62 47 137.5 78t178.5 31q124 0 206 -62.5t82 -169.5q0 -69 -40.5 -119t-129.5 -79v-13q102 -21 150.5 -79.5t48.5 -129.5q0 -121 -88.5 -190.5t-274.5 -69.5zM1350 0v152h-383v153l385 578h235v-564h125v-167h-125v-152h-237zM1151 319h199v164q0 42 1.5 89t4.5 96
q-11 -28 -35 -79t-43 -79z" />
    <glyph glyph-name="questiondown" unicode="&#xbf;" horiz-adv-x="977" 
d="M707 605v-74q0 -67 -19 -120t-60.5 -100t-111.5 -98q-61 -44 -99 -78.5t-55.5 -69.5t-17.5 -79q0 -64 48.5 -98.5t133.5 -34.5q86 0 170.5 27t171.5 71l109 -219q-100 -55 -216.5 -90t-256.5 -35q-214 0 -331.5 102.5t-117.5 260.5q0 84 26.5 145.5t80 114t133.5 110.5
q61 44 92.5 74t43 59.5t11.5 71.5v60h265zM739 947q0 -94 -51 -132t-125 -38q-70 0 -122 38t-52 132q0 90 52 130t122 40q74 0 125 -40t51 -130z" />
    <glyph glyph-name="Agrave" unicode="&#xc0;" horiz-adv-x="1413" 
d="M1079 0l-106 348h-533l-106 -348h-334l516 1468h379l518 -1468h-334zM899 608l-106 340q-10 34 -26.5 87.5t-33 109t-26.5 96.5q-10 -41 -27.5 -101.5t-33.5 -114.5t-23 -77l-105 -340h381zM657 1913q30 -46 72.5 -102t86.5 -108.5t76 -90.5v-27h-202q-39 27 -91 67.5
t-106.5 85t-101.5 85.5t-76 69v21h342z" />
    <glyph glyph-name="Aacute" unicode="&#xc1;" horiz-adv-x="1413" 
d="M1079 0l-106 348h-533l-106 -348h-334l516 1468h379l518 -1468h-334zM899 608l-106 340q-10 34 -26.5 87.5t-33 109t-26.5 96.5q-10 -41 -27.5 -101.5t-33.5 -114.5t-23 -77l-105 -340h381zM1099 1913v-21q-29 -28 -76 -69t-101 -85.5t-106 -85t-91 -67.5h-203v27
q33 38 76.5 90.5t86.5 108.5t72 102h342z" />
    <glyph glyph-name="Acircumflex" unicode="&#xc2;" horiz-adv-x="1413" 
d="M1079 0l-106 348h-533l-106 -348h-334l516 1468h379l518 -1468h-334zM899 608l-106 340q-10 34 -26.5 87.5t-33 109t-26.5 96.5q-10 -41 -27.5 -101.5t-33.5 -114.5t-23 -77l-105 -340h381zM887 1913q29 -46 75.5 -102t95.5 -109t85 -90v-27h-202q-54 32 -117.5 76.5
t-116.5 99.5q-54 -55 -115 -98.5t-114 -77.5h-203v27q38 38 87 90.5t95 108.5t74 102h356z" />
    <glyph glyph-name="Atilde" unicode="&#xc3;" horiz-adv-x="1413" 
d="M1079 0l-106 348h-533l-106 -348h-334l516 1468h379l518 -1468h-334zM899 608l-106 340q-10 34 -26.5 87.5t-33 109t-26.5 96.5q-10 -41 -27.5 -101.5t-33.5 -114.5t-23 -77l-105 -340h381zM291 1583q6 80 29 138.5t60 96t83.5 56t99.5 18.5q41 0 80.5 -15.5t78 -36.5
t76 -36.5t73.5 -15.5q30 0 58.5 26.5t41.5 79.5h149q-12 -158 -90 -233.5t-182 -75.5q-41 0 -80.5 16t-78 36.5t-75.5 36.5t-73 16q-31 0 -59.5 -26.5t-41.5 -80.5h-149z" />
    <glyph glyph-name="Adieresis" unicode="&#xc4;" horiz-adv-x="1413" 
d="M1079 0l-106 348h-533l-106 -348h-334l516 1468h379l518 -1468h-334zM899 608l-106 340q-10 34 -26.5 87.5t-33 109t-26.5 96.5q-10 -41 -27.5 -101.5t-33.5 -114.5t-23 -77l-105 -340h381zM363 1749q0 71 40.5 103t98.5 32q57 0 99 -32t42 -103q0 -67 -42 -100t-99 -33
q-58 0 -98.5 33t-40.5 100zM766 1749q0 71 40.5 103t100.5 32q57 0 99.5 -32t42.5 -103q0 -67 -42.5 -100t-99.5 -33q-60 0 -100.5 33t-40.5 100z" />
    <glyph glyph-name="Aring" unicode="&#xc5;" horiz-adv-x="1413" 
d="M1079 0l-106 348h-533l-106 -348h-334l516 1468h379l518 -1468h-334zM899 608l-106 340q-10 34 -26.5 87.5t-33 109t-26.5 96.5q-10 -41 -27.5 -101.5t-33.5 -114.5t-23 -77l-105 -340h381zM705 1327q-111 0 -179.5 63.5t-68.5 174.5q0 110 68.5 173.5t179.5 63.5
q106 0 180 -63t74 -172q0 -112 -73.5 -176t-180.5 -64zM705 1468q41 0 68.5 26t27.5 71q0 44 -27.5 70t-68.5 26q-42 0 -69.5 -26t-27.5 -70q0 -45 24.5 -71t72.5 -26z" />
    <glyph glyph-name="AE" unicode="&#xc6;" horiz-adv-x="1950" 
d="M1829 0h-873v348h-491l-150 -348h-315l655 1462h1174v-254h-563v-321h526v-254h-526v-377h563v-256zM578 608h378v590h-127z" />
    <glyph glyph-name="Ccedilla" unicode="&#xc7;" horiz-adv-x="1305" 
d="M805 1225q-89 0 -157.5 -34.5t-115 -99.5t-70.5 -157t-24 -207q0 -155 38.5 -264.5t119.5 -167t209 -57.5q89 0 178.5 20t194.5 57v-260q-97 -40 -191 -57.5t-211 -17.5q-226 0 -371.5 93.5t-215.5 262t-70 393.5q0 166 45 304t132 239t215 156t294 55q109 0 218.5 -27.5
t209.5 -75.5l-100 -252q-82 39 -165 68t-163 29zM996 -250q0 -115 -67 -178.5t-242 -63.5q-45 0 -81 6t-65 15v168q29 -7 71 -14t72 -7q29 0 50.5 13.5t21.5 48.5q0 37 -37 66t-129 42l78 154h193l-27 -61q41 -13 78 -38.5t60.5 -63t23.5 -87.5z" />
    <glyph glyph-name="Egrave" unicode="&#xc8;" horiz-adv-x="1147" 
d="M1026 0h-842v1462h842v-254h-532v-321h495v-254h-495v-377h532v-256zM567 1913q30 -46 72.5 -102t86.5 -108.5t76 -90.5v-27h-202q-39 27 -91 67.5t-106.5 85t-101.5 85.5t-76 69v21h342z" />
    <glyph glyph-name="Eacute" unicode="&#xc9;" horiz-adv-x="1147" 
d="M1026 0h-842v1462h842v-254h-532v-321h495v-254h-495v-377h532v-256zM1009 1913v-21q-29 -28 -76 -69t-101 -85.5t-106 -85t-91 -67.5h-203v27q33 38 76.5 90.5t86.5 108.5t72 102h342z" />
    <glyph glyph-name="Ecircumflex" unicode="&#xca;" horiz-adv-x="1147" 
d="M1026 0h-842v1462h842v-254h-532v-321h495v-254h-495v-377h532v-256zM796 1913q29 -46 75.5 -102t95.5 -109t85 -90v-27h-202q-54 32 -117.5 76.5t-116.5 99.5q-54 -55 -115 -98.5t-114 -77.5h-203v27q38 38 87 90.5t95 108.5t74 102h356z" />
    <glyph glyph-name="Edieresis" unicode="&#xcb;" horiz-adv-x="1147" 
d="M1026 0h-842v1462h842v-254h-532v-321h495v-254h-495v-377h532v-256zM273 1749q0 71 40.5 103t98.5 32q57 0 99 -32t42 -103q0 -67 -42 -100t-99 -33q-58 0 -98.5 33t-40.5 100zM676 1749q0 71 40.5 103t100.5 32q57 0 99.5 -32t42.5 -103q0 -67 -42.5 -100t-99.5 -33
q-60 0 -100.5 33t-40.5 100z" />
    <glyph glyph-name="Igrave" unicode="&#xcc;" horiz-adv-x="678" 
d="M184 0v1462h310v-1462h-310zM250 1913q30 -46 72.5 -102t86.5 -108.5t76 -90.5v-27h-202q-39 27 -91 67.5t-106.5 85t-101.5 85.5t-76 69v21h342z" />
    <glyph glyph-name="Iacute" unicode="&#xcd;" horiz-adv-x="678" 
d="M184 0v1462h310v-1462h-310zM771 1913v-21q-29 -28 -76 -69t-101 -85.5t-106 -85t-91 -67.5h-203v27q33 38 76.5 90.5t86.5 108.5t72 102h342z" />
    <glyph glyph-name="Icircumflex" unicode="&#xce;" horiz-adv-x="678" 
d="M184 0v1462h310v-1462h-310zM518 1913q29 -46 75.5 -102t95.5 -109t85 -90v-27h-202q-54 32 -117.5 76.5t-116.5 99.5q-54 -55 -115 -98.5t-114 -77.5h-203v27q38 38 87 90.5t95 108.5t74 102h356z" />
    <glyph glyph-name="Idieresis" unicode="&#xcf;" horiz-adv-x="678" 
d="M184 0v1462h310v-1462h-310zM-4 1749q0 71 40.5 103t98.5 32q57 0 99 -32t42 -103q0 -67 -42 -100t-99 -33q-58 0 -98.5 33t-40.5 100zM399 1749q0 71 40.5 103t100.5 32q57 0 99.5 -32t42.5 -103q0 -67 -42.5 -100t-99.5 -33q-60 0 -100.5 33t-40.5 100z" />
    <glyph glyph-name="Eth" unicode="&#xd0;" horiz-adv-x="1516" 
d="M643 1462q230 0 399 -81.5t262 -241t93 -394.5q0 -247 -94.5 -412.5t-273.5 -249t-431 -83.5h-414v596h-137v254h137v612h459zM657 1208h-163v-358h237v-254h-237v-340h131q224 0 337 121t113 360q0 162 -49 266.5t-142 154.5t-227 50z" />
    <glyph glyph-name="Ntilde" unicode="&#xd1;" horiz-adv-x="1665" 
d="M1481 0h-394l-636 1106h-9q4 -69 7 -139t6 -139.5t6 -139.5v-688h-277v1462h391l635 -1095h7q-2 68 -5 135t-5.5 134t-4.5 134v692h279v-1462zM418 1583q6 80 29 138.5t60 96t83.5 56t99.5 18.5q41 0 80.5 -15.5t78 -36.5t76 -36.5t73.5 -15.5q30 0 58.5 26.5t41.5 79.5
h149q-12 -158 -90 -233.5t-182 -75.5q-41 0 -80.5 16t-78 36.5t-75.5 36.5t-73 16q-31 0 -59.5 -26.5t-41.5 -80.5h-149z" />
    <glyph glyph-name="Ograve" unicode="&#xd2;" horiz-adv-x="1630" 
d="M1511 733q0 -169 -42 -307.5t-127.5 -238.5t-216.5 -153.5t-310 -53.5t-310 53.5t-216.5 153.5t-127.5 239t-42 309q0 227 74.5 395.5t229.5 261.5t394 93q238 0 391.5 -93t228 -262t74.5 -397zM444 733q0 -153 38.5 -263.5t120.5 -170t212 -59.5q132 0 214 59.5
t119.5 170t37.5 263.5q0 230 -86 362t-283 132q-131 0 -213.5 -59.5t-121 -170t-38.5 -264.5zM766 1913q30 -46 72.5 -102t86.5 -108.5t76 -90.5v-27h-202q-39 27 -91 67.5t-106.5 85t-101.5 85.5t-76 69v21h342z" />
    <glyph glyph-name="Oacute" unicode="&#xd3;" horiz-adv-x="1630" 
d="M1511 733q0 -169 -42 -307.5t-127.5 -238.5t-216.5 -153.5t-310 -53.5t-310 53.5t-216.5 153.5t-127.5 239t-42 309q0 227 74.5 395.5t229.5 261.5t394 93q238 0 391.5 -93t228 -262t74.5 -397zM444 733q0 -153 38.5 -263.5t120.5 -170t212 -59.5q132 0 214 59.5
t119.5 170t37.5 263.5q0 230 -86 362t-283 132q-131 0 -213.5 -59.5t-121 -170t-38.5 -264.5zM1208 1913v-21q-29 -28 -76 -69t-101 -85.5t-106 -85t-91 -67.5h-203v27q33 38 76.5 90.5t86.5 108.5t72 102h342z" />
    <glyph glyph-name="Ocircumflex" unicode="&#xd4;" horiz-adv-x="1630" 
d="M1511 733q0 -169 -42 -307.5t-127.5 -238.5t-216.5 -153.5t-310 -53.5t-310 53.5t-216.5 153.5t-127.5 239t-42 309q0 227 74.5 395.5t229.5 261.5t394 93q238 0 391.5 -93t228 -262t74.5 -397zM444 733q0 -153 38.5 -263.5t120.5 -170t212 -59.5q132 0 214 59.5
t119.5 170t37.5 263.5q0 230 -86 362t-283 132q-131 0 -213.5 -59.5t-121 -170t-38.5 -264.5zM995 1913q29 -46 75.5 -102t95.5 -109t85 -90v-27h-202q-54 32 -117.5 76.5t-116.5 99.5q-54 -55 -115 -98.5t-114 -77.5h-203v27q38 38 87 90.5t95 108.5t74 102h356z" />
    <glyph glyph-name="Otilde" unicode="&#xd5;" horiz-adv-x="1630" 
d="M1511 733q0 -169 -42 -307.5t-127.5 -238.5t-216.5 -153.5t-310 -53.5t-310 53.5t-216.5 153.5t-127.5 239t-42 309q0 227 74.5 395.5t229.5 261.5t394 93q238 0 391.5 -93t228 -262t74.5 -397zM444 733q0 -153 38.5 -263.5t120.5 -170t212 -59.5q132 0 214 59.5
t119.5 170t37.5 263.5q0 230 -86 362t-283 132q-131 0 -213.5 -59.5t-121 -170t-38.5 -264.5zM399 1583q6 80 29 138.5t60 96t83.5 56t99.5 18.5q41 0 80.5 -15.5t78 -36.5t76 -36.5t73.5 -15.5q30 0 58.5 26.5t41.5 79.5h149q-12 -158 -90 -233.5t-182 -75.5
q-41 0 -80.5 16t-78 36.5t-75.5 36.5t-73 16q-31 0 -59.5 -26.5t-41.5 -80.5h-149z" />
    <glyph glyph-name="Odieresis" unicode="&#xd6;" horiz-adv-x="1630" 
d="M1511 733q0 -169 -42 -307.5t-127.5 -238.5t-216.5 -153.5t-310 -53.5t-310 53.5t-216.5 153.5t-127.5 239t-42 309q0 227 74.5 395.5t229.5 261.5t394 93q238 0 391.5 -93t228 -262t74.5 -397zM444 733q0 -153 38.5 -263.5t120.5 -170t212 -59.5q132 0 214 59.5
t119.5 170t37.5 263.5q0 230 -86 362t-283 132q-131 0 -213.5 -59.5t-121 -170t-38.5 -264.5zM472 1749q0 71 40.5 103t98.5 32q57 0 99 -32t42 -103q0 -67 -42 -100t-99 -33q-58 0 -98.5 33t-40.5 100zM875 1749q0 71 40.5 103t100.5 32q57 0 99.5 -32t42.5 -103
q0 -67 -42.5 -100t-99.5 -33q-60 0 -100.5 33t-40.5 100z" />
    <glyph glyph-name="multiply" unicode="&#xd7;" horiz-adv-x="1171" 
d="M887 1178l153 -150l-305 -305l301 -303l-149 -152l-305 301l-301 -299l-150 152l297 301l-299 301l152 154l301 -299z" />
    <glyph glyph-name="Oslash" unicode="&#xd8;" horiz-adv-x="1630" 
d="M1511 733q0 -169 -42 -307.5t-127.5 -238.5t-216.5 -153.5t-310 -53.5q-98 0 -182.5 16.5t-153.5 48.5l-90 -135l-162 108l90 136q-101 100 -149.5 247.5t-48.5 333.5q0 227 74.5 395.5t229.5 261.5t394 93q101 0 187.5 -18t156.5 -52l84 125l160 -104l-88 -131
q98 -98 146 -244t48 -328zM1186 733q0 89 -12.5 164t-38.5 133l-500 -751q37 -19 81.5 -29t98.5 -10q132 0 214 59.5t119.5 170t37.5 263.5zM444 733q0 -92 13.5 -169.5t42.5 -137.5l506 756q-39 21 -86 33t-103 12q-131 0 -213.5 -59.5t-121 -170t-38.5 -264.5z" />
    <glyph glyph-name="Ugrave" unicode="&#xd9;" horiz-adv-x="1548" 
d="M1374 1462v-946q0 -151 -66.5 -272.5t-201 -192.5t-338.5 -71q-290 0 -442 148t-152 392v942h309v-895q0 -181 74 -254t219 -73q102 0 165.5 35t93.5 108t30 186v893h309zM725 1913q30 -46 72.5 -102t86.5 -108.5t76 -90.5v-27h-202q-39 27 -91 67.5t-106.5 85
t-101.5 85.5t-76 69v21h342z" />
    <glyph glyph-name="Uacute" unicode="&#xda;" horiz-adv-x="1548" 
d="M1374 1462v-946q0 -151 -66.5 -272.5t-201 -192.5t-338.5 -71q-290 0 -442 148t-152 392v942h309v-895q0 -181 74 -254t219 -73q102 0 165.5 35t93.5 108t30 186v893h309zM1167 1913v-21q-29 -28 -76 -69t-101 -85.5t-106 -85t-91 -67.5h-203v27q33 38 76.5 90.5
t86.5 108.5t72 102h342z" />
    <glyph glyph-name="Ucircumflex" unicode="&#xdb;" horiz-adv-x="1548" 
d="M1374 1462v-946q0 -151 -66.5 -272.5t-201 -192.5t-338.5 -71q-290 0 -442 148t-152 392v942h309v-895q0 -181 74 -254t219 -73q102 0 165.5 35t93.5 108t30 186v893h309zM954 1913q29 -46 75.5 -102t95.5 -109t85 -90v-27h-202q-54 32 -117.5 76.5t-116.5 99.5
q-54 -55 -115 -98.5t-114 -77.5h-203v27q38 38 87 90.5t95 108.5t74 102h356z" />
    <glyph glyph-name="Udieresis" unicode="&#xdc;" horiz-adv-x="1548" 
d="M1374 1462v-946q0 -151 -66.5 -272.5t-201 -192.5t-338.5 -71q-290 0 -442 148t-152 392v942h309v-895q0 -181 74 -254t219 -73q102 0 165.5 35t93.5 108t30 186v893h309zM431 1749q0 71 40.5 103t98.5 32q57 0 99 -32t42 -103q0 -67 -42 -100t-99 -33q-58 0 -98.5 33
t-40.5 100zM834 1749q0 71 40.5 103t100.5 32q57 0 99.5 -32t42.5 -103q0 -67 -42.5 -100t-99.5 -33q-60 0 -100.5 33t-40.5 100z" />
    <glyph glyph-name="Yacute" unicode="&#xdd;" horiz-adv-x="1278" 
d="M639 860l305 602h334l-485 -893v-569h-308v559l-485 903h336zM1032 1913v-21q-29 -28 -76 -69t-101 -85.5t-106 -85t-91 -67.5h-203v27q33 38 76.5 90.5t86.5 108.5t72 102h342z" />
    <glyph glyph-name="Thorn" unicode="&#xde;" horiz-adv-x="1286" 
d="M1194 770q0 -94 -28 -179.5t-91.5 -152.5t-168.5 -106t-259 -39h-153v-293h-310v1462h310v-229h178q270 0 396 -126t126 -337zM494 543h100q96 0 159.5 23t95.5 73t32 131q0 107 -63.5 159t-199.5 52h-124v-438z" />
    <glyph glyph-name="germandbls" unicode="&#xdf;" horiz-adv-x="1456" 
d="M1249 1241q0 -76 -29 -131.5t-71.5 -96t-85 -71t-71.5 -56.5t-29 -52t20 -47.5t66 -50.5t122 -79q67 -42 114.5 -87.5t73 -104t25.5 -139.5q0 -114 -52.5 -191t-154.5 -116t-253 -39q-98 0 -171 14.5t-132 48.5v242q32 -21 80.5 -41t102 -32.5t99.5 -12.5q80 0 124 31
t44 92q0 36 -14 62t-54 56t-120 76q-84 48 -133 89.5t-70 85t-21 97.5q0 64 28 108.5t70 78t83.5 64t69.5 65.5t28 84q0 63 -65 102t-162 39q-72 0 -127.5 -21.5t-87 -66t-31.5 -113.5v-1128h-305v1139q0 146 72.5 240.5t197 141t281.5 46.5q154 0 275.5 -38t192 -110.5
t70.5 -177.5z" />
    <glyph glyph-name="agrave" unicode="&#xe0;" horiz-adv-x="1237" 
d="M618 1141q225 0 345 -98t120 -298v-745h-213l-59 152h-8q-48 -60 -98 -98t-115 -56t-158 -18q-99 0 -177.5 38t-123.5 116.5t-45 199.5q0 178 125 262.5t375 93.5l194 6v49q0 88 -46 129t-128 41q-81 0 -159 -23t-156 -58l-101 206q89 47 199.5 74t228.5 27zM780 518
l-118 -4q-148 -4 -205.5 -53t-57.5 -129q0 -70 41 -99.5t107 -29.5q98 0 165.5 58t67.5 165v92zM569 1569q30 -46 72.5 -102t86.5 -108.5t76 -90.5v-27h-202q-39 27 -91 67.5t-106.5 85t-101.5 85.5t-76 69v21h342z" />
    <glyph glyph-name="aacute" unicode="&#xe1;" horiz-adv-x="1237" 
d="M618 1141q225 0 345 -98t120 -298v-745h-213l-59 152h-8q-48 -60 -98 -98t-115 -56t-158 -18q-99 0 -177.5 38t-123.5 116.5t-45 199.5q0 178 125 262.5t375 93.5l194 6v49q0 88 -46 129t-128 41q-81 0 -159 -23t-156 -58l-101 206q89 47 199.5 74t228.5 27zM780 518
l-118 -4q-148 -4 -205.5 -53t-57.5 -129q0 -70 41 -99.5t107 -29.5q98 0 165.5 58t67.5 165v92zM1011 1569v-21q-29 -28 -76 -69t-101 -85.5t-106 -85t-91 -67.5h-203v27q33 38 76.5 90.5t86.5 108.5t72 102h342z" />
    <glyph glyph-name="acircumflex" unicode="&#xe2;" horiz-adv-x="1237" 
d="M618 1141q225 0 345 -98t120 -298v-745h-213l-59 152h-8q-48 -60 -98 -98t-115 -56t-158 -18q-99 0 -177.5 38t-123.5 116.5t-45 199.5q0 178 125 262.5t375 93.5l194 6v49q0 88 -46 129t-128 41q-81 0 -159 -23t-156 -58l-101 206q89 47 199.5 74t228.5 27zM780 518
l-118 -4q-148 -4 -205.5 -53t-57.5 -129q0 -70 41 -99.5t107 -29.5q98 0 165.5 58t67.5 165v92zM798 1569q29 -46 75.5 -102t95.5 -109t85 -90v-27h-202q-54 32 -117.5 76.5t-116.5 99.5q-54 -55 -115 -98.5t-114 -77.5h-203v27q38 38 87 90.5t95 108.5t74 102h356z" />
    <glyph glyph-name="atilde" unicode="&#xe3;" horiz-adv-x="1237" 
d="M618 1141q225 0 345 -98t120 -298v-745h-213l-59 152h-8q-48 -60 -98 -98t-115 -56t-158 -18q-99 0 -177.5 38t-123.5 116.5t-45 199.5q0 178 125 262.5t375 93.5l194 6v49q0 88 -46 129t-128 41q-81 0 -159 -23t-156 -58l-101 206q89 47 199.5 74t228.5 27zM780 518
l-118 -4q-148 -4 -205.5 -53t-57.5 -129q0 -70 41 -99.5t107 -29.5q98 0 165.5 58t67.5 165v92zM203 1239q6 80 29 138.5t60 96t83.5 56t99.5 18.5q41 0 80.5 -15.5t78 -36.5t76 -36.5t73.5 -15.5q30 0 58.5 26.5t41.5 79.5h149q-12 -158 -90 -233.5t-182 -75.5
q-41 0 -80.5 16t-78 36.5t-75.5 36.5t-73 16q-31 0 -59.5 -26.5t-41.5 -80.5h-149z" />
    <glyph glyph-name="adieresis" unicode="&#xe4;" horiz-adv-x="1237" 
d="M618 1141q225 0 345 -98t120 -298v-745h-213l-59 152h-8q-48 -60 -98 -98t-115 -56t-158 -18q-99 0 -177.5 38t-123.5 116.5t-45 199.5q0 178 125 262.5t375 93.5l194 6v49q0 88 -46 129t-128 41q-81 0 -159 -23t-156 -58l-101 206q89 47 199.5 74t228.5 27zM780 518
l-118 -4q-148 -4 -205.5 -53t-57.5 -129q0 -70 41 -99.5t107 -29.5q98 0 165.5 58t67.5 165v92zM275 1405q0 71 40.5 103t98.5 32q57 0 99 -32t42 -103q0 -67 -42 -100t-99 -33q-58 0 -98.5 33t-40.5 100zM678 1405q0 71 40.5 103t100.5 32q57 0 99.5 -32t42.5 -103
q0 -67 -42.5 -100t-99.5 -33q-60 0 -100.5 33t-40.5 100z" />
    <glyph glyph-name="aring" unicode="&#xe5;" horiz-adv-x="1237" 
d="M618 1141q225 0 345 -98t120 -298v-745h-213l-59 152h-8q-48 -60 -98 -98t-115 -56t-158 -18q-99 0 -177.5 38t-123.5 116.5t-45 199.5q0 178 125 262.5t375 93.5l194 6v49q0 88 -46 129t-128 41q-81 0 -159 -23t-156 -58l-101 206q89 47 199.5 74t228.5 27zM780 518
l-118 -4q-148 -4 -205.5 -53t-57.5 -129q0 -70 41 -99.5t107 -29.5q98 0 165.5 58t67.5 165v92zM621 1239q-111 0 -179.5 63.5t-68.5 174.5q0 110 68.5 173.5t179.5 63.5q106 0 180 -63t74 -172q0 -112 -73.5 -176t-180.5 -64zM621 1380q41 0 68.5 26t27.5 71q0 44 -27.5 70
t-68.5 26q-42 0 -69.5 -26t-27.5 -70q0 -45 24.5 -71t72.5 -26z" />
    <glyph glyph-name="ae" unicode="&#xe6;" horiz-adv-x="1878" 
d="M1313 1139q141 0 248.5 -59.5t168 -172.5t60.5 -276v-148h-723q5 -129 77.5 -202.5t201.5 -73.5q101 0 194 22t186 66v-236q-84 -41 -174.5 -60t-222.5 -19q-91 0 -172 22.5t-147.5 68t-114.5 115.5q-60 -71 -120 -117t-138.5 -67.5t-194.5 -21.5q-96 0 -177 38
t-130 116.5t-49 199.5q0 119 54 195.5t161.5 115.5t267.5 45l191 6v84q0 69 -44.5 102t-121.5 33q-80 0 -155 -21t-150 -56l-99 202q88 47 197 74t225 27q113 0 198.5 -32.5t143.5 -98.5q66 65 152.5 97t206.5 32zM760 518l-113 -4q-139 -4 -193.5 -53t-54.5 -129
q0 -70 38.5 -99.5t101.5 -29.5t113 26t79 76t29 121v92zM1307 922q-102 0 -163.5 -57t-70.5 -179h430q-1 68 -23.5 121t-65.5 84t-107 31z" />
    <glyph glyph-name="ccedilla" unicode="&#xe7;" horiz-adv-x="1053" 
d="M614 -20q-166 0 -283 60.5t-178 187.5t-61 325q0 205 69.5 334.5t193 190.5t286.5 61q116 0 200.5 -22.5t147.5 -53.5l-90 -236q-72 29 -134 47.5t-124 18.5q-80 0 -133 -37.5t-79 -112.5t-26 -188q0 -111 28 -184t81 -108.5t129 -35.5q95 0 169 25.5t144 71.5v-261
q-70 -44 -146.5 -63.5t-193.5 -19.5zM834 -250q0 -115 -67 -178.5t-242 -63.5q-45 0 -81 6t-65 15v168q29 -7 71 -14t72 -7q29 0 50.5 13.5t21.5 48.5q0 37 -37 66t-129 42l78 154h193l-27 -61q41 -13 78 -38.5t60.5 -63t23.5 -87.5z" />
    <glyph glyph-name="egrave" unicode="&#xe8;" horiz-adv-x="1210" 
d="M621 1139q155 0 267 -59.5t173 -172.5t61 -276v-148h-721q5 -129 77.5 -202.5t201.5 -73.5q107 0 196 22t183 66v-236q-83 -41 -173.5 -60t-219.5 -19q-168 0 -297.5 62t-203 189t-73.5 320q0 196 66.5 326.5t185.5 196t277 65.5zM623 922q-89 0 -147.5 -57t-67.5 -179
h428q-1 68 -24.5 121t-70 84t-118.5 31zM557 1569q30 -46 72.5 -102t86.5 -108.5t76 -90.5v-27h-202q-39 27 -91 67.5t-106.5 85t-101.5 85.5t-76 69v21h342z" />
    <glyph glyph-name="eacute" unicode="&#xe9;" horiz-adv-x="1210" 
d="M621 1139q155 0 267 -59.5t173 -172.5t61 -276v-148h-721q5 -129 77.5 -202.5t201.5 -73.5q107 0 196 22t183 66v-236q-83 -41 -173.5 -60t-219.5 -19q-168 0 -297.5 62t-203 189t-73.5 320q0 196 66.5 326.5t185.5 196t277 65.5zM623 922q-89 0 -147.5 -57t-67.5 -179
h428q-1 68 -24.5 121t-70 84t-118.5 31zM999 1569v-21q-29 -28 -76 -69t-101 -85.5t-106 -85t-91 -67.5h-203v27q33 38 76.5 90.5t86.5 108.5t72 102h342z" />
    <glyph glyph-name="ecircumflex" unicode="&#xea;" horiz-adv-x="1210" 
d="M621 1139q155 0 267 -59.5t173 -172.5t61 -276v-148h-721q5 -129 77.5 -202.5t201.5 -73.5q107 0 196 22t183 66v-236q-83 -41 -173.5 -60t-219.5 -19q-168 0 -297.5 62t-203 189t-73.5 320q0 196 66.5 326.5t185.5 196t277 65.5zM623 922q-89 0 -147.5 -57t-67.5 -179
h428q-1 68 -24.5 121t-70 84t-118.5 31zM786 1569q29 -46 75.5 -102t95.5 -109t85 -90v-27h-202q-54 32 -117.5 76.5t-116.5 99.5q-54 -55 -115 -98.5t-114 -77.5h-203v27q38 38 87 90.5t95 108.5t74 102h356z" />
    <glyph glyph-name="edieresis" unicode="&#xeb;" horiz-adv-x="1210" 
d="M621 1139q155 0 267 -59.5t173 -172.5t61 -276v-148h-721q5 -129 77.5 -202.5t201.5 -73.5q107 0 196 22t183 66v-236q-83 -41 -173.5 -60t-219.5 -19q-168 0 -297.5 62t-203 189t-73.5 320q0 196 66.5 326.5t185.5 196t277 65.5zM623 922q-89 0 -147.5 -57t-67.5 -179
h428q-1 68 -24.5 121t-70 84t-118.5 31zM263 1405q0 71 40.5 103t98.5 32q57 0 99 -32t42 -103q0 -67 -42 -100t-99 -33q-58 0 -98.5 33t-40.5 100zM666 1405q0 71 40.5 103t100.5 32q57 0 99.5 -32t42.5 -103q0 -67 -42.5 -100t-99.5 -33q-60 0 -100.5 33t-40.5 100z" />
    <glyph glyph-name="igrave" unicode="&#xec;" horiz-adv-x="625" 
d="M465 0h-305v1118h305v-1118zM264 1569q30 -46 72.5 -102t86.5 -108.5t76 -90.5v-27h-202q-39 27 -91 67.5t-106.5 85t-101.5 85.5t-76 69v21h342z" />
    <glyph glyph-name="iacute" unicode="&#xed;" horiz-adv-x="625" 
d="M465 0h-305v1118h305v-1118zM706 1569v-21q-29 -28 -76 -69t-101 -85.5t-106 -85t-91 -67.5h-203v27q33 38 76.5 90.5t86.5 108.5t72 102h342z" />
    <glyph glyph-name="icircumflex" unicode="&#xee;" horiz-adv-x="625" 
d="M465 0h-305v1118h305v-1118zM493 1569q29 -46 75.5 -102t95.5 -109t85 -90v-27h-202q-54 32 -117.5 76.5t-116.5 99.5q-54 -55 -115 -98.5t-114 -77.5h-203v27q38 38 87 90.5t95 108.5t74 102h356z" />
    <glyph glyph-name="idieresis" unicode="&#xef;" horiz-adv-x="625" 
d="M465 0h-305v1118h305v-1118zM-30 1405q0 71 40.5 103t98.5 32q57 0 99 -32t42 -103q0 -67 -42 -100t-99 -33q-58 0 -98.5 33t-40.5 100zM373 1405q0 71 40.5 103t100.5 32q57 0 99.5 -32t42.5 -103q0 -67 -42.5 -100t-99.5 -33q-60 0 -100.5 33t-40.5 100z" />
    <glyph glyph-name="eth" unicode="&#xf0;" horiz-adv-x="1268" 
d="M459 1567q71 -32 136 -67.5t122 -74.5l225 140l100 -154l-170 -104q100 -91 167.5 -199.5t102 -240.5t34.5 -294q0 -189 -66.5 -321.5t-189 -202t-289.5 -69.5q-157 0 -278.5 59.5t-191 173.5t-69.5 276t61.5 275t170 172t249.5 59q69 0 122 -11t91.5 -32.5t61.5 -54.5
l8 4q-34 82 -80.5 149t-111.5 128l-230 -142l-100 156l176 106q-35 23 -72.5 46.5t-79.5 46.5zM635 770q-83 0 -134 -31.5t-74.5 -94t-23.5 -157.5q0 -84 24 -147.5t75 -99t133 -35.5q123 0 176 82t53 245q0 47 -13.5 89.5t-41.5 76t-71.5 53t-102.5 19.5z" />
    <glyph glyph-name="ntilde" unicode="&#xf1;" horiz-adv-x="1346" 
d="M795 1139q179 0 288 -97.5t109 -312.5v-729h-305v653q0 120 -43.5 181t-136.5 61q-140 0 -191 -95t-51 -274v-526h-305v1118h233l41 -143h17q36 58 89.5 94t119 53t135.5 17zM258 1239q6 80 29 138.5t60 96t83.5 56t99.5 18.5q41 0 80.5 -15.5t78 -36.5t76 -36.5
t73.5 -15.5q30 0 58.5 26.5t41.5 79.5h149q-12 -158 -90 -233.5t-182 -75.5q-41 0 -80.5 16t-78 36.5t-75.5 36.5t-73 16q-31 0 -59.5 -26.5t-41.5 -80.5h-149z" />
    <glyph glyph-name="ograve" unicode="&#xf2;" horiz-adv-x="1268" 
d="M1176 561q0 -140 -37.5 -248t-109 -182.5t-172 -112.5t-226.5 -38q-118 0 -216.5 38t-171 112.5t-112 182.5t-39.5 248q0 186 66 315t188 196t291 67q157 0 278.5 -67t191 -196t69.5 -315zM403 561q0 -110 24 -185t75 -113t133 -38q81 0 131.5 38t74 113t23.5 185
q0 111 -23.5 184.5t-74.5 110.5t-133 37q-121 0 -175.5 -83t-54.5 -249zM586 1569q30 -46 72.5 -102t86.5 -108.5t76 -90.5v-27h-202q-39 27 -91 67.5t-106.5 85t-101.5 85.5t-76 69v21h342z" />
    <glyph glyph-name="oacute" unicode="&#xf3;" horiz-adv-x="1268" 
d="M1176 561q0 -140 -37.5 -248t-109 -182.5t-172 -112.5t-226.5 -38q-118 0 -216.5 38t-171 112.5t-112 182.5t-39.5 248q0 186 66 315t188 196t291 67q157 0 278.5 -67t191 -196t69.5 -315zM403 561q0 -110 24 -185t75 -113t133 -38q81 0 131.5 38t74 113t23.5 185
q0 111 -23.5 184.5t-74.5 110.5t-133 37q-121 0 -175.5 -83t-54.5 -249zM1028 1569v-21q-29 -28 -76 -69t-101 -85.5t-106 -85t-91 -67.5h-203v27q33 38 76.5 90.5t86.5 108.5t72 102h342z" />
    <glyph glyph-name="ocircumflex" unicode="&#xf4;" horiz-adv-x="1268" 
d="M1176 561q0 -140 -37.5 -248t-109 -182.5t-172 -112.5t-226.5 -38q-118 0 -216.5 38t-171 112.5t-112 182.5t-39.5 248q0 186 66 315t188 196t291 67q157 0 278.5 -67t191 -196t69.5 -315zM403 561q0 -110 24 -185t75 -113t133 -38q81 0 131.5 38t74 113t23.5 185
q0 111 -23.5 184.5t-74.5 110.5t-133 37q-121 0 -175.5 -83t-54.5 -249zM815 1569q29 -46 75.5 -102t95.5 -109t85 -90v-27h-202q-54 32 -117.5 76.5t-116.5 99.5q-54 -55 -115 -98.5t-114 -77.5h-203v27q38 38 87 90.5t95 108.5t74 102h356z" />
    <glyph glyph-name="otilde" unicode="&#xf5;" horiz-adv-x="1268" 
d="M1176 561q0 -140 -37.5 -248t-109 -182.5t-172 -112.5t-226.5 -38q-118 0 -216.5 38t-171 112.5t-112 182.5t-39.5 248q0 186 66 315t188 196t291 67q157 0 278.5 -67t191 -196t69.5 -315zM403 561q0 -110 24 -185t75 -113t133 -38q81 0 131.5 38t74 113t23.5 185
q0 111 -23.5 184.5t-74.5 110.5t-133 37q-121 0 -175.5 -83t-54.5 -249zM219 1239q6 80 29 138.5t60 96t83.5 56t99.5 18.5q41 0 80.5 -15.5t78 -36.5t76 -36.5t73.5 -15.5q30 0 58.5 26.5t41.5 79.5h149q-12 -158 -90 -233.5t-182 -75.5q-41 0 -80.5 16t-78 36.5
t-75.5 36.5t-73 16q-31 0 -59.5 -26.5t-41.5 -80.5h-149z" />
    <glyph glyph-name="odieresis" unicode="&#xf6;" horiz-adv-x="1268" 
d="M1176 561q0 -140 -37.5 -248t-109 -182.5t-172 -112.5t-226.5 -38q-118 0 -216.5 38t-171 112.5t-112 182.5t-39.5 248q0 186 66 315t188 196t291 67q157 0 278.5 -67t191 -196t69.5 -315zM403 561q0 -110 24 -185t75 -113t133 -38q81 0 131.5 38t74 113t23.5 185
q0 111 -23.5 184.5t-74.5 110.5t-133 37q-121 0 -175.5 -83t-54.5 -249zM291 1405q0 71 40.5 103t98.5 32q57 0 99 -32t42 -103q0 -67 -42 -100t-99 -33q-58 0 -98.5 33t-40.5 100zM694 1405q0 71 40.5 103t100.5 32q57 0 99.5 -32t42.5 -103q0 -67 -42.5 -100t-99.5 -33
q-60 0 -100.5 33t-40.5 100z" />
    <glyph glyph-name="divide" unicode="&#xf7;" horiz-adv-x="1171" 
d="M88 612v219h993v-219h-993zM584 221q-57 0 -98.5 36t-41.5 116q0 84 41.5 117.5t98.5 33.5q55 0 97 -33.5t42 -117.5q0 -80 -42 -116t-97 -36zM584 920q-57 0 -98.5 36t-41.5 115q0 85 41.5 118.5t98.5 33.5q55 0 97 -33.5t42 -118.5q0 -79 -42 -115t-97 -36z" />
    <glyph glyph-name="oslash" unicode="&#xf8;" horiz-adv-x="1268" 
d="M1176 561q0 -186 -66 -316t-188.5 -197.5t-290.5 -67.5q-64 0 -122.5 11.5t-111.5 33.5l-67 -101l-154 105l68 100q-73 75 -112.5 183t-39.5 249q0 278 146 428t399 150q68 0 130.5 -13.5t117.5 -38.5l55 82l152 -108l-58 -84q68 -73 105 -177.5t37 -238.5zM403 561
q0 -49 5 -90.5t14 -75.5l317 475q-21 11 -48 17t-58 6q-121 0 -175.5 -83t-54.5 -249zM864 561q0 40 -3 75.5t-9 65.5l-309 -462q20 -8 43 -11.5t49 -3.5q81 0 131.5 38t74 113t23.5 185z" />
    <glyph glyph-name="ugrave" unicode="&#xf9;" horiz-adv-x="1346" 
d="M1186 1118v-1118h-234l-41 143h-16q-36 -57 -90 -93t-119 -53t-135 -17q-120 0 -209 42.5t-138.5 132.5t-49.5 234v729h305v-653q0 -120 43 -181t137 -61q93 0 146 42.5t74.5 125t21.5 201.5v526h305zM625 1569q30 -46 72.5 -102t86.5 -108.5t76 -90.5v-27h-202
q-39 27 -91 67.5t-106.5 85t-101.5 85.5t-76 69v21h342z" />
    <glyph glyph-name="uacute" unicode="&#xfa;" horiz-adv-x="1346" 
d="M1186 1118v-1118h-234l-41 143h-16q-36 -57 -90 -93t-119 -53t-135 -17q-120 0 -209 42.5t-138.5 132.5t-49.5 234v729h305v-653q0 -120 43 -181t137 -61q93 0 146 42.5t74.5 125t21.5 201.5v526h305zM1067 1569v-21q-29 -28 -76 -69t-101 -85.5t-106 -85t-91 -67.5h-203
v27q33 38 76.5 90.5t86.5 108.5t72 102h342z" />
    <glyph glyph-name="ucircumflex" unicode="&#xfb;" horiz-adv-x="1346" 
d="M1186 1118v-1118h-234l-41 143h-16q-36 -57 -90 -93t-119 -53t-135 -17q-120 0 -209 42.5t-138.5 132.5t-49.5 234v729h305v-653q0 -120 43 -181t137 -61q93 0 146 42.5t74.5 125t21.5 201.5v526h305zM854 1569q29 -46 75.5 -102t95.5 -109t85 -90v-27h-202
q-54 32 -117.5 76.5t-116.5 99.5q-54 -55 -115 -98.5t-114 -77.5h-203v27q38 38 87 90.5t95 108.5t74 102h356z" />
    <glyph glyph-name="udieresis" unicode="&#xfc;" horiz-adv-x="1346" 
d="M1186 1118v-1118h-234l-41 143h-16q-36 -57 -90 -93t-119 -53t-135 -17q-120 0 -209 42.5t-138.5 132.5t-49.5 234v729h305v-653q0 -120 43 -181t137 -61q93 0 146 42.5t74.5 125t21.5 201.5v526h305zM330 1405q0 71 40.5 103t98.5 32q57 0 99 -32t42 -103
q0 -67 -42 -100t-99 -33q-58 0 -98.5 33t-40.5 100zM733 1405q0 71 40.5 103t100.5 32q57 0 99.5 -32t42.5 -103q0 -67 -42.5 -100t-99.5 -33q-60 0 -100.5 33t-40.5 100z" />
    <glyph glyph-name="yacute" unicode="&#xfd;" horiz-adv-x="1165" 
d="M0 1118h334l211 -629q10 -30 17 -61t12 -64t8 -69h6q6 54 16.5 101t26.5 93l207 629h327l-473 -1261q-43 -116 -112 -193.5t-158.5 -116.5t-196.5 -39q-52 0 -90 5.5t-65 11.5v242q21 -5 53 -9t67 -4q64 0 110 27t77 72.5t49 99.5l18 55zM976 1569v-21q-29 -28 -76 -69
t-101 -85.5t-106 -85t-91 -67.5h-203v27q33 38 76.5 90.5t86.5 108.5t72 102h342z" />
    <glyph glyph-name="thorn" unicode="&#xfe;" horiz-adv-x="1296" 
d="M1204 561q0 -190 -53 -319.5t-148 -195.5t-221 -66q-80 0 -140.5 18.5t-103.5 49.5t-73 69h-14q4 -20 7 -48.5t5 -57t2 -50.5v-453h-305v2048h305v-391q0 -49 -4.5 -105t-9.5 -87h14q29 46 72.5 83.5t104.5 60t140 22.5q188 0 305 -147t117 -431zM893 565q0 164 -51 247
t-158 83q-120 0 -168 -74t-51 -225v-33q0 -163 48 -249.5t175 -86.5q70 0 115 39t67.5 114.5t22.5 184.5z" />
    <glyph glyph-name="ydieresis" unicode="&#xff;" horiz-adv-x="1165" 
d="M0 1118h334l211 -629q10 -30 17 -61t12 -64t8 -69h6q6 54 16.5 101t26.5 93l207 629h327l-473 -1261q-43 -116 -112 -193.5t-158.5 -116.5t-196.5 -39q-52 0 -90 5.5t-65 11.5v242q21 -5 53 -9t67 -4q64 0 110 27t77 72.5t49 99.5l18 55zM240 1405q0 71 40.5 103t98.5 32
q57 0 99 -32t42 -103q0 -67 -42 -100t-99 -33q-58 0 -98.5 33t-40.5 100zM643 1405q0 71 40.5 103t100.5 32q57 0 99.5 -32t42.5 -103q0 -67 -42.5 -100t-99.5 -33q-60 0 -100.5 33t-40.5 100z" />
    <glyph glyph-name="Amacron" unicode="&#x100;" horiz-adv-x="1413" 
d="M1079 0l-106 348h-533l-106 -348h-334l516 1468h379l518 -1468h-334zM899 608l-106 340q-10 34 -26.5 87.5t-33 109t-26.5 96.5q-10 -41 -27.5 -101.5t-33.5 -114.5t-23 -77l-105 -340h381zM1047 1796v-211h-678v211h678z" />
    <glyph glyph-name="amacron" unicode="&#x101;" horiz-adv-x="1237" 
d="M618 1141q225 0 345 -98t120 -298v-745h-213l-59 152h-8q-48 -60 -98 -98t-115 -56t-158 -18q-99 0 -177.5 38t-123.5 116.5t-45 199.5q0 178 125 262.5t375 93.5l194 6v49q0 88 -46 129t-128 41q-81 0 -159 -23t-156 -58l-101 206q89 47 199.5 74t228.5 27zM780 518
l-118 -4q-148 -4 -205.5 -53t-57.5 -129q0 -70 41 -99.5t107 -29.5q98 0 165.5 58t67.5 165v92zM959 1452v-211h-678v211h678z" />
    <glyph glyph-name="Abreve" unicode="&#x102;" horiz-adv-x="1413" 
d="M1079 0l-106 348h-533l-106 -348h-334l516 1468h379l518 -1468h-334zM899 608l-106 340q-10 34 -26.5 87.5t-33 109t-26.5 96.5q-10 -41 -27.5 -101.5t-33.5 -114.5t-23 -77l-105 -340h381zM1106 1923q-7 -99 -58.5 -175.5t-138 -119.5t-200.5 -43q-176 0 -278.5 92
t-110.5 246h170q5 -57 35.5 -83.5t79 -34t106.5 -7.5q48 0 97 9t83.5 36t40.5 80h174z" />
    <glyph glyph-name="abreve" unicode="&#x103;" horiz-adv-x="1237" 
d="M618 1141q225 0 345 -98t120 -298v-745h-213l-59 152h-8q-48 -60 -98 -98t-115 -56t-158 -18q-99 0 -177.5 38t-123.5 116.5t-45 199.5q0 178 125 262.5t375 93.5l194 6v49q0 88 -46 129t-128 41q-81 0 -159 -23t-156 -58l-101 206q89 47 199.5 74t228.5 27zM780 518
l-118 -4q-148 -4 -205.5 -53t-57.5 -129q0 -70 41 -99.5t107 -29.5q98 0 165.5 58t67.5 165v92zM1018 1579q-7 -99 -58.5 -175.5t-138 -119.5t-200.5 -43q-176 0 -278.5 92t-110.5 246h170q5 -57 35.5 -83.5t79 -34t106.5 -7.5q48 0 97 9t83.5 36t40.5 80h174z" />
    <glyph glyph-name="Aogonek" unicode="&#x104;" horiz-adv-x="1413" 
d="M1079 0l-106 348h-533l-106 -348h-334l516 1468h379l518 -1468h-334zM899 608l-106 340q-10 34 -26.5 87.5t-33 109t-26.5 96.5q-10 -41 -27.5 -101.5t-33.5 -114.5t-23 -77l-105 -340h381zM1178 -227q0 -42 22.5 -62t57.5 -20q32 0 63.5 6t50.5 12v-178q-32 -9 -69 -16
t-86 -7q-115 0 -182.5 64.5t-67.5 165.5q0 60 30 114.5t81 101t114 81.5l133 -35q-69 -66 -108 -120.5t-39 -106.5z" />
    <glyph glyph-name="aogonek" unicode="&#x105;" horiz-adv-x="1237" 
d="M618 1141q225 0 345 -98t120 -298v-745h-213l-59 152h-8q-48 -60 -98 -98t-115 -56t-158 -18q-99 0 -177.5 38t-123.5 116.5t-45 199.5q0 178 125 262.5t375 93.5l194 6v49q0 88 -46 129t-128 41q-81 0 -159 -23t-156 -58l-101 206q89 47 199.5 74t228.5 27zM780 518
l-118 -4q-148 -4 -205.5 -53t-57.5 -129q0 -70 41 -99.5t107 -29.5q98 0 165.5 58t67.5 165v92zM911 -227q0 -42 22.5 -62t57.5 -20q32 0 63.5 6t50.5 12v-178q-32 -9 -69 -16t-86 -7q-115 0 -182.5 64.5t-67.5 165.5q0 60 30 114.5t81 101t114 81.5l133 -35
q-69 -66 -108 -120.5t-39 -106.5z" />
    <glyph glyph-name="Cacute" unicode="&#x106;" horiz-adv-x="1305" 
d="M805 1225q-89 0 -157.5 -34.5t-115 -99.5t-70.5 -157t-24 -207q0 -155 38.5 -264.5t119.5 -167t209 -57.5q89 0 178.5 20t194.5 57v-260q-97 -40 -191 -57.5t-211 -17.5q-226 0 -371.5 93.5t-215.5 262t-70 393.5q0 166 45 304t132 239t215 156t294 55q109 0 218.5 -27.5
t209.5 -75.5l-100 -252q-82 39 -165 68t-163 29zM1165 1913v-21q-29 -28 -76 -69t-101 -85.5t-106 -85t-91 -67.5h-203v27q33 38 76.5 90.5t86.5 108.5t72 102h342z" />
    <glyph glyph-name="cacute" unicode="&#x107;" horiz-adv-x="1053" 
d="M614 -20q-166 0 -283 60.5t-178 187.5t-61 325q0 205 69.5 334.5t193 190.5t286.5 61q116 0 200.5 -22.5t147.5 -53.5l-90 -236q-72 29 -134 47.5t-124 18.5q-80 0 -133 -37.5t-79 -112.5t-26 -188q0 -111 28 -184t81 -108.5t129 -35.5q95 0 169 25.5t144 71.5v-261
q-70 -44 -146.5 -63.5t-193.5 -19.5zM981 1569v-21q-29 -28 -76 -69t-101 -85.5t-106 -85t-91 -67.5h-203v27q33 38 76.5 90.5t86.5 108.5t72 102h342z" />
    <glyph glyph-name="Ccircumflex" unicode="&#x108;" horiz-adv-x="1305" 
d="M805 1225q-89 0 -157.5 -34.5t-115 -99.5t-70.5 -157t-24 -207q0 -155 38.5 -264.5t119.5 -167t209 -57.5q89 0 178.5 20t194.5 57v-260q-97 -40 -191 -57.5t-211 -17.5q-226 0 -371.5 93.5t-215.5 262t-70 393.5q0 166 45 304t132 239t215 156t294 55q109 0 218.5 -27.5
t209.5 -75.5l-100 -252q-82 39 -165 68t-163 29zM952 1913q29 -46 75.5 -102t95.5 -109t85 -90v-27h-202q-54 32 -117.5 76.5t-116.5 99.5q-54 -55 -115 -98.5t-114 -77.5h-203v27q38 38 87 90.5t95 108.5t74 102h356z" />
    <glyph glyph-name="ccircumflex" unicode="&#x109;" horiz-adv-x="1053" 
d="M614 -20q-166 0 -283 60.5t-178 187.5t-61 325q0 205 69.5 334.5t193 190.5t286.5 61q116 0 200.5 -22.5t147.5 -53.5l-90 -236q-72 29 -134 47.5t-124 18.5q-80 0 -133 -37.5t-79 -112.5t-26 -188q0 -111 28 -184t81 -108.5t129 -35.5q95 0 169 25.5t144 71.5v-261
q-70 -44 -146.5 -63.5t-193.5 -19.5zM768 1569q29 -46 75.5 -102t95.5 -109t85 -90v-27h-202q-54 32 -117.5 76.5t-116.5 99.5q-54 -55 -115 -98.5t-114 -77.5h-203v27q38 38 87 90.5t95 108.5t74 102h356z" />
    <glyph glyph-name="Cdot" unicode="&#x10a;" horiz-adv-x="1305" 
d="M805 1225q-89 0 -157.5 -34.5t-115 -99.5t-70.5 -157t-24 -207q0 -155 38.5 -264.5t119.5 -167t209 -57.5q89 0 178.5 20t194.5 57v-260q-97 -40 -191 -57.5t-211 -17.5q-226 0 -371.5 93.5t-215.5 262t-70 393.5q0 166 45 304t132 239t215 156t294 55q109 0 218.5 -27.5
t209.5 -75.5l-100 -252q-82 39 -165 68t-163 29zM776 1900q68 0 117 -31.5t49 -117.5q0 -85 -49 -117.5t-117 -32.5q-69 0 -117.5 32.5t-48.5 117.5q0 86 48.5 117.5t117.5 31.5z" />
    <glyph glyph-name="cdot" unicode="&#x10b;" horiz-adv-x="1053" 
d="M614 -20q-166 0 -283 60.5t-178 187.5t-61 325q0 205 69.5 334.5t193 190.5t286.5 61q116 0 200.5 -22.5t147.5 -53.5l-90 -236q-72 29 -134 47.5t-124 18.5q-80 0 -133 -37.5t-79 -112.5t-26 -188q0 -111 28 -184t81 -108.5t129 -35.5q95 0 169 25.5t144 71.5v-261
q-70 -44 -146.5 -63.5t-193.5 -19.5zM592 1556q68 0 117 -31.5t49 -117.5q0 -85 -49 -117.5t-117 -32.5q-69 0 -117.5 32.5t-48.5 117.5q0 86 48.5 117.5t117.5 31.5z" />
    <glyph glyph-name="Ccaron" unicode="&#x10c;" horiz-adv-x="1305" 
d="M805 1225q-89 0 -157.5 -34.5t-115 -99.5t-70.5 -157t-24 -207q0 -155 38.5 -264.5t119.5 -167t209 -57.5q89 0 178.5 20t194.5 57v-260q-97 -40 -191 -57.5t-211 -17.5q-226 0 -371.5 93.5t-215.5 262t-70 393.5q0 166 45 304t132 239t215 156t294 55q109 0 218.5 -27.5
t209.5 -75.5l-100 -252q-82 39 -165 68t-163 29zM598 1585q-28 46 -74 101.5t-95 108.5t-87 91v27h203q53 -34 114 -77.5t115 -98.5q53 55 116.5 99.5t117.5 76.5h202v-27q-36 -37 -85 -90t-95.5 -109t-75.5 -102h-356z" />
    <glyph glyph-name="ccaron" unicode="&#x10d;" horiz-adv-x="1053" 
d="M614 -20q-166 0 -283 60.5t-178 187.5t-61 325q0 205 69.5 334.5t193 190.5t286.5 61q116 0 200.5 -22.5t147.5 -53.5l-90 -236q-72 29 -134 47.5t-124 18.5q-80 0 -133 -37.5t-79 -112.5t-26 -188q0 -111 28 -184t81 -108.5t129 -35.5q95 0 169 25.5t144 71.5v-261
q-70 -44 -146.5 -63.5t-193.5 -19.5zM414 1241q-28 46 -74 101.5t-95 108.5t-87 91v27h203q53 -34 114 -77.5t115 -98.5q53 55 116.5 99.5t117.5 76.5h202v-27q-36 -37 -85 -90t-95.5 -109t-75.5 -102h-356z" />
    <glyph glyph-name="Dcaron" unicode="&#x10e;" horiz-adv-x="1516" 
d="M1397 745q0 -247 -94.5 -412.5t-273.5 -249t-431 -83.5h-414v1462h459q230 0 399 -81.5t262 -241t93 -394.5zM1075 737q0 162 -47.5 266.5t-140 154.5t-228.5 50h-165v-952h133q227 0 337.5 121t110.5 360zM584 1585q-28 46 -74 101.5t-95 108.5t-87 91v27h203
q53 -34 114 -77.5t115 -98.5q53 55 116.5 99.5t117.5 76.5h202v-27q-36 -37 -85 -90t-95.5 -109t-75.5 -102h-356z" />
    <glyph glyph-name="dcaron" unicode="&#x10f;" horiz-adv-x="1296" 
d="M514 -20q-187 0 -304.5 146.5t-117.5 430.5q0 287 119 434.5t311 147.5q80 0 141 -22t105.5 -59t75.5 -83h10q-6 32 -14.5 94.5t-8.5 128.5v358h306v-1556h-234l-59 145h-13q-29 -46 -72.5 -83.5t-103.5 -59.5t-141 -22zM621 223q125 0 176.5 74.5t54.5 224.5v33
q0 163 -50 249.5t-186 86.5q-101 0 -158 -87t-57 -251t57.5 -247t162.5 -83zM1550 1556v-20q-20 -45 -45.5 -95.5t-55.5 -104t-65 -107.5h-178v26q9 30 18 68t17.5 79.5t15.5 81t11 72.5h282z" />
    <glyph glyph-name="Dcroat" unicode="&#x110;" horiz-adv-x="1516" 
d="M643 1462q230 0 399 -81.5t262 -241t93 -394.5q0 -247 -94.5 -412.5t-273.5 -249t-431 -83.5h-414v596h-137v254h137v612h459zM657 1208h-163v-358h237v-254h-237v-340h131q224 0 337 121t113 360q0 162 -49 266.5t-142 154.5t-227 50z" />
    <glyph glyph-name="dcroat" unicode="&#x111;" horiz-adv-x="1329" 
d="M514 -20q-187 0 -304.5 139t-117.5 407q0 272 119 411.5t311 139.5q80 0 141 -21.5t105.5 -58.5t75.5 -84h10q-7 44 -15 112t-8 120v51h-315v199h315v161h306v-161h155v-199h-155v-1196h-234l-59 145h-13q-29 -46 -72.5 -83.5t-103.5 -59.5t-141 -22zM621 223
q125 0 176.5 68t54.5 205v28q0 148 -50 226.5t-186 78.5q-101 0 -158 -79t-57 -228q0 -148 57.5 -223.5t162.5 -75.5z" />
    <glyph glyph-name="Emacron" unicode="&#x112;" horiz-adv-x="1147" 
d="M1026 0h-842v1462h842v-254h-532v-321h495v-254h-495v-377h532v-256zM957 1796v-211h-678v211h678z" />
    <glyph glyph-name="emacron" unicode="&#x113;" horiz-adv-x="1210" 
d="M621 1139q155 0 267 -59.5t173 -172.5t61 -276v-148h-721q5 -129 77.5 -202.5t201.5 -73.5q107 0 196 22t183 66v-236q-83 -41 -173.5 -60t-219.5 -19q-168 0 -297.5 62t-203 189t-73.5 320q0 196 66.5 326.5t185.5 196t277 65.5zM623 922q-89 0 -147.5 -57t-67.5 -179
h428q-1 68 -24.5 121t-70 84t-118.5 31zM946 1452v-211h-678v211h678z" />
    <glyph glyph-name="Ebreve" unicode="&#x114;" horiz-adv-x="1147" 
d="M1026 0h-842v1462h842v-254h-532v-321h495v-254h-495v-377h532v-256zM1015 1923q-7 -99 -58.5 -175.5t-138 -119.5t-200.5 -43q-176 0 -278.5 92t-110.5 246h170q5 -57 35.5 -83.5t79 -34t106.5 -7.5q48 0 97 9t83.5 36t40.5 80h174z" />
    <glyph glyph-name="ebreve" unicode="&#x115;" horiz-adv-x="1210" 
d="M621 1139q155 0 267 -59.5t173 -172.5t61 -276v-148h-721q5 -129 77.5 -202.5t201.5 -73.5q107 0 196 22t183 66v-236q-83 -41 -173.5 -60t-219.5 -19q-168 0 -297.5 62t-203 189t-73.5 320q0 196 66.5 326.5t185.5 196t277 65.5zM623 922q-89 0 -147.5 -57t-67.5 -179
h428q-1 68 -24.5 121t-70 84t-118.5 31zM1005 1579q-7 -99 -58.5 -175.5t-138 -119.5t-200.5 -43q-176 0 -278.5 92t-110.5 246h170q5 -57 35.5 -83.5t79 -34t106.5 -7.5q48 0 97 9t83.5 36t40.5 80h174z" />
    <glyph glyph-name="Edotaccent" unicode="&#x116;" horiz-adv-x="1147" 
d="M1026 0h-842v1462h842v-254h-532v-321h495v-254h-495v-377h532v-256zM621 1900q68 0 117 -31.5t49 -117.5q0 -85 -49 -117.5t-117 -32.5q-69 0 -117.5 32.5t-48.5 117.5q0 86 48.5 117.5t117.5 31.5z" />
    <glyph glyph-name="edotaccent" unicode="&#x117;" horiz-adv-x="1210" 
d="M621 1139q155 0 267 -59.5t173 -172.5t61 -276v-148h-721q5 -129 77.5 -202.5t201.5 -73.5q107 0 196 22t183 66v-236q-83 -41 -173.5 -60t-219.5 -19q-168 0 -297.5 62t-203 189t-73.5 320q0 196 66.5 326.5t185.5 196t277 65.5zM623 922q-89 0 -147.5 -57t-67.5 -179
h428q-1 68 -24.5 121t-70 84t-118.5 31zM610 1556q68 0 117 -31.5t49 -117.5q0 -85 -49 -117.5t-117 -32.5q-69 0 -117.5 32.5t-48.5 117.5q0 86 48.5 117.5t117.5 31.5z" />
    <glyph glyph-name="Eogonek" unicode="&#x118;" horiz-adv-x="1147" 
d="M1026 0h-842v1462h842v-254h-532v-321h495v-254h-495v-377h532v-256zM832 -227q0 -42 22.5 -62t57.5 -20q32 0 63.5 6t50.5 12v-178q-32 -9 -69 -16t-86 -7q-115 0 -182.5 64.5t-67.5 165.5q0 60 30 114.5t81 101t114 81.5l133 -35q-69 -66 -108 -120.5t-39 -106.5z" />
    <glyph glyph-name="eogonek" unicode="&#x119;" horiz-adv-x="1210" 
d="M846 -227q0 -42 22.5 -62t57.5 -20q32 0 63.5 6t50.5 12v-178q-32 -9 -69 -16t-86 -7q-115 0 -182.5 64.5t-67.5 165.5q0 60 30 114.5t81.5 101t113.5 81.5l199 24q-82 -72 -128.5 -123.5t-65.5 -89.5t-19 -73zM621 1139q155 0 267 -59.5t173 -172.5t61 -276v-148h-721
q5 -129 77.5 -202.5t201.5 -73.5q107 0 196 22t183 66v-236q-83 -41 -173.5 -60t-219.5 -19q-168 0 -297.5 62t-203 189t-73.5 320q0 196 66.5 326.5t185.5 196t277 65.5zM623 922q-89 0 -147.5 -57t-67.5 -179h428q-1 68 -24.5 121t-70 84t-118.5 31z" />
    <glyph glyph-name="Ecaron" unicode="&#x11a;" horiz-adv-x="1147" 
d="M1026 0h-842v1462h842v-254h-532v-321h495v-254h-495v-377h532v-256zM442 1585q-28 46 -74 101.5t-95 108.5t-87 91v27h203q53 -34 114 -77.5t115 -98.5q53 55 116.5 99.5t117.5 76.5h202v-27q-36 -37 -85 -90t-95.5 -109t-75.5 -102h-356z" />
    <glyph glyph-name="ecaron" unicode="&#x11b;" horiz-adv-x="1210" 
d="M621 1139q155 0 267 -59.5t173 -172.5t61 -276v-148h-721q5 -129 77.5 -202.5t201.5 -73.5q107 0 196 22t183 66v-236q-83 -41 -173.5 -60t-219.5 -19q-168 0 -297.5 62t-203 189t-73.5 320q0 196 66.5 326.5t185.5 196t277 65.5zM623 922q-89 0 -147.5 -57t-67.5 -179
h428q-1 68 -24.5 121t-70 84t-118.5 31zM432 1241q-28 46 -74 101.5t-95 108.5t-87 91v27h203q53 -34 114 -77.5t115 -98.5q53 55 116.5 99.5t117.5 76.5h202v-27q-36 -37 -85 -90t-95.5 -109t-75.5 -102h-356z" />
    <glyph glyph-name="Gcircumflex" unicode="&#x11c;" horiz-adv-x="1483" 
d="M739 821h580v-758q-115 -38 -239 -60.5t-281 -22.5q-218 0 -370 86t-231 254t-79 413q0 230 88.5 398t259 260t416.5 92q116 0 229 -25t205 -65l-103 -248q-67 34 -153 57t-180 23q-135 0 -234.5 -62t-154 -173.5t-54.5 -262.5q0 -143 39 -253.5t123 -173t219 -62.5
q66 0 111.5 6.5t85.5 13.5v305h-277v258zM999 1913q29 -46 75.5 -102t95.5 -109t85 -90v-27h-202q-54 32 -117.5 76.5t-116.5 99.5q-54 -55 -115 -98.5t-114 -77.5h-203v27q38 38 87 90.5t95 108.5t74 102h356z" />
    <glyph glyph-name="gcircumflex" unicode="&#x11d;" horiz-adv-x="1157" 
d="M487 -492q-234 0 -357.5 81.5t-123.5 228.5q0 101 63 169t185 97q-47 20 -82 65.5t-35 96.5q0 64 37 106.5t107 83.5q-88 38 -139.5 122t-51.5 198q0 122 53.5 207.5t156 130.5t249.5 45q31 0 72 -4t75.5 -9t46.5 -8h390v-155l-175 -45q24 -37 36 -79t12 -89
q0 -180 -125.5 -280.5t-348.5 -100.5q-53 3 -100 8q-23 -18 -35 -38t-12 -42t18.5 -36.5t56 -22t93.5 -7.5h190q184 0 280.5 -79t96.5 -232q0 -196 -163.5 -304t-469.5 -108zM500 -293q109 0 187.5 20.5t120.5 58t42 89.5q0 42 -24.5 66.5t-74 34.5t-126.5 10h-158
q-56 0 -100.5 -18t-70.5 -50.5t-26 -75.5q0 -63 60.5 -99t169.5 -36zM549 555q86 0 126 53t40 144q0 101 -41.5 151.5t-124.5 50.5q-84 0 -126 -50.5t-42 -151.5q0 -91 41.5 -144t126.5 -53zM726 1569q29 -46 75.5 -102t95.5 -109t85 -90v-27h-202q-54 32 -117.5 76.5
t-116.5 99.5q-54 -55 -115 -98.5t-114 -77.5h-203v27q38 38 87 90.5t95 108.5t74 102h356z" />
    <glyph glyph-name="Gbreve" unicode="&#x11e;" horiz-adv-x="1483" 
d="M739 821h580v-758q-115 -38 -239 -60.5t-281 -22.5q-218 0 -370 86t-231 254t-79 413q0 230 88.5 398t259 260t416.5 92q116 0 229 -25t205 -65l-103 -248q-67 34 -153 57t-180 23q-135 0 -234.5 -62t-154 -173.5t-54.5 -262.5q0 -143 39 -253.5t123 -173t219 -62.5
q66 0 111.5 6.5t85.5 13.5v305h-277v258zM1218 1923q-7 -99 -58.5 -175.5t-138 -119.5t-200.5 -43q-176 0 -278.5 92t-110.5 246h170q5 -57 35.5 -83.5t79 -34t106.5 -7.5q48 0 97 9t83.5 36t40.5 80h174z" />
    <glyph glyph-name="gbreve" unicode="&#x11f;" horiz-adv-x="1157" 
d="M487 -492q-234 0 -357.5 81.5t-123.5 228.5q0 101 63 169t185 97q-47 20 -82 65.5t-35 96.5q0 64 37 106.5t107 83.5q-88 38 -139.5 122t-51.5 198q0 122 53.5 207.5t156 130.5t249.5 45q31 0 72 -4t75.5 -9t46.5 -8h390v-155l-175 -45q24 -37 36 -79t12 -89
q0 -180 -125.5 -280.5t-348.5 -100.5q-53 3 -100 8q-23 -18 -35 -38t-12 -42t18.5 -36.5t56 -22t93.5 -7.5h190q184 0 280.5 -79t96.5 -232q0 -196 -163.5 -304t-469.5 -108zM500 -293q109 0 187.5 20.5t120.5 58t42 89.5q0 42 -24.5 66.5t-74 34.5t-126.5 10h-158
q-56 0 -100.5 -18t-70.5 -50.5t-26 -75.5q0 -63 60.5 -99t169.5 -36zM549 555q86 0 126 53t40 144q0 101 -41.5 151.5t-124.5 50.5q-84 0 -126 -50.5t-42 -151.5q0 -91 41.5 -144t126.5 -53zM941 1579q-7 -99 -58.5 -175.5t-138 -119.5t-200.5 -43q-176 0 -278.5 92
t-110.5 246h170q5 -57 35.5 -83.5t79 -34t106.5 -7.5q48 0 97 9t83.5 36t40.5 80h174z" />
    <glyph glyph-name="Gdot" unicode="&#x120;" horiz-adv-x="1483" 
d="M739 821h580v-758q-115 -38 -239 -60.5t-281 -22.5q-218 0 -370 86t-231 254t-79 413q0 230 88.5 398t259 260t416.5 92q116 0 229 -25t205 -65l-103 -248q-67 34 -153 57t-180 23q-135 0 -234.5 -62t-154 -173.5t-54.5 -262.5q0 -143 39 -253.5t123 -173t219 -62.5
q66 0 111.5 6.5t85.5 13.5v305h-277v258zM823 1900q68 0 117 -31.5t49 -117.5q0 -85 -49 -117.5t-117 -32.5q-69 0 -117.5 32.5t-48.5 117.5q0 86 48.5 117.5t117.5 31.5z" />
    <glyph glyph-name="gdot" unicode="&#x121;" horiz-adv-x="1157" 
d="M487 -492q-234 0 -357.5 81.5t-123.5 228.5q0 101 63 169t185 97q-47 20 -82 65.5t-35 96.5q0 64 37 106.5t107 83.5q-88 38 -139.5 122t-51.5 198q0 122 53.5 207.5t156 130.5t249.5 45q31 0 72 -4t75.5 -9t46.5 -8h390v-155l-175 -45q24 -37 36 -79t12 -89
q0 -180 -125.5 -280.5t-348.5 -100.5q-53 3 -100 8q-23 -18 -35 -38t-12 -42t18.5 -36.5t56 -22t93.5 -7.5h190q184 0 280.5 -79t96.5 -232q0 -196 -163.5 -304t-469.5 -108zM500 -293q109 0 187.5 20.5t120.5 58t42 89.5q0 42 -24.5 66.5t-74 34.5t-126.5 10h-158
q-56 0 -100.5 -18t-70.5 -50.5t-26 -75.5q0 -63 60.5 -99t169.5 -36zM549 555q86 0 126 53t40 144q0 101 -41.5 151.5t-124.5 50.5q-84 0 -126 -50.5t-42 -151.5q0 -91 41.5 -144t126.5 -53zM548 1556q68 0 117 -31.5t49 -117.5q0 -85 -49 -117.5t-117 -32.5
q-69 0 -117.5 32.5t-48.5 117.5q0 86 48.5 117.5t117.5 31.5z" />
    <glyph glyph-name="uni0122" unicode="&#x122;" horiz-adv-x="1483" 
d="M739 821h580v-758q-115 -38 -239 -60.5t-281 -22.5q-218 0 -370 86t-231 254t-79 413q0 230 88.5 398t259 260t416.5 92q116 0 229 -25t205 -65l-103 -248q-67 34 -153 57t-180 23q-135 0 -234.5 -62t-154 -173.5t-54.5 -262.5q0 -143 39 -253.5t123 -173t219 -62.5
q66 0 111.5 6.5t85.5 13.5v305h-277v258zM970 -125v-20q-20 -45 -45.5 -95.5t-55.5 -104t-65 -108.5h-178v27q12 40 24 93.5t22.5 108.5t15.5 99h282z" />
    <glyph glyph-name="uni0123" unicode="&#x123;" horiz-adv-x="1157" 
d="M725 1569v-27q-11 -40 -23.5 -93.5t-22.5 -108.5t-16 -99h-282v21q21 45 46 95.5t55 104t65 107.5h178zM487 -492q-234 0 -357.5 81.5t-123.5 228.5q0 101 63 169t185 97q-47 20 -82 65.5t-35 96.5q0 64 37 106.5t107 83.5q-88 38 -139.5 122t-51.5 198q0 122 53.5 207.5
t156 130.5t249.5 45q31 0 72 -4t75.5 -9t46.5 -8h390v-155l-175 -45q24 -37 36 -79t12 -89q0 -180 -125.5 -280.5t-348.5 -100.5q-53 3 -100 8q-23 -18 -35 -38t-12 -42t18.5 -36.5t56 -22t93.5 -7.5h190q184 0 280.5 -79t96.5 -232q0 -196 -163.5 -304t-469.5 -108z
M500 -293q109 0 187.5 20.5t120.5 58t42 89.5q0 42 -24.5 66.5t-74 34.5t-126.5 10h-158q-56 0 -100.5 -18t-70.5 -50.5t-26 -75.5q0 -63 60.5 -99t169.5 -36zM549 555q86 0 126 53t40 144q0 101 -41.5 151.5t-124.5 50.5q-84 0 -126 -50.5t-42 -151.5q0 -91 41.5 -144
t126.5 -53z" />
    <glyph glyph-name="Hcircumflex" unicode="&#x124;" horiz-adv-x="1567" 
d="M1382 0h-309v631h-579v-631h-310v1462h310v-573h579v573h309v-1462zM964 1913q29 -46 75.5 -102t95.5 -109t85 -90v-27h-202q-54 32 -117.5 76.5t-116.5 99.5q-54 -55 -115 -98.5t-114 -77.5h-203v27q38 38 87 90.5t95 108.5t74 102h356z" />
    <glyph glyph-name="hcircumflex" unicode="&#x125;" horiz-adv-x="1346" 
d="M465 1556v-317q0 -83 -5.5 -158t-8.5 -106h16q36 58 85.5 94t109.5 53t129 17q121 0 211 -42.5t140 -133t50 -234.5v-729h-305v653q0 120 -44 181t-136 61t-145 -42.5t-75 -125t-22 -201.5v-526h-305v1556h305zM497 2007q29 -46 75.5 -102t95.5 -109t85 -90v-27h-202
q-54 32 -117.5 76.5t-116.5 99.5q-54 -55 -115 -98.5t-114 -77.5h-203v27q38 38 87 90.5t95 108.5t74 102h356z" />
    <glyph glyph-name="Hbar" unicode="&#x126;" horiz-adv-x="1567" 
d="M184 0v1069h-184v199h184v194h310v-194h579v194h309v-194h185v-199h-185v-1069h-309v631h-579v-631h-310zM494 889h579v180h-579v-180z" />
    <glyph glyph-name="hbar" unicode="&#x127;" horiz-adv-x="1346" 
d="M465 1556v-161h315v-199h-315v-18q0 -83 -5.5 -158.5t-8.5 -106.5h18q36 58 85 94t109 53t130 17q121 0 210.5 -42.5t139 -133t49.5 -233.5v-668h-305v592q0 120 -44 181t-136 61t-145 -43t-75 -125t-22 -201v-465h-305v1196h-156v199h156v161h305z" />
    <glyph glyph-name="Itilde" unicode="&#x128;" horiz-adv-x="678" 
d="M184 0v1462h310v-1462h-310zM-74 1583q6 80 29 138.5t60 96t83.5 56t99.5 18.5q41 0 80.5 -15.5t78 -36.5t76 -36.5t73.5 -15.5q30 0 58.5 26.5t41.5 79.5h149q-12 -158 -90 -233.5t-182 -75.5q-41 0 -80.5 16t-78 36.5t-75.5 36.5t-73 16q-31 0 -59.5 -26.5t-41.5 -80.5
h-149z" />
    <glyph glyph-name="itilde" unicode="&#x129;" horiz-adv-x="625" 
d="M465 0h-305v1118h305v-1118zM-102 1239q6 80 29 138.5t60 96t83.5 56t99.5 18.5q41 0 80.5 -15.5t78 -36.5t76 -36.5t73.5 -15.5q30 0 58.5 26.5t41.5 79.5h149q-12 -158 -90 -233.5t-182 -75.5q-41 0 -80.5 16t-78 36.5t-75.5 36.5t-73 16q-31 0 -59.5 -26.5
t-41.5 -80.5h-149z" />
    <glyph glyph-name="Imacron" unicode="&#x12a;" horiz-adv-x="678" 
d="M184 0v1462h310v-1462h-310zM678 1796v-211h-678v211h678z" />
    <glyph glyph-name="imacron" unicode="&#x12b;" horiz-adv-x="625" 
d="M465 0h-305v1118h305v-1118zM654 1452v-211h-678v211h678z" />
    <glyph glyph-name="Ibreve" unicode="&#x12c;" horiz-adv-x="678" 
d="M184 0v1462h310v-1462h-310zM733 1923q-7 -99 -58.5 -175.5t-138 -119.5t-200.5 -43q-176 0 -278.5 92t-110.5 246h170q5 -57 35.5 -83.5t79 -34t106.5 -7.5q48 0 97 9t83.5 36t40.5 80h174z" />
    <glyph glyph-name="ibreve" unicode="&#x12d;" horiz-adv-x="625" 
d="M465 0h-305v1118h305v-1118zM712 1579q-7 -99 -58.5 -175.5t-138 -119.5t-200.5 -43q-176 0 -278.5 92t-110.5 246h170q5 -57 35.5 -83.5t79 -34t106.5 -7.5q48 0 97 9t83.5 36t40.5 80h174z" />
    <glyph glyph-name="Iogonek" unicode="&#x12e;" horiz-adv-x="678" 
d="M184 0v1462h310v-1462h-310zM346 -227q0 -42 22.5 -62t57.5 -20q32 0 63.5 6t50.5 12v-178q-32 -9 -69 -16t-86 -7q-115 0 -182.5 64.5t-67.5 165.5q0 60 30 114.5t81 101t114 81.5l133 -35q-69 -66 -108 -120.5t-39 -106.5z" />
    <glyph glyph-name="iogonek" unicode="&#x12f;" horiz-adv-x="625" 
d="M465 1118v-1118h-305v1118h305zM313 1556q68 0 117 -31.5t49 -117.5q0 -85 -49 -117.5t-117 -32.5q-69 0 -117.5 32.5t-48.5 117.5q0 86 48.5 117.5t117.5 31.5zM303 -227q0 -42 22.5 -62t57.5 -20q32 0 63.5 6t50.5 12v-178q-32 -9 -69 -16t-86 -7q-115 0 -182.5 64.5
t-67.5 165.5q0 60 30 114.5t81 101t114 81.5l133 -35q-69 -66 -108 -120.5t-39 -106.5z" />
    <glyph glyph-name="Idotaccent" unicode="&#x130;" horiz-adv-x="678" 
d="M184 0v1462h310v-1462h-310zM340 1900q68 0 117 -31.5t49 -117.5q0 -85 -49 -117.5t-117 -32.5q-69 0 -117.5 32.5t-48.5 117.5q0 86 48.5 117.5t117.5 31.5z" />
    <glyph glyph-name="IJ" unicode="&#x132;" horiz-adv-x="1356" 
d="M184 0v1462h310v-1462h-310zM709 -430q-60 0 -105.5 6.5t-77.5 15.5v258q32 -7 68.5 -13.5t77.5 -6.5q54 0 97 20.5t68 77.5t25 164v1370h310v-1368q0 -188 -58.5 -303.5t-163 -168t-241.5 -52.5z" />
    <glyph glyph-name="ij" unicode="&#x133;" horiz-adv-x="1249" 
d="M465 1118v-1118h-305v1118h305zM313 1556q68 0 117 -31.5t49 -117.5q0 -85 -49 -117.5t-117 -32.5q-69 0 -117.5 32.5t-48.5 117.5q0 86 48.5 117.5t117.5 31.5zM695 -492q-52 0 -108 7.5t-93 17.5v240q37 -10 69.5 -14.5t73.5 -4.5q62 0 105 34.5t43 135.5v1194h305
v-1239q0 -102 -39 -186.5t-126 -134.5t-230 -50zM772 1407q0 86 48.5 117.5t117.5 31.5q68 0 117 -31.5t49 -117.5q0 -85 -49 -117.5t-117 -32.5q-69 0 -117.5 32.5t-48.5 117.5z" />
    <glyph glyph-name="Jcircumflex" unicode="&#x134;" horiz-adv-x="678" 
d="M31 -430q-60 0 -105.5 6.5t-77.5 15.5v258q32 -7 68.5 -13.5t77.5 -6.5q54 0 97 20.5t68 77.5t25 164v1370h310v-1368q0 -188 -58.5 -303.5t-163 -168t-241.5 -52.5zM520 1913q29 -46 75.5 -102t95.5 -109t85 -90v-27h-202q-54 32 -117.5 76.5t-116.5 99.5
q-54 -55 -115 -98.5t-114 -77.5h-203v27q38 38 87 90.5t95 108.5t74 102h356z" />
    <glyph glyph-name="jcircumflex" unicode="&#x135;" horiz-adv-x="625" 
d="M70 -492q-52 0 -108 7.5t-93 17.5v240q37 -10 69.5 -14.5t73.5 -4.5q62 0 105 34.5t43 135.5v1194h305v-1239q0 -102 -39 -186.5t-126 -134.5t-230 -50zM493 1569q29 -46 75.5 -102t95.5 -109t85 -90v-27h-202q-54 32 -117.5 76.5t-116.5 99.5q-54 -55 -115 -98.5
t-114 -77.5h-203v27q38 38 87 90.5t95 108.5t74 102h356z" />
    <glyph glyph-name="uni0136" unicode="&#x136;" horiz-adv-x="1360" 
d="M1360 0h-352l-383 616l-131 -94v-522h-310v1462h310v-669q31 43 61 86t61 86l396 497h344l-510 -647zM884 -125v-20q-20 -45 -45.5 -95.5t-55.5 -104t-65 -108.5h-178v27q12 40 24 93.5t22.5 108.5t15.5 99h282z" />
    <glyph glyph-name="uni0137" unicode="&#x137;" horiz-adv-x="1270" 
d="M465 1556v-696q0 -63 -5 -126t-11 -126h4q31 44 63.5 87t69.5 83l313 340h344l-444 -485l471 -633h-352l-322 453l-131 -105v-348h-305v1556h305zM807 -125v-20q-20 -45 -45.5 -95.5t-55.5 -104t-65 -108.5h-178v27q12 40 24 93.5t22.5 108.5t15.5 99h282z" />
    <glyph glyph-name="kgreenlandic" unicode="&#x138;" horiz-adv-x="1270" 
d="M1243 1118l-440 -512l467 -606h-348l-314 426l-143 -90v-336h-305v1118h305v-293l-2 -122t-4 -121h4q35 43 69.5 85t71.5 85l314 366h325z" />
    <glyph glyph-name="Lacute" unicode="&#x139;" horiz-adv-x="1157" 
d="M184 0v1462h310v-1206h593v-256h-903zM729 1913v-21q-29 -28 -76 -69t-101 -85.5t-106 -85t-91 -67.5h-203v27q33 38 76.5 90.5t86.5 108.5t72 102h342z" />
    <glyph glyph-name="lacute" unicode="&#x13a;" horiz-adv-x="625" 
d="M465 0h-305v1556h305v-1556zM706 2007v-21q-29 -28 -76 -69t-101 -85.5t-106 -85t-91 -67.5h-203v27q33 38 76.5 90.5t86.5 108.5t72 102h342z" />
    <glyph glyph-name="uni013B" unicode="&#x13b;" horiz-adv-x="1157" 
d="M184 0v1462h310v-1206h593v-256h-903zM803 -125v-20q-20 -45 -45.5 -95.5t-55.5 -104t-65 -108.5h-178v27q12 40 24 93.5t22.5 108.5t15.5 99h282z" />
    <glyph glyph-name="uni013C" unicode="&#x13c;" horiz-adv-x="625" 
d="M465 0h-305v1556h305v-1556zM485 -125v-20q-20 -45 -45.5 -95.5t-55.5 -104t-65 -108.5h-178v27q12 40 24 93.5t22.5 108.5t15.5 99h282z" />
    <glyph glyph-name="Lcaron" unicode="&#x13d;" horiz-adv-x="1157" 
d="M184 0v1462h310v-1206h593v-256h-903zM1145 1462v-20q-20 -45 -45.5 -95.5t-55.5 -104t-65 -107.5h-178v26q9 30 18 68t17.5 79.5t15.5 81t11 72.5h282z" />
    <glyph glyph-name="lcaron" unicode="&#x13e;" horiz-adv-x="625" 
d="M465 0h-305v1556h305v-1556zM864 1556v-20q-20 -45 -45.5 -95.5t-55.5 -104t-65 -107.5h-178v26q9 30 18 68t17.5 79.5t15.5 81t11 72.5h282z" />
    <glyph glyph-name="Ldot" unicode="&#x13f;" horiz-adv-x="1157" 
d="M184 0v1462h310v-1206h593v-256h-903zM899 952q68 0 117 -31.5t49 -117.5q0 -85 -49 -117.5t-117 -32.5q-69 0 -117.5 32.5t-48.5 117.5q0 86 48.5 117.5t117.5 31.5z" />
    <glyph glyph-name="ldot" unicode="&#x140;" horiz-adv-x="741" 
d="M465 0h-305v1556h305v-1556zM682 923q68 0 117 -31.5t49 -117.5q0 -85 -49 -117.5t-117 -32.5q-69 0 -117.5 32.5t-48.5 117.5q0 86 48.5 117.5t117.5 31.5z" />
    <glyph glyph-name="Lslash" unicode="&#x141;" horiz-adv-x="1157" 
d="M184 0v492l-69 -41l-113 196l182 111v704h310v-516l143 88l117 -196l-260 -158v-424h593v-256h-903z" />
    <glyph glyph-name="lslash" unicode="&#x142;" horiz-adv-x="625" 
d="M160 0v477l-72 -43l-113 197l185 112v813h305v-626l70 43l116 -197l-186 -112v-664h-305z" />
    <glyph glyph-name="Nacute" unicode="&#x143;" horiz-adv-x="1665" 
d="M1481 0h-394l-636 1106h-9q4 -69 7 -139t6 -139.5t6 -139.5v-688h-277v1462h391l635 -1095h7q-2 68 -5 135t-5.5 134t-4.5 134v692h279v-1462zM1226 1913v-21q-29 -28 -76 -69t-101 -85.5t-106 -85t-91 -67.5h-203v27q33 38 76.5 90.5t86.5 108.5t72 102h342z" />
    <glyph glyph-name="nacute" unicode="&#x144;" horiz-adv-x="1346" 
d="M795 1139q179 0 288 -97.5t109 -312.5v-729h-305v653q0 120 -43.5 181t-136.5 61q-140 0 -191 -95t-51 -274v-526h-305v1118h233l41 -143h17q36 58 89.5 94t119 53t135.5 17zM1067 1569v-21q-29 -28 -76 -69t-101 -85.5t-106 -85t-91 -67.5h-203v27q33 38 76.5 90.5
t86.5 108.5t72 102h342z" />
    <glyph glyph-name="uni0145" unicode="&#x145;" horiz-adv-x="1665" 
d="M1481 0h-394l-636 1106h-9q4 -69 7 -139t6 -139.5t6 -139.5v-688h-277v1462h391l635 -1095h7q-2 68 -5 135t-5.5 134t-4.5 134v692h279v-1462zM1005 -125v-20q-20 -45 -45.5 -95.5t-55.5 -104t-65 -108.5h-178v27q12 40 24 93.5t22.5 108.5t15.5 99h282z" />
    <glyph glyph-name="uni0146" unicode="&#x146;" horiz-adv-x="1346" 
d="M795 1139q179 0 288 -97.5t109 -312.5v-729h-305v653q0 120 -43.5 181t-136.5 61q-140 0 -191 -95t-51 -274v-526h-305v1118h233l41 -143h17q36 58 89.5 94t119 53t135.5 17zM846 -125v-20q-20 -45 -45.5 -95.5t-55.5 -104t-65 -108.5h-178v27q12 40 24 93.5t22.5 108.5
t15.5 99h282z" />
    <glyph glyph-name="Ncaron" unicode="&#x147;" horiz-adv-x="1665" 
d="M1481 0h-394l-636 1106h-9q4 -69 7 -139t6 -139.5t6 -139.5v-688h-277v1462h391l635 -1095h7q-2 68 -5 135t-5.5 134t-4.5 134v692h279v-1462zM660 1585q-28 46 -74 101.5t-95 108.5t-87 91v27h203q53 -34 114 -77.5t115 -98.5q53 55 116.5 99.5t117.5 76.5h202v-27
q-36 -37 -85 -90t-95.5 -109t-75.5 -102h-356z" />
    <glyph glyph-name="ncaron" unicode="&#x148;" horiz-adv-x="1346" 
d="M795 1139q179 0 288 -97.5t109 -312.5v-729h-305v653q0 120 -43.5 181t-136.5 61q-140 0 -191 -95t-51 -274v-526h-305v1118h233l41 -143h17q36 58 89.5 94t119 53t135.5 17zM500 1241q-28 46 -74 101.5t-95 108.5t-87 91v27h203q53 -34 114 -77.5t115 -98.5
q53 55 116.5 99.5t117.5 76.5h202v-27q-36 -37 -85 -90t-95.5 -109t-75.5 -102h-356z" />
    <glyph glyph-name="napostrophe" unicode="&#x149;" horiz-adv-x="1577" 
d="M1026 1139q179 0 288 -97.5t109 -312.5v-729h-305v653q0 120 -43.5 181t-136.5 61q-140 0 -191 -95t-51 -274v-526h-305v1118h233l41 -143h17q36 58 89.5 94t119 53t135.5 17zM386 1462l14 -22q-18 -73 -46.5 -155.5t-62 -165.5t-67.5 -158h-219q14 60 28.5 126t28 132
t24.5 128t19 115h281z" />
    <glyph glyph-name="Eng" unicode="&#x14a;" horiz-adv-x="1665" 
d="M1016 -430q-64 0 -113.5 6.5t-83.5 15.5v242q37 -7 78 -13.5t88 -6.5q76 0 124.5 19.5t73 61.5t27.5 109l-759 1102h-9q5 -57 9 -134t7 -153t3 -131v-688h-277v1462h391l635 -901h7q-3 58 -6.5 133t-6 148t-2.5 123v497h279v-1462q0 -148 -58.5 -243.5t-163.5 -141
t-243 -45.5z" />
    <glyph glyph-name="eng" unicode="&#x14b;" horiz-adv-x="1346" 
d="M829 -492q-47 0 -98.5 7.5t-85.5 17.5v240q31 -10 58 -14.5t61 -4.5q50 0 86.5 34.5t36.5 135.5v752q0 109 -45.5 164t-134.5 55q-93 0 -146 -42.5t-74.5 -125t-21.5 -201.5v-526h-305v1118h233l41 -143h19q36 58 89.5 94t118.5 53t134 17q120 0 209 -42.5t138.5 -133
t49.5 -234.5v-850q0 -102 -36 -186.5t-115.5 -134.5t-211.5 -50z" />
    <glyph glyph-name="Omacron" unicode="&#x14c;" horiz-adv-x="1630" 
d="M1511 733q0 -169 -42 -307.5t-127.5 -238.5t-216.5 -153.5t-310 -53.5t-310 53.5t-216.5 153.5t-127.5 239t-42 309q0 227 74.5 395.5t229.5 261.5t394 93q238 0 391.5 -93t228 -262t74.5 -397zM444 733q0 -153 38.5 -263.5t120.5 -170t212 -59.5q132 0 214 59.5
t119.5 170t37.5 263.5q0 230 -86 362t-283 132q-131 0 -213.5 -59.5t-121 -170t-38.5 -264.5zM1155 1796v-211h-678v211h678z" />
    <glyph glyph-name="omacron" unicode="&#x14d;" horiz-adv-x="1268" 
d="M1176 561q0 -140 -37.5 -248t-109 -182.5t-172 -112.5t-226.5 -38q-118 0 -216.5 38t-171 112.5t-112 182.5t-39.5 248q0 186 66 315t188 196t291 67q157 0 278.5 -67t191 -196t69.5 -315zM403 561q0 -110 24 -185t75 -113t133 -38q81 0 131.5 38t74 113t23.5 185
q0 111 -23.5 184.5t-74.5 110.5t-133 37q-121 0 -175.5 -83t-54.5 -249zM975 1452v-211h-678v211h678z" />
    <glyph glyph-name="Obreve" unicode="&#x14e;" horiz-adv-x="1630" 
d="M1511 733q0 -169 -42 -307.5t-127.5 -238.5t-216.5 -153.5t-310 -53.5t-310 53.5t-216.5 153.5t-127.5 239t-42 309q0 227 74.5 395.5t229.5 261.5t394 93q238 0 391.5 -93t228 -262t74.5 -397zM444 733q0 -153 38.5 -263.5t120.5 -170t212 -59.5q132 0 214 59.5
t119.5 170t37.5 263.5q0 230 -86 362t-283 132q-131 0 -213.5 -59.5t-121 -170t-38.5 -264.5zM1214 1923q-7 -99 -58.5 -175.5t-138 -119.5t-200.5 -43q-176 0 -278.5 92t-110.5 246h170q5 -57 35.5 -83.5t79 -34t106.5 -7.5q48 0 97 9t83.5 36t40.5 80h174z" />
    <glyph glyph-name="obreve" unicode="&#x14f;" horiz-adv-x="1268" 
d="M1176 561q0 -140 -37.5 -248t-109 -182.5t-172 -112.5t-226.5 -38q-118 0 -216.5 38t-171 112.5t-112 182.5t-39.5 248q0 186 66 315t188 196t291 67q157 0 278.5 -67t191 -196t69.5 -315zM403 561q0 -110 24 -185t75 -113t133 -38q81 0 131.5 38t74 113t23.5 185
q0 111 -23.5 184.5t-74.5 110.5t-133 37q-121 0 -175.5 -83t-54.5 -249zM1034 1579q-7 -99 -58.5 -175.5t-138 -119.5t-200.5 -43q-176 0 -278.5 92t-110.5 246h170q5 -57 35.5 -83.5t79 -34t106.5 -7.5q48 0 97 9t83.5 36t40.5 80h174z" />
    <glyph glyph-name="Ohungarumlaut" unicode="&#x150;" horiz-adv-x="1630" 
d="M1511 733q0 -169 -42 -307.5t-127.5 -238.5t-216.5 -153.5t-310 -53.5t-310 53.5t-216.5 153.5t-127.5 239t-42 309q0 227 74.5 395.5t229.5 261.5t394 93q238 0 391.5 -93t228 -262t74.5 -397zM444 733q0 -153 38.5 -263.5t120.5 -170t212 -59.5q132 0 214 59.5
t119.5 170t37.5 263.5q0 230 -86 362t-283 132q-131 0 -213.5 -59.5t-121 -170t-38.5 -264.5zM1415 1913v-21q-16 -27 -55.5 -67t-90 -85t-100.5 -86t-88 -69h-162v27q29 39 65.5 92t71.5 108t58 101h301zM1018 1913v-21q-16 -27 -55.5 -67t-90 -85t-100.5 -86t-88 -69h-162
v27q29 39 64.5 92t70.5 108t59 101h302z" />
    <glyph glyph-name="ohungarumlaut" unicode="&#x151;" horiz-adv-x="1268" 
d="M1176 561q0 -140 -37.5 -248t-109 -182.5t-172 -112.5t-226.5 -38q-118 0 -216.5 38t-171 112.5t-112 182.5t-39.5 248q0 186 66 315t188 196t291 67q157 0 278.5 -67t191 -196t69.5 -315zM403 561q0 -110 24 -185t75 -113t133 -38q81 0 131.5 38t74 113t23.5 185
q0 111 -23.5 184.5t-74.5 110.5t-133 37q-121 0 -175.5 -83t-54.5 -249zM1235 1569v-21q-16 -27 -55.5 -67t-90 -85t-100.5 -86t-88 -69h-162v27q29 39 65.5 92t71.5 108t58 101h301zM838 1569v-21q-16 -27 -55.5 -67t-90 -85t-100.5 -86t-88 -69h-162v27q29 39 64.5 92
t70.5 108t59 101h302z" />
    <glyph glyph-name="OE" unicode="&#x152;" horiz-adv-x="1993" 
d="M776 1485q54 0 118.5 -6t109.5 -17h868v-254h-563v-321h526v-254h-526v-377h563v-256h-873q-44 -9 -108 -14.5t-117 -5.5q-224 0 -369 94t-215.5 264t-70.5 397t70.5 395.5t216 261.5t370.5 93zM776 1227q-87 0 -151 -34t-105.5 -98t-61.5 -155.5t-20 -206.5
q0 -153 36 -263.5t110.5 -170t189.5 -59.5q60 0 123.5 10t101.5 29v907q-37 20 -100 30.5t-123 10.5z" />
    <glyph glyph-name="oe" unicode="&#x153;" horiz-adv-x="2003" 
d="M1399 1139q159 0 274.5 -59.5t178.5 -172.5t63 -276v-148h-746q7 -132 82 -204t207 -72q113 0 204.5 22t188.5 66v-236q-85 -41 -178 -60t-227 -19q-127 0 -235 38t-185 117q-70 -78 -170.5 -116.5t-220.5 -38.5q-159 0 -281.5 67.5t-192 197.5t-69.5 316t64 315t185 196
t292 67q112 0 212.5 -39.5t170.5 -116.5q48 52 107.5 86.5t128.5 52t147 17.5zM633 893q-121 0 -175.5 -83t-54.5 -249q0 -110 24 -185t75 -113t133 -38q81 0 131.5 38t74 113t23.5 185q0 111 -23.5 184.5t-74.5 110.5t-133 37zM1405 922q-94 0 -156 -57t-71 -179h450
q-1 68 -25.5 121t-73.5 84t-124 31z" />
    <glyph glyph-name="Racute" unicode="&#x154;" horiz-adv-x="1352" 
d="M610 1462q199 0 328.5 -48t192.5 -145t63 -245q0 -100 -38 -175t-100 -127t-134 -85l430 -637h-344l-349 561h-165v-561h-310v1462h426zM588 1208h-94v-395h100q154 0 220.5 51.5t66.5 151.5q0 104 -71.5 148t-221.5 44zM1085 1913v-21q-29 -28 -76 -69t-101 -85.5
t-106 -85t-91 -67.5h-203v27q33 38 76.5 90.5t86.5 108.5t72 102h342z" />
    <glyph glyph-name="racute" unicode="&#x155;" horiz-adv-x="930" 
d="M784 1139q23 0 53.5 -2.5t49.5 -6.5l-23 -286q-15 5 -42.5 7.5t-47.5 2.5q-59 0 -114.5 -15t-99.5 -48.5t-69.5 -88t-25.5 -133.5v-569h-305v1118h231l45 -188h15q33 57 82.5 104.5t113 76t137.5 28.5zM913 1569v-21q-29 -28 -76 -69t-101 -85.5t-106 -85t-91 -67.5h-203
v27q33 38 76.5 90.5t86.5 108.5t72 102h342z" />
    <glyph glyph-name="uni0156" unicode="&#x156;" horiz-adv-x="1352" 
d="M610 1462q199 0 328.5 -48t192.5 -145t63 -245q0 -100 -38 -175t-100 -127t-134 -85l430 -637h-344l-349 561h-165v-561h-310v1462h426zM588 1208h-94v-395h100q154 0 220.5 51.5t66.5 151.5q0 104 -71.5 148t-221.5 44zM905 -125v-20q-20 -45 -45.5 -95.5t-55.5 -104
t-65 -108.5h-178v27q12 40 24 93.5t22.5 108.5t15.5 99h282z" />
    <glyph glyph-name="uni0157" unicode="&#x157;" horiz-adv-x="930" 
d="M784 1139q23 0 53.5 -2.5t49.5 -6.5l-23 -286q-15 5 -42.5 7.5t-47.5 2.5q-59 0 -114.5 -15t-99.5 -48.5t-69.5 -88t-25.5 -133.5v-569h-305v1118h231l45 -188h15q33 57 82.5 104.5t113 76t137.5 28.5zM491 -125v-20q-20 -45 -45.5 -95.5t-55.5 -104t-65 -108.5h-178v27
q12 40 24 93.5t22.5 108.5t15.5 99h282z" />
    <glyph glyph-name="Rcaron" unicode="&#x158;" horiz-adv-x="1352" 
d="M610 1462q199 0 328.5 -48t192.5 -145t63 -245q0 -100 -38 -175t-100 -127t-134 -85l430 -637h-344l-349 561h-165v-561h-310v1462h426zM588 1208h-94v-395h100q154 0 220.5 51.5t66.5 151.5q0 104 -71.5 148t-221.5 44zM518 1585q-28 46 -74 101.5t-95 108.5t-87 91v27
h203q53 -34 114 -77.5t115 -98.5q53 55 116.5 99.5t117.5 76.5h202v-27q-36 -37 -85 -90t-95.5 -109t-75.5 -102h-356z" />
    <glyph glyph-name="rcaron" unicode="&#x159;" horiz-adv-x="930" 
d="M784 1139q23 0 53.5 -2.5t49.5 -6.5l-23 -286q-15 5 -42.5 7.5t-47.5 2.5q-59 0 -114.5 -15t-99.5 -48.5t-69.5 -88t-25.5 -133.5v-569h-305v1118h231l45 -188h15q33 57 82.5 104.5t113 76t137.5 28.5zM346 1241q-28 46 -74 101.5t-95 108.5t-87 91v27h203
q53 -34 114 -77.5t115 -98.5q53 55 116.5 99.5t117.5 76.5h202v-27q-36 -37 -85 -90t-95.5 -109t-75.5 -102h-356z" />
    <glyph glyph-name="Sacute" unicode="&#x15a;" horiz-adv-x="1128" 
d="M1047 406q0 -130 -63 -226t-183.5 -148t-292.5 -52q-76 0 -148.5 10t-139 29.5t-126.5 48.5v288q104 -46 216 -83t222 -37q76 0 122.5 20t67.5 55t21 80q0 55 -37 94t-101.5 73t-145.5 73q-51 24 -111 58.5t-114 84.5t-88.5 121.5t-34.5 171.5q0 131 60 224t171.5 142.5
t263.5 49.5q114 0 217.5 -26.5t216.5 -76.5l-100 -241q-101 41 -181 63.5t-163 22.5q-58 0 -99 -18.5t-62 -52t-21 -77.5q0 -52 30.5 -87.5t92 -68.5t153.5 -77q112 -53 191.5 -110.5t122.5 -135t43 -192.5zM974 1913v-21q-29 -28 -76 -69t-101 -85.5t-106 -85t-91 -67.5
h-203v27q33 38 76.5 90.5t86.5 108.5t72 102h342z" />
    <glyph glyph-name="sacute" unicode="&#x15b;" horiz-adv-x="1018" 
d="M940 332q0 -114 -53.5 -192.5t-159.5 -119t-264 -40.5q-117 0 -200.5 15t-168.5 50v252q91 -41 195.5 -67.5t183.5 -26.5q89 0 127.5 26.5t38.5 69.5q0 28 -15.5 50.5t-66.5 51t-160 74.5q-105 44 -172.5 89t-100 106.5t-32.5 156.5q0 155 120.5 233.5t322.5 78.5
q104 0 198.5 -21t194.5 -67l-92 -220q-83 36 -156.5 59t-149.5 23q-67 0 -101 -18t-34 -55q0 -27 17.5 -48t68 -46.5t148.5 -65.5q95 -39 165 -81.5t108 -105t38 -161.5zM903 1569v-21q-29 -28 -76 -69t-101 -85.5t-106 -85t-91 -67.5h-203v27q33 38 76.5 90.5t86.5 108.5
t72 102h342z" />
    <glyph glyph-name="Scircumflex" unicode="&#x15c;" horiz-adv-x="1128" 
d="M1047 406q0 -130 -63 -226t-183.5 -148t-292.5 -52q-76 0 -148.5 10t-139 29.5t-126.5 48.5v288q104 -46 216 -83t222 -37q76 0 122.5 20t67.5 55t21 80q0 55 -37 94t-101.5 73t-145.5 73q-51 24 -111 58.5t-114 84.5t-88.5 121.5t-34.5 171.5q0 131 60 224t171.5 142.5
t263.5 49.5q114 0 217.5 -26.5t216.5 -76.5l-100 -241q-101 41 -181 63.5t-163 22.5q-58 0 -99 -18.5t-62 -52t-21 -77.5q0 -52 30.5 -87.5t92 -68.5t153.5 -77q112 -53 191.5 -110.5t122.5 -135t43 -192.5zM762 1913q29 -46 75.5 -102t95.5 -109t85 -90v-27h-202
q-54 32 -117.5 76.5t-116.5 99.5q-54 -55 -115 -98.5t-114 -77.5h-203v27q38 38 87 90.5t95 108.5t74 102h356z" />
    <glyph glyph-name="scircumflex" unicode="&#x15d;" horiz-adv-x="1018" 
d="M940 332q0 -114 -53.5 -192.5t-159.5 -119t-264 -40.5q-117 0 -200.5 15t-168.5 50v252q91 -41 195.5 -67.5t183.5 -26.5q89 0 127.5 26.5t38.5 69.5q0 28 -15.5 50.5t-66.5 51t-160 74.5q-105 44 -172.5 89t-100 106.5t-32.5 156.5q0 155 120.5 233.5t322.5 78.5
q104 0 198.5 -21t194.5 -67l-92 -220q-83 36 -156.5 59t-149.5 23q-67 0 -101 -18t-34 -55q0 -27 17.5 -48t68 -46.5t148.5 -65.5q95 -39 165 -81.5t108 -105t38 -161.5zM690 1569q29 -46 75.5 -102t95.5 -109t85 -90v-27h-202q-54 32 -117.5 76.5t-116.5 99.5
q-54 -55 -115 -98.5t-114 -77.5h-203v27q38 38 87 90.5t95 108.5t74 102h356z" />
    <glyph glyph-name="Scedilla" unicode="&#x15e;" horiz-adv-x="1128" 
d="M1047 406q0 -130 -63 -226t-183.5 -148t-292.5 -52q-76 0 -148.5 10t-139 29.5t-126.5 48.5v288q104 -46 216 -83t222 -37q76 0 122.5 20t67.5 55t21 80q0 55 -37 94t-101.5 73t-145.5 73q-51 24 -111 58.5t-114 84.5t-88.5 121.5t-34.5 171.5q0 131 60 224t171.5 142.5
t263.5 49.5q114 0 217.5 -26.5t216.5 -76.5l-100 -241q-101 41 -181 63.5t-163 22.5q-58 0 -99 -18.5t-62 -52t-21 -77.5q0 -52 30.5 -87.5t92 -68.5t153.5 -77q112 -53 191.5 -110.5t122.5 -135t43 -192.5zM787 -250q0 -115 -67 -178.5t-242 -63.5q-45 0 -81 6t-65 15v168
q29 -7 71 -14t72 -7q29 0 50.5 13.5t21.5 48.5q0 37 -37 66t-129 42l78 154h193l-27 -61q41 -13 78 -38.5t60.5 -63t23.5 -87.5z" />
    <glyph glyph-name="scedilla" unicode="&#x15f;" horiz-adv-x="1018" 
d="M940 332q0 -114 -53.5 -192.5t-159.5 -119t-264 -40.5q-117 0 -200.5 15t-168.5 50v252q91 -41 195.5 -67.5t183.5 -26.5q89 0 127.5 26.5t38.5 69.5q0 28 -15.5 50.5t-66.5 51t-160 74.5q-105 44 -172.5 89t-100 106.5t-32.5 156.5q0 155 120.5 233.5t322.5 78.5
q104 0 198.5 -21t194.5 -67l-92 -220q-83 36 -156.5 59t-149.5 23q-67 0 -101 -18t-34 -55q0 -27 17.5 -48t68 -46.5t148.5 -65.5q95 -39 165 -81.5t108 -105t38 -161.5zM748 -250q0 -115 -67 -178.5t-242 -63.5q-45 0 -81 6t-65 15v168q29 -7 71 -14t72 -7q29 0 50.5 13.5
t21.5 48.5q0 37 -37 66t-129 42l78 154h193l-27 -61q41 -13 78 -38.5t60.5 -63t23.5 -87.5z" />
    <glyph glyph-name="Scaron" unicode="&#x160;" horiz-adv-x="1128" 
d="M1047 406q0 -130 -63 -226t-183.5 -148t-292.5 -52q-76 0 -148.5 10t-139 29.5t-126.5 48.5v288q104 -46 216 -83t222 -37q76 0 122.5 20t67.5 55t21 80q0 55 -37 94t-101.5 73t-145.5 73q-51 24 -111 58.5t-114 84.5t-88.5 121.5t-34.5 171.5q0 131 60 224t171.5 142.5
t263.5 49.5q114 0 217.5 -26.5t216.5 -76.5l-100 -241q-101 41 -181 63.5t-163 22.5q-58 0 -99 -18.5t-62 -52t-21 -77.5q0 -52 30.5 -87.5t92 -68.5t153.5 -77q112 -53 191.5 -110.5t122.5 -135t43 -192.5zM408 1585q-28 46 -74 101.5t-95 108.5t-87 91v27h203
q53 -34 114 -77.5t115 -98.5q53 55 116.5 99.5t117.5 76.5h202v-27q-36 -37 -85 -90t-95.5 -109t-75.5 -102h-356z" />
    <glyph glyph-name="scaron" unicode="&#x161;" horiz-adv-x="1018" 
d="M940 332q0 -114 -53.5 -192.5t-159.5 -119t-264 -40.5q-117 0 -200.5 15t-168.5 50v252q91 -41 195.5 -67.5t183.5 -26.5q89 0 127.5 26.5t38.5 69.5q0 28 -15.5 50.5t-66.5 51t-160 74.5q-105 44 -172.5 89t-100 106.5t-32.5 156.5q0 155 120.5 233.5t322.5 78.5
q104 0 198.5 -21t194.5 -67l-92 -220q-83 36 -156.5 59t-149.5 23q-67 0 -101 -18t-34 -55q0 -27 17.5 -48t68 -46.5t148.5 -65.5q95 -39 165 -81.5t108 -105t38 -161.5zM336 1241q-28 46 -74 101.5t-95 108.5t-87 91v27h203q53 -34 114 -77.5t115 -98.5q53 55 116.5 99.5
t117.5 76.5h202v-27q-36 -37 -85 -90t-95.5 -109t-75.5 -102h-356z" />
    <glyph glyph-name="uni021A" unicode="&#x21a;" horiz-adv-x="1186" 
d="M748 0h-310v1204h-397v258h1104v-258h-397v-1204zM766 -125v-20q-20 -45 -45.5 -95.5t-55.5 -104t-65 -108.5h-178v27q12 40 24 93.5t22.5 108.5t15.5 99h282z" />
    <glyph glyph-name="uni021B" unicode="&#x21b;" horiz-adv-x="889" 
d="M631 223q50 0 97.5 10t94.5 25v-227q-49 -22 -121.5 -36.5t-158.5 -14.5q-100 0 -179.5 32.5t-125 113t-45.5 224.5v539h-146v129l168 102l88 236h195v-238h313v-229h-313v-539q0 -64 36.5 -95.5t96.5 -31.5zM665 -125v-20q-20 -45 -45.5 -95.5t-55.5 -104t-65 -108.5
h-178v27q12 40 24 93.5t22.5 108.5t15.5 99h282z" />
    <glyph glyph-name="Tcaron" unicode="&#x164;" horiz-adv-x="1186" 
d="M748 0h-310v1204h-397v258h1104v-258h-397v-1204zM420 1585q-28 46 -74 101.5t-95 108.5t-87 91v27h203q53 -34 114 -77.5t115 -98.5q53 55 116.5 99.5t117.5 76.5h202v-27q-36 -37 -85 -90t-95.5 -109t-75.5 -102h-356z" />
    <glyph glyph-name="tcaron" unicode="&#x165;" horiz-adv-x="889" 
d="M631 223q50 0 97.5 10t94.5 25v-227q-49 -22 -121.5 -36.5t-158.5 -14.5q-100 0 -179.5 32.5t-125 113t-45.5 224.5v539h-146v129l168 102l88 236h195v-238h313v-229h-313v-539q0 -64 36.5 -95.5t96.5 -31.5zM1167 1556v-20q-20 -45 -45.5 -95.5t-55.5 -104t-65 -107.5
h-178v26q9 30 18 68t17.5 79.5t15.5 81t11 72.5h282z" />
    <glyph glyph-name="Tbar" unicode="&#x166;" horiz-adv-x="1186" 
d="M438 0v596h-248v254h248v354h-397v258h1104v-258h-397v-354h247v-254h-247v-596h-310z" />
    <glyph glyph-name="tbar" unicode="&#x167;" horiz-adv-x="889" 
d="M66 498v198h710v-198h-710zM631 223q50 0 97.5 10t94.5 25v-227q-49 -22 -121.5 -36.5t-158.5 -14.5q-100 0 -179.5 32.5t-125 113t-45.5 224.5v539h-146v129l168 102l88 236h195v-238h313v-229h-313v-539q0 -64 36.5 -95.5t96.5 -31.5z" />
    <glyph glyph-name="Utilde" unicode="&#x168;" horiz-adv-x="1548" 
d="M1374 1462v-946q0 -151 -66.5 -272.5t-201 -192.5t-338.5 -71q-290 0 -442 148t-152 392v942h309v-895q0 -181 74 -254t219 -73q102 0 165.5 35t93.5 108t30 186v893h309zM358 1583q6 80 29 138.5t60 96t83.5 56t99.5 18.5q41 0 80.5 -15.5t78 -36.5t76 -36.5t73.5 -15.5
q30 0 58.5 26.5t41.5 79.5h149q-12 -158 -90 -233.5t-182 -75.5q-41 0 -80.5 16t-78 36.5t-75.5 36.5t-73 16q-31 0 -59.5 -26.5t-41.5 -80.5h-149z" />
    <glyph glyph-name="utilde" unicode="&#x169;" horiz-adv-x="1346" 
d="M1186 1118v-1118h-234l-41 143h-16q-36 -57 -90 -93t-119 -53t-135 -17q-120 0 -209 42.5t-138.5 132.5t-49.5 234v729h305v-653q0 -120 43 -181t137 -61q93 0 146 42.5t74.5 125t21.5 201.5v526h305zM258 1239q6 80 29 138.5t60 96t83.5 56t99.5 18.5q41 0 80.5 -15.5
t78 -36.5t76 -36.5t73.5 -15.5q30 0 58.5 26.5t41.5 79.5h149q-12 -158 -90 -233.5t-182 -75.5q-41 0 -80.5 16t-78 36.5t-75.5 36.5t-73 16q-31 0 -59.5 -26.5t-41.5 -80.5h-149z" />
    <glyph glyph-name="Umacron" unicode="&#x16a;" horiz-adv-x="1548" 
d="M1374 1462v-946q0 -151 -66.5 -272.5t-201 -192.5t-338.5 -71q-290 0 -442 148t-152 392v942h309v-895q0 -181 74 -254t219 -73q102 0 165.5 35t93.5 108t30 186v893h309zM1114 1796v-211h-678v211h678z" />
    <glyph glyph-name="umacron" unicode="&#x16b;" horiz-adv-x="1346" 
d="M1186 1118v-1118h-234l-41 143h-16q-36 -57 -90 -93t-119 -53t-135 -17q-120 0 -209 42.5t-138.5 132.5t-49.5 234v729h305v-653q0 -120 43 -181t137 -61q93 0 146 42.5t74.5 125t21.5 201.5v526h305zM1014 1452v-211h-678v211h678z" />
    <glyph glyph-name="Ubreve" unicode="&#x16c;" horiz-adv-x="1548" 
d="M1374 1462v-946q0 -151 -66.5 -272.5t-201 -192.5t-338.5 -71q-290 0 -442 148t-152 392v942h309v-895q0 -181 74 -254t219 -73q102 0 165.5 35t93.5 108t30 186v893h309zM1173 1923q-7 -99 -58.5 -175.5t-138 -119.5t-200.5 -43q-176 0 -278.5 92t-110.5 246h170
q5 -57 35.5 -83.5t79 -34t106.5 -7.5q48 0 97 9t83.5 36t40.5 80h174z" />
    <glyph glyph-name="ubreve" unicode="&#x16d;" horiz-adv-x="1346" 
d="M1186 1118v-1118h-234l-41 143h-16q-36 -57 -90 -93t-119 -53t-135 -17q-120 0 -209 42.5t-138.5 132.5t-49.5 234v729h305v-653q0 -120 43 -181t137 -61q93 0 146 42.5t74.5 125t21.5 201.5v526h305zM1073 1579q-7 -99 -58.5 -175.5t-138 -119.5t-200.5 -43
q-176 0 -278.5 92t-110.5 246h170q5 -57 35.5 -83.5t79 -34t106.5 -7.5q48 0 97 9t83.5 36t40.5 80h174z" />
    <glyph glyph-name="Uring" unicode="&#x16e;" horiz-adv-x="1548" 
d="M1374 1462v-946q0 -151 -66.5 -272.5t-201 -192.5t-338.5 -71q-290 0 -442 148t-152 392v942h309v-895q0 -181 74 -254t219 -73q102 0 165.5 35t93.5 108t30 186v893h309zM776 1583q-111 0 -179.5 63.5t-68.5 174.5q0 110 68.5 173.5t179.5 63.5q106 0 180 -63t74 -172
q0 -112 -73.5 -176t-180.5 -64zM776 1724q41 0 68.5 26t27.5 71q0 44 -27.5 70t-68.5 26q-42 0 -69.5 -26t-27.5 -70q0 -45 24.5 -71t72.5 -26z" />
    <glyph glyph-name="uring" unicode="&#x16f;" horiz-adv-x="1346" 
d="M1186 1118v-1118h-234l-41 143h-16q-36 -57 -90 -93t-119 -53t-135 -17q-120 0 -209 42.5t-138.5 132.5t-49.5 234v729h305v-653q0 -120 43 -181t137 -61q93 0 146 42.5t74.5 125t21.5 201.5v526h305zM676 1239q-111 0 -179.5 63.5t-68.5 174.5q0 110 68.5 173.5
t179.5 63.5q106 0 180 -63t74 -172q0 -112 -73.5 -176t-180.5 -64zM676 1380q41 0 68.5 26t27.5 71q0 44 -27.5 70t-68.5 26q-42 0 -69.5 -26t-27.5 -70q0 -45 24.5 -71t72.5 -26z" />
    <glyph glyph-name="Uhungarumlaut" unicode="&#x170;" horiz-adv-x="1548" 
d="M1374 1462v-946q0 -151 -66.5 -272.5t-201 -192.5t-338.5 -71q-290 0 -442 148t-152 392v942h309v-895q0 -181 74 -254t219 -73q102 0 165.5 35t93.5 108t30 186v893h309zM1374 1913v-21q-16 -27 -55.5 -67t-90 -85t-100.5 -86t-88 -69h-162v27q29 39 65.5 92t71.5 108
t58 101h301zM977 1913v-21q-16 -27 -55.5 -67t-90 -85t-100.5 -86t-88 -69h-162v27q29 39 64.5 92t70.5 108t59 101h302z" />
    <glyph glyph-name="uhungarumlaut" unicode="&#x171;" horiz-adv-x="1346" 
d="M1186 1118v-1118h-234l-41 143h-16q-36 -57 -90 -93t-119 -53t-135 -17q-120 0 -209 42.5t-138.5 132.5t-49.5 234v729h305v-653q0 -120 43 -181t137 -61q93 0 146 42.5t74.5 125t21.5 201.5v526h305zM1274 1569v-21q-16 -27 -55.5 -67t-90 -85t-100.5 -86t-88 -69h-162
v27q29 39 65.5 92t71.5 108t58 101h301zM877 1569v-21q-16 -27 -55.5 -67t-90 -85t-100.5 -86t-88 -69h-162v27q29 39 64.5 92t70.5 108t59 101h302z" />
    <glyph glyph-name="Uogonek" unicode="&#x172;" horiz-adv-x="1548" 
d="M993 -205q0 -52 24.5 -78t59.5 -26q32 0 61.5 6t49.5 12v-178q-32 -9 -69 -16t-87 -7q-115 0 -182.5 66t-67.5 178q0 69 30.5 132.5t82 116t113.5 87.5l192 29q-72 -66 -118 -123t-67.5 -106t-21.5 -93zM1374 1462v-946q0 -151 -66.5 -272.5t-201 -192.5t-338.5 -71
q-290 0 -442 148t-152 392v942h309v-895q0 -181 74 -254t219 -73q102 0 165.5 35t93.5 108t30 186v893h309z" />
    <glyph glyph-name="uogonek" unicode="&#x173;" horiz-adv-x="1346" 
d="M1186 1118v-1118h-234l-41 143h-16q-36 -57 -90 -93t-119 -53t-135 -17q-120 0 -209 42.5t-138.5 132.5t-49.5 234v729h305v-653q0 -120 43 -181t137 -61q93 0 146 42.5t74.5 125t21.5 201.5v526h305zM973 -227q0 -42 22.5 -62t57.5 -20q32 0 63.5 6t50.5 12v-178
q-32 -9 -69 -16t-86 -7q-115 0 -182.5 64.5t-67.5 165.5q0 60 30 114.5t81 101t114 81.5l133 -35q-69 -66 -108 -120.5t-39 -106.5z" />
    <glyph glyph-name="Wcircumflex" unicode="&#x174;" horiz-adv-x="1980" 
d="M1980 1462l-372 -1462h-353l-198 768q-6 22 -16 67t-21 98.5t-19.5 101t-11.5 75.5q-3 -28 -11.5 -75t-19 -100t-20.5 -99t-16 -70l-197 -766h-352l-373 1462h305l187 -798q8 -36 18.5 -86t21 -104.5t19 -105t12.5 -87.5q5 38 13 88.5t17.5 103t19.5 97.5t18 73l213 819
h293l213 -819q7 -27 16.5 -72.5t19.5 -98.5t18.5 -103.5t12.5 -87.5q7 50 19.5 121.5t27 142.5t25.5 119l186 798h305zM1171 1913q29 -46 75.5 -102t95.5 -109t85 -90v-27h-202q-54 32 -117.5 76.5t-116.5 99.5q-54 -55 -115 -98.5t-114 -77.5h-203v27q38 38 87 90.5
t95 108.5t74 102h356z" />
    <glyph glyph-name="wcircumflex" unicode="&#x175;" horiz-adv-x="1753" 
d="M1079 0l-86 391q-7 35 -23 103.5t-34.5 147t-34 145.5t-22.5 98h-9q-7 -31 -22 -98t-33.5 -146t-34.5 -148.5t-24 -105.5l-90 -387h-328l-318 1118h304l129 -495q13 -52 25 -123.5t21.5 -138t14.5 -105.5h8q2 29 8.5 77t15 99.5t16 93t11.5 56.5l138 536h336l131 -536
q7 -29 18.5 -92t20.5 -129.5t10 -104.5h8q4 34 14 101t23.5 140.5t27.5 125.5l134 495h299l-322 -1118h-332zM1056 1569q29 -46 75.5 -102t95.5 -109t85 -90v-27h-202q-54 32 -117.5 76.5t-116.5 99.5q-54 -55 -115 -98.5t-114 -77.5h-203v27q38 38 87 90.5t95 108.5t74 102
h356z" />
    <glyph glyph-name="Ycircumflex" unicode="&#x176;" horiz-adv-x="1278" 
d="M639 860l305 602h334l-485 -893v-569h-308v559l-485 903h336zM819 1913q29 -46 75.5 -102t95.5 -109t85 -90v-27h-202q-54 32 -117.5 76.5t-116.5 99.5q-54 -55 -115 -98.5t-114 -77.5h-203v27q38 38 87 90.5t95 108.5t74 102h356z" />
    <glyph glyph-name="ycircumflex" unicode="&#x177;" horiz-adv-x="1165" 
d="M0 1118h334l211 -629q10 -30 17 -61t12 -64t8 -69h6q6 54 16.5 101t26.5 93l207 629h327l-473 -1261q-43 -116 -112 -193.5t-158.5 -116.5t-196.5 -39q-52 0 -90 5.5t-65 11.5v242q21 -5 53 -9t67 -4q64 0 110 27t77 72.5t49 99.5l18 55zM764 1569q29 -46 75.5 -102
t95.5 -109t85 -90v-27h-202q-54 32 -117.5 76.5t-116.5 99.5q-54 -55 -115 -98.5t-114 -77.5h-203v27q38 38 87 90.5t95 108.5t74 102h356z" />
    <glyph glyph-name="Ydieresis" unicode="&#x178;" horiz-adv-x="1278" 
d="M639 860l305 602h334l-485 -893v-569h-308v559l-485 903h336zM295 1749q0 71 40.5 103t98.5 32q57 0 99 -32t42 -103q0 -67 -42 -100t-99 -33q-58 0 -98.5 33t-40.5 100zM698 1749q0 71 40.5 103t100.5 32q57 0 99.5 -32t42.5 -103q0 -67 -42.5 -100t-99.5 -33
q-60 0 -100.5 33t-40.5 100z" />
    <glyph glyph-name="Zacute" unicode="&#x179;" horiz-adv-x="1186" 
d="M1137 0h-1088v201l701 1005h-682v256h1050v-200l-700 -1006h719v-256zM997 1913v-21q-29 -28 -76 -69t-101 -85.5t-106 -85t-91 -67.5h-203v27q33 38 76.5 90.5t86.5 108.5t72 102h342z" />
    <glyph glyph-name="zacute" unicode="&#x17a;" horiz-adv-x="999" 
d="M938 0h-883v180l518 705h-487v233h834v-198l-504 -687h522v-233zM892 1569v-21q-29 -28 -76 -69t-101 -85.5t-106 -85t-91 -67.5h-203v27q33 38 76.5 90.5t86.5 108.5t72 102h342z" />
    <glyph glyph-name="Zdotaccent" unicode="&#x17b;" horiz-adv-x="1186" 
d="M1137 0h-1088v201l701 1005h-682v256h1050v-200l-700 -1006h719v-256zM608 1900q68 0 117 -31.5t49 -117.5q0 -85 -49 -117.5t-117 -32.5q-69 0 -117.5 32.5t-48.5 117.5q0 86 48.5 117.5t117.5 31.5z" />
    <glyph glyph-name="zdotaccent" unicode="&#x17c;" horiz-adv-x="999" 
d="M938 0h-883v180l518 705h-487v233h834v-198l-504 -687h522v-233zM504 1556q68 0 117 -31.5t49 -117.5q0 -85 -49 -117.5t-117 -32.5q-69 0 -117.5 32.5t-48.5 117.5q0 86 48.5 117.5t117.5 31.5z" />
    <glyph glyph-name="Zcaron" unicode="&#x17d;" horiz-adv-x="1186" 
d="M1137 0h-1088v201l701 1005h-682v256h1050v-200l-700 -1006h719v-256zM430 1585q-28 46 -74 101.5t-95 108.5t-87 91v27h203q53 -34 114 -77.5t115 -98.5q53 55 116.5 99.5t117.5 76.5h202v-27q-36 -37 -85 -90t-95.5 -109t-75.5 -102h-356z" />
    <glyph glyph-name="zcaron" unicode="&#x17e;" horiz-adv-x="999" 
d="M938 0h-883v180l518 705h-487v233h834v-198l-504 -687h522v-233zM326 1241q-28 46 -74 101.5t-95 108.5t-87 91v27h203q53 -34 114 -77.5t115 -98.5q53 55 116.5 99.5t117.5 76.5h202v-27q-36 -37 -85 -90t-95.5 -109t-75.5 -102h-356z" />
    <glyph glyph-name="longs" unicode="&#x17f;" horiz-adv-x="784" 
d="M592 1325q-70 0 -98.5 -38.5t-28.5 -98.5v-1188h-305v1200q0 143 48.5 222.5t136.5 112t208 32.5q98 0 165 -14.5t113 -32.5l-71 -224q-35 11 -75 20t-93 9z" />
    <glyph glyph-name="florin" unicode="&#x192;" horiz-adv-x="1171" 
d="M809 1483q92 0 155.5 -14.5t106.5 -32.5l-72 -224q-31 11 -65 20t-80 9q-60 0 -84.5 -38.5t-24.5 -98.5v-70h228v-229h-228v-926q0 -102 -36.5 -186.5t-116.5 -134.5t-211 -50q-48 0 -99 7.5t-85 17.5v240q31 -10 57.5 -14.5t60.5 -4.5q51 0 88 34.5t37 135.5v881h-168
v147l168 82v82q0 143 45.5 222.5t128.5 112t195 32.5z" />
    <glyph glyph-name="Aringacute" unicode="&#x1fa;" horiz-adv-x="1413" 
d="M0 0l500 1315q-22 29 -32.5 65.5t-10.5 79.5q0 111 68.5 174.5t179.5 63.5q106 0 179.5 -63t73.5 -173q0 -44 -12.5 -81t-34.5 -66l502 -1315h-332l-106 330h-535l-108 -330h-332zM508 590h401l-102 289q-11 33 -32.5 91t-41 116.5t-26.5 91.5q-6 -23 -20 -66.5
t-30 -91.5t-29.5 -87t-19.5 -54zM705 1366q47 0 71.5 24t24.5 70q0 45 -27.5 70.5t-68.5 25.5q-45 0 -71 -25.5t-26 -70.5q0 -43 25.5 -68.5t71.5 -25.5zM584 1753v16q29 26 61 60t62 69t51 64h342v-12q-16 -18 -53.5 -44t-85 -54.5t-94 -54.5t-81.5 -44h-202z" />
    <glyph glyph-name="aringacute" unicode="&#x1fb;" horiz-adv-x="1237" 
d="M618 1141q225 0 345 -98t120 -298v-745h-213l-59 152h-8q-48 -60 -98 -98t-115 -56t-158 -18q-99 0 -177.5 38t-123.5 116.5t-45 199.5q0 178 125 262.5t375 93.5l194 6v49q0 88 -46 129t-128 41q-81 0 -159 -23t-156 -58l-101 206q89 47 199.5 74t228.5 27zM780 518
l-118 -4q-148 -4 -205.5 -53t-57.5 -129q0 -70 41 -99.5t107 -29.5q98 0 165.5 58t67.5 165v92zM627 1532q-42 0 -69.5 -26t-27.5 -70q0 -45 24.5 -71t72.5 -26q41 0 68.5 26t27.5 71q0 44 -27.5 70t-68.5 26zM627 1673q71 0 128.5 -28.5t91.5 -81t34 -125.5
q0 -112 -73.5 -176t-180.5 -64q-111 0 -179.5 63.5t-68.5 174.5q0 110 68.5 173.5t179.5 63.5zM987 1962v-12q-21 -23 -78.5 -60.5t-123 -75t-111.5 -61.5h-203v16q29 26 61 60t62 69t51 64h342z" />
    <glyph glyph-name="AEacute" unicode="&#x1fc;" horiz-adv-x="1950" 
d="M1829 0h-873v348h-491l-150 -348h-315l655 1462h1174v-254h-563v-321h526v-254h-526v-377h563v-256zM578 608h378v590h-127zM1429 1913v-21q-29 -28 -76 -69t-101 -85.5t-106 -85t-91 -67.5h-203v27q33 38 76.5 90.5t86.5 108.5t72 102h342z" />
    <glyph glyph-name="aeacute" unicode="&#x1fd;" horiz-adv-x="1878" 
d="M1313 1139q141 0 248.5 -59.5t168 -172.5t60.5 -276v-148h-723q5 -129 77.5 -202.5t201.5 -73.5q101 0 194 22t186 66v-236q-84 -41 -174.5 -60t-222.5 -19q-91 0 -172 22.5t-147.5 68t-114.5 115.5q-60 -71 -120 -117t-138.5 -67.5t-194.5 -21.5q-96 0 -177 38
t-130 116.5t-49 199.5q0 119 54 195.5t161.5 115.5t267.5 45l191 6v84q0 69 -44.5 102t-121.5 33q-80 0 -155 -21t-150 -56l-99 202q88 47 197 74t225 27q113 0 198.5 -32.5t143.5 -98.5q66 65 152.5 97t206.5 32zM760 518l-113 -4q-139 -4 -193.5 -53t-54.5 -129
q0 -70 38.5 -99.5t101.5 -29.5t113 26t79 76t29 121v92zM1307 922q-102 0 -163.5 -57t-70.5 -179h430q-1 68 -23.5 121t-65.5 84t-107 31zM1347 1569v-21q-29 -28 -76 -69t-101 -85.5t-106 -85t-91 -67.5h-203v27q33 38 76.5 90.5t86.5 108.5t72 102h342z" />
    <glyph glyph-name="Oslashacute" unicode="&#x1fe;" horiz-adv-x="1630" 
d="M1511 733q0 -169 -42 -307.5t-127.5 -238.5t-216.5 -153.5t-310 -53.5q-98 0 -182.5 16.5t-153.5 48.5l-90 -135l-162 108l90 136q-101 100 -149.5 247.5t-48.5 333.5q0 227 74.5 395.5t229.5 261.5t394 93q101 0 187.5 -18t156.5 -52l84 125l160 -104l-88 -131
q98 -98 146 -244t48 -328zM1186 733q0 89 -12.5 164t-38.5 133l-500 -751q37 -19 81.5 -29t98.5 -10q132 0 214 59.5t119.5 170t37.5 263.5zM444 733q0 -92 13.5 -169.5t42.5 -137.5l506 756q-39 21 -86 33t-103 12q-131 0 -213.5 -59.5t-121 -170t-38.5 -264.5zM1216 1913
v-21q-29 -28 -76 -69t-101 -85.5t-106 -85t-91 -67.5h-203v27q33 38 76.5 90.5t86.5 108.5t72 102h342z" />
    <glyph glyph-name="oslashacute" unicode="&#x1ff;" horiz-adv-x="1268" 
d="M1176 561q0 -186 -66 -316t-188.5 -197.5t-290.5 -67.5q-64 0 -122.5 11.5t-111.5 33.5l-67 -101l-154 105l68 100q-73 75 -112.5 183t-39.5 249q0 278 146 428t399 150q68 0 130.5 -13.5t117.5 -38.5l55 82l152 -108l-58 -84q68 -73 105 -177.5t37 -238.5zM403 561
q0 -49 5 -90.5t14 -75.5l317 475q-21 11 -48 17t-58 6q-121 0 -175.5 -83t-54.5 -249zM864 561q0 40 -3 75.5t-9 65.5l-309 -462q20 -8 43 -11.5t49 -3.5q81 0 131.5 38t74 113t23.5 185zM1030 1569v-21q-29 -28 -76 -69t-101 -85.5t-106 -85t-91 -67.5h-203v27
q33 38 76.5 90.5t86.5 108.5t72 102h342z" />
    <glyph glyph-name="uni0218" unicode="&#x218;" horiz-adv-x="1128" 
d="M1047 406q0 -130 -63 -226t-183.5 -148t-292.5 -52q-76 0 -148.5 10t-139 29.5t-126.5 48.5v288q104 -46 216 -83t222 -37q76 0 122.5 20t67.5 55t21 80q0 55 -37 94t-101.5 73t-145.5 73q-51 24 -111 58.5t-114 84.5t-88.5 121.5t-34.5 171.5q0 131 60 224t171.5 142.5
t263.5 49.5q114 0 217.5 -26.5t216.5 -76.5l-100 -241q-101 41 -181 63.5t-163 22.5q-58 0 -99 -18.5t-62 -52t-21 -77.5q0 -52 30.5 -87.5t92 -68.5t153.5 -77q112 -53 191.5 -110.5t122.5 -135t43 -192.5zM721 -125v-20q-20 -45 -45.5 -95.5t-55.5 -104t-65 -108.5h-178
v27q12 40 24 93.5t22.5 108.5t15.5 99h282z" />
    <glyph glyph-name="uni0219" unicode="&#x219;" horiz-adv-x="1018" 
d="M940 332q0 -114 -53.5 -192.5t-159.5 -119t-264 -40.5q-117 0 -200.5 15t-168.5 50v252q91 -41 195.5 -67.5t183.5 -26.5q89 0 127.5 26.5t38.5 69.5q0 28 -15.5 50.5t-66.5 51t-160 74.5q-105 44 -172.5 89t-100 106.5t-32.5 156.5q0 155 120.5 233.5t322.5 78.5
q104 0 198.5 -21t194.5 -67l-92 -220q-83 36 -156.5 59t-149.5 23q-67 0 -101 -18t-34 -55q0 -27 17.5 -48t68 -46.5t148.5 -65.5q95 -39 165 -81.5t108 -105t38 -161.5zM683 -125v-20q-20 -45 -45.5 -95.5t-55.5 -104t-65 -108.5h-178v27q12 40 24 93.5t22.5 108.5t15.5 99
h282z" />
    <glyph glyph-name="circumflex" unicode="&#x2c6;" horiz-adv-x="1032" 
d="M694 1569q29 -46 75.5 -102t95.5 -109t85 -90v-27h-202q-54 32 -117.5 76.5t-116.5 99.5q-54 -55 -115 -98.5t-114 -77.5h-203v27q38 38 87 90.5t95 108.5t74 102h356z" />
    <glyph glyph-name="caron" unicode="&#x2c7;" horiz-adv-x="1032" 
d="M338 1241q-28 46 -74 101.5t-95 108.5t-87 91v27h203q53 -34 114 -77.5t115 -98.5q53 55 116.5 99.5t117.5 76.5h202v-27q-36 -37 -85 -90t-95.5 -109t-75.5 -102h-356z" />
    <glyph glyph-name="macron" unicode="&#x2c9;" horiz-adv-x="842" 
d="M760 1452v-211h-678v211h678z" />
    <glyph glyph-name="breve" unicode="&#x2d8;" horiz-adv-x="950" 
d="M868 1579q-7 -99 -58.5 -175.5t-138 -119.5t-200.5 -43q-176 0 -278.5 92t-110.5 246h170q5 -57 35.5 -83.5t79 -34t106.5 -7.5q48 0 97 9t83.5 36t40.5 80h174z" />
    <glyph glyph-name="dotaccent" unicode="&#x2d9;" horiz-adv-x="496" 
d="M248 1556q68 0 117 -31.5t49 -117.5q0 -85 -49 -117.5t-117 -32.5q-69 0 -117.5 32.5t-48.5 117.5q0 86 48.5 117.5t117.5 31.5z" />
    <glyph glyph-name="ring" unicode="&#x2da;" horiz-adv-x="666" 
d="M330 1239q-111 0 -179.5 63.5t-68.5 174.5q0 110 68.5 173.5t179.5 63.5q106 0 180 -63t74 -172q0 -112 -73.5 -176t-180.5 -64zM330 1380q41 0 68.5 26t27.5 71q0 44 -27.5 70t-68.5 26q-42 0 -69.5 -26t-27.5 -70q0 -45 24.5 -71t72.5 -26z" />
    <glyph glyph-name="ogonek" unicode="&#x2db;" horiz-adv-x="569" 
d="M293 -227q0 -42 22.5 -62t57.5 -20q32 0 63.5 6t50.5 12v-178q-32 -9 -69 -16t-86 -7q-115 0 -182.5 64.5t-67.5 165.5q0 60 30 114.5t81 101t114 81.5l133 -35q-69 -66 -108 -120.5t-39 -106.5z" />
    <glyph glyph-name="tilde" unicode="&#x2dc;" horiz-adv-x="993" 
d="M82 1239q6 80 29 138.5t60 96t83.5 56t99.5 18.5q41 0 80.5 -15.5t78 -36.5t76 -36.5t73.5 -15.5q30 0 58.5 26.5t41.5 79.5h149q-12 -158 -90 -233.5t-182 -75.5q-41 0 -80.5 16t-78 36.5t-75.5 36.5t-73 16q-31 0 -59.5 -26.5t-41.5 -80.5h-149z" />
    <glyph glyph-name="hungarumlaut" unicode="&#x2dd;" horiz-adv-x="1057" 
d="M975 1569v-21q-16 -27 -55.5 -67t-90 -85t-100.5 -86t-88 -69h-162v27q29 39 65.5 92t71.5 108t58 101h301zM578 1569v-21q-16 -27 -55.5 -67t-90 -85t-100.5 -86t-88 -69h-162v27q29 39 64.5 92t70.5 108t59 101h302z" />
    <glyph glyph-name="tonos" unicode="&#x384;" horiz-adv-x="1182" 
d="M481 1241v31q12 36 24 81.5t23.5 94.5t20.5 96t14 86h283v-24q-22 -53 -51 -113t-63 -123.5t-73 -128.5h-178z" />
    <glyph glyph-name="dieresistonos" unicode="&#x385;" horiz-adv-x="1182" 
d="M827 1716v-20q-20 -45 -49 -96t-64 -104.5t-73 -106.5h-137v26q11 40 23.5 93.5t22.5 108.5t15 99h262zM332 1540q57 0 94 -32t37 -103q0 -67 -37 -100t-94 -33q-58 0 -93.5 33t-35.5 100q0 71 35.5 103t93.5 32zM881 1540q56 0 93.5 -32t37.5 -103q0 -67 -37.5 -100
t-93.5 -33q-60 0 -95.5 33t-35.5 100q0 71 35.5 103t95.5 32z" />
    <glyph glyph-name="Alphatonos" unicode="&#x386;" horiz-adv-x="1454" 
d="M1120 0l-106 348h-533l-106 -348h-334l516 1468h379l518 -1468h-334zM940 608l-106 340q-10 34 -26.5 87.5t-33 109t-26.5 96.5q-10 -41 -27.5 -101.5t-33.5 -114.5t-23 -77l-105 -340h381zM20 1145v31q12 36 24 81.5t23.5 94.5t20.5 96t14 86h283v-24q-22 -53 -51 -113
t-63 -123.5t-73 -128.5h-178z" />
    <glyph glyph-name="anoteleia" unicode="&#x387;" horiz-adv-x="584" 
d="M117 967q0 94 51.5 132t124.5 38q71 0 122.5 -38t51.5 -132q0 -90 -51.5 -130t-122.5 -40q-73 0 -124.5 40t-51.5 130z" />
    <glyph glyph-name="Epsilontonos" unicode="&#x388;" horiz-adv-x="1382" 
d="M1262 0h-842v1462h842v-254h-532v-321h495v-254h-495v-377h532v-256zM0 1145v31q12 36 24 81.5t23.5 94.5t20.5 96t14 86h283v-24q-22 -53 -51 -113t-63 -123.5t-73 -128.5h-178z" />
    <glyph glyph-name="Etatonos" unicode="&#x389;" horiz-adv-x="1802" 
d="M1618 0h-309v631h-579v-631h-310v1462h310v-573h579v573h309v-1462zM0 1145v31q12 36 24 81.5t23.5 94.5t20.5 96t14 86h283v-24q-22 -53 -51 -113t-63 -123.5t-73 -128.5h-178z" />
    <glyph glyph-name="Iotatonos" unicode="&#x38a;" horiz-adv-x="922" 
d="M428 0v1462h310v-1462h-310zM0 1145v31q12 36 24 81.5t23.5 94.5t20.5 96t14 86h283v-24q-22 -53 -51 -113t-63 -123.5t-73 -128.5h-178z" />
    <glyph glyph-name="Omicrontonos" unicode="&#x38c;" horiz-adv-x="1755" 
d="M1636 733q0 -169 -42 -307.5t-127.5 -238.5t-216.5 -153.5t-310 -53.5t-310 53.5t-216.5 153.5t-127.5 239t-42 309q0 227 74.5 395.5t229.5 261.5t394 93q238 0 391.5 -93t228 -262t74.5 -397zM569 733q0 -153 38.5 -263.5t120.5 -170t212 -59.5q132 0 214 59.5
t119.5 170t37.5 263.5q0 230 -86 362t-283 132q-131 0 -213.5 -59.5t-121 -170t-38.5 -264.5zM0 1145v31q12 36 24 81.5t23.5 94.5t20.5 96t14 86h283v-24q-22 -53 -51 -113t-63 -123.5t-73 -128.5h-178z" />
    <glyph glyph-name="Upsilontonos" unicode="&#x38e;" horiz-adv-x="1663" 
d="M1024 860l305 602h334l-485 -893v-569h-308v559l-485 903h336zM0 1145v31q12 36 24 81.5t23.5 94.5t20.5 96t14 86h283v-24q-22 -53 -51 -113t-63 -123.5t-73 -128.5h-178z" />
    <glyph glyph-name="Omegatonos" unicode="&#x38f;" horiz-adv-x="1772" 
d="M967 1227q-117 0 -201.5 -48t-130 -141.5t-45.5 -230.5q0 -118 24.5 -217t82.5 -177.5t159 -133.5v-279h-639v260h371q-96 59 -167.5 150t-110.5 208t-39 254q0 186 85 323.5t241 213.5t370 76t370 -76t241 -214t85 -325q0 -137 -39.5 -253.5t-111.5 -206.5t-170 -150
h374v-260h-643v279q103 53 162 132.5t84 180t25 217.5q0 136 -45.5 229t-130 141t-201.5 48zM0 1145v31q12 36 24 81.5t23.5 94.5t20.5 96t14 86h283v-24q-22 -53 -51 -113t-63 -123.5t-73 -128.5h-178z" />
    <glyph glyph-name="iotadieresistonos" unicode="&#x390;" horiz-adv-x="834" 
d="M465 1118v-768q0 -64 36.5 -95.5t96.5 -31.5q51 0 98 10t95 25v-227q-46 -22 -114.5 -36.5t-148.5 -14.5q-104 0 -187.5 32.5t-132 113t-48.5 224.5v768h305zM565 1716v-20q-20 -45 -49 -96t-64 -104.5t-73 -106.5h-137v26q11 40 23.5 93.5t22.5 108.5t15 99h262z
M70 1540q57 0 94 -32t37 -103q0 -67 -37 -100t-94 -33q-58 0 -93.5 33t-35.5 100q0 71 35.5 103t93.5 32zM619 1540q56 0 93.5 -32t37.5 -103q0 -67 -37.5 -100t-93.5 -33q-60 0 -95.5 33t-35.5 100q0 71 35.5 103t95.5 32z" />
    <glyph glyph-name="Alpha" unicode="&#x391;" horiz-adv-x="1413" 
d="M1079 0l-106 348h-533l-106 -348h-334l516 1468h379l518 -1468h-334zM899 608l-106 340q-10 34 -26.5 87.5t-33 109t-26.5 96.5q-10 -41 -27.5 -101.5t-33.5 -114.5t-23 -77l-105 -340h381z" />
    <glyph glyph-name="Beta" unicode="&#x392;" horiz-adv-x="1376" 
d="M184 1462h455q292 0 442 -82t150 -288q0 -83 -26.5 -150t-76.5 -110t-122 -56v-10q73 -15 132 -51.5t94.5 -106t35.5 -184.5q0 -133 -65 -228t-185.5 -145.5t-286.5 -50.5h-547v1462zM494 883h180q135 0 187 42.5t52 125.5q0 84 -61.5 120.5t-194.5 36.5h-163v-325z
M494 637v-381h202q140 0 195 54t55 145q0 54 -24 95t-80.5 64t-155.5 23h-192z" />
    <glyph glyph-name="Gamma" unicode="&#x393;" horiz-adv-x="1149" 
d="M1108 1462v-256h-614v-1206h-310v1462h924z" />
    <glyph glyph-name="uni0394" unicode="&#x394;" horiz-adv-x="1348" 
d="M850 1468l440 -1292v-176h-1233v178l443 1290h350zM975 258l-252 768q-5 15 -16.5 55.5t-21.5 80.5t-11 52q-1 -12 -11 -52t-21.5 -81t-16.5 -57l-252 -766h602z" />
    <glyph glyph-name="Epsilon" unicode="&#x395;" horiz-adv-x="1147" 
d="M1026 0h-842v1462h842v-254h-532v-321h495v-254h-495v-377h532v-256z" />
    <glyph glyph-name="Zeta" unicode="&#x396;" horiz-adv-x="1186" 
d="M1137 0h-1088v201l701 1005h-682v256h1050v-200l-700 -1006h719v-256z" />
    <glyph glyph-name="Eta" unicode="&#x397;" horiz-adv-x="1567" 
d="M1382 0h-309v631h-579v-631h-310v1462h310v-573h579v573h309v-1462z" />
    <glyph glyph-name="Theta" unicode="&#x398;" horiz-adv-x="1630" 
d="M1075 870v-254h-520v254h520zM1511 733q0 -169 -42 -307.5t-127.5 -238.5t-216.5 -153.5t-310 -53.5t-310 53.5t-216.5 153.5t-127.5 239t-42 309q0 227 74.5 395.5t229.5 261.5t394 93q238 0 391.5 -93t228 -262t74.5 -397zM444 733q0 -153 38.5 -263.5t120.5 -170
t212 -59.5q132 0 214 59.5t119.5 170t37.5 263.5q0 230 -86 362t-283 132q-131 0 -213.5 -59.5t-121 -170t-38.5 -264.5z" />
    <glyph glyph-name="Iota" unicode="&#x399;" horiz-adv-x="678" 
d="M184 0v1462h310v-1462h-310z" />
    <glyph glyph-name="Kappa" unicode="&#x39a;" horiz-adv-x="1360" 
d="M1360 0h-352l-383 616l-131 -94v-522h-310v1462h310v-669q31 43 61 86t61 86l396 497h344l-510 -647z" />
    <glyph glyph-name="Lambda" unicode="&#x39b;" horiz-adv-x="1331" 
d="M834 1462l497 -1462h-313l-273 879q-9 29 -25 91t-31.5 127.5t-22.5 104.5q-7 -42 -22 -107.5t-30 -126.5t-24 -91l-277 -877h-313l496 1462h338z" />
    <glyph glyph-name="Mu" unicode="&#x39c;" horiz-adv-x="1931" 
d="M803 0l-352 1147h-9q2 -41 6.5 -123.5t8.5 -175.5t4 -168v-680h-277v1462h422l346 -1118h6l367 1118h422v-1462h-289v692q0 69 2.5 159t6.5 171.5t6 122.5h-9l-377 -1145h-284z" />
    <glyph glyph-name="Nu" unicode="&#x39d;" horiz-adv-x="1665" 
d="M1481 0h-394l-636 1106h-9q4 -69 7 -139t6 -139.5t6 -139.5v-688h-277v1462h391l635 -1095h7q-2 68 -5 135t-5.5 134t-4.5 134v692h279v-1462z" />
    <glyph glyph-name="Xi" unicode="&#x39e;" horiz-adv-x="1169" 
d="M82 0v256h1005v-256h-1005zM205 633v254h760v-254h-760zM123 1208v254h924v-254h-924z" />
    <glyph glyph-name="Omicron" unicode="&#x39f;" horiz-adv-x="1630" 
d="M1511 733q0 -169 -42 -307.5t-127.5 -238.5t-216.5 -153.5t-310 -53.5t-310 53.5t-216.5 153.5t-127.5 239t-42 309q0 227 74.5 395.5t229.5 261.5t394 93q238 0 391.5 -93t228 -262t74.5 -397zM444 733q0 -153 38.5 -263.5t120.5 -170t212 -59.5q132 0 214 59.5
t119.5 170t37.5 263.5q0 230 -86 362t-283 132q-131 0 -213.5 -59.5t-121 -170t-38.5 -264.5z" />
    <glyph glyph-name="Pi" unicode="&#x3a0;" horiz-adv-x="1526" 
d="M184 0v1462h1157v-1462h-309v1204h-538v-1204h-310z" />
    <glyph glyph-name="Rho" unicode="&#x3a1;" horiz-adv-x="1286" 
d="M651 1462q283 0 413 -121.5t130 -334.5q0 -96 -29 -183.5t-94.5 -155.5t-174.5 -107.5t-269 -39.5h-133v-520h-310v1462h467zM635 1208h-141v-434h102q87 0 151 23t99 72t35 126q0 108 -60 160.5t-186 52.5z" />
    <glyph glyph-name="Sigma" unicode="&#x3a3;" horiz-adv-x="1214" 
d="M78 0v244l471 522l-459 459v237h995v-254h-440q-38 0 -75 1t-74.5 3.5t-75.5 6.5l454 -451l-477 -524q71 6 142 9t141 3h465v-256h-1067z" />
    <glyph glyph-name="Tau" unicode="&#x3a4;" horiz-adv-x="1186" 
d="M748 0h-310v1204h-397v258h1104v-258h-397v-1204z" />
    <glyph glyph-name="Upsilon" unicode="&#x3a5;" horiz-adv-x="1278" 
d="M639 860l305 602h334l-485 -893v-569h-308v559l-485 903h336z" />
    <glyph glyph-name="Phi" unicode="&#x3a6;" horiz-adv-x="1761" 
d="M1020 1483v-180q239 -6 381 -83t205 -198.5t63 -263.5q0 -93 -32 -189t-106.5 -177t-199.5 -132t-311 -55v-225h-279v225q-189 4 -314.5 55.5t-199 133t-104.5 177.5t-31 187q0 107 34.5 203t111 171.5t200.5 120.5t303 50v180h279zM741 1061q-133 -6 -211.5 -46
t-112.5 -105.5t-34 -149.5q0 -92 37.5 -161t117 -109t203.5 -46v617zM1020 1061v-617q125 6 204 46t116.5 109t37.5 161q0 84 -34 149.5t-112.5 105.5t-211.5 46z" />
    <glyph glyph-name="Chi" unicode="&#x3a7;" horiz-adv-x="1366" 
d="M1366 0h-354l-340 553l-340 -553h-332l485 754l-454 708h342l315 -526l309 526h334l-459 -725z" />
    <glyph glyph-name="Psi" unicode="&#x3a8;" horiz-adv-x="1794" 
d="M1686 1462v-479q0 -136 -33.5 -238.5t-108.5 -171t-200 -103t-308 -34.5v-436h-278v436q-187 0 -312.5 35.5t-199.5 104.5t-105.5 170.5t-31.5 232.5v483h290v-479q0 -120 39 -184t118.5 -88.5t201.5 -24.5v776h278v-776q111 0 191.5 23.5t124 86.5t43.5 183v483h291z
" />
    <glyph glyph-name="uni03A9" unicode="&#x3a9;" horiz-adv-x="1610" 
d="M805 1227q-117 0 -201.5 -48t-130 -141.5t-45.5 -230.5q0 -118 24.5 -217t82.5 -177.5t159 -133.5v-279h-639v260h371q-96 59 -167.5 150t-110.5 208t-39 254q0 186 85 323.5t241 213.5t370 76t370 -76t241 -214t85 -325q0 -137 -39.5 -253.5t-111.5 -206.5t-170 -150
h374v-260h-643v279q103 53 162 132.5t84 180t25 217.5q0 136 -45.5 229t-130 141t-201.5 48z" />
    <glyph glyph-name="Iotadieresis" unicode="&#x3aa;" horiz-adv-x="678" 
d="M184 0v1462h310v-1462h-310zM-4 1749q0 71 40.5 103t98.5 32q57 0 99 -32t42 -103q0 -67 -42 -100t-99 -33q-58 0 -98.5 33t-40.5 100zM399 1749q0 71 40.5 103t100.5 32q57 0 99.5 -32t42.5 -103q0 -67 -42.5 -100t-99.5 -33q-60 0 -100.5 33t-40.5 100z" />
    <glyph glyph-name="Upsilondieresis" unicode="&#x3ab;" horiz-adv-x="1278" 
d="M639 860l305 602h334l-485 -893v-569h-308v559l-485 903h336zM295 1749q0 71 40.5 103t98.5 32q57 0 99 -32t42 -103q0 -67 -42 -100t-99 -33q-58 0 -98.5 33t-40.5 100zM698 1749q0 71 40.5 103t100.5 32q57 0 99.5 -32t42.5 -103q0 -67 -42.5 -100t-99.5 -33
q-60 0 -100.5 33t-40.5 100z" />
    <glyph glyph-name="alphatonos" unicode="&#x3ac;" horiz-adv-x="1325" 
d="M623 223q84 0 133.5 34t71.5 105.5t24 182.5v12q0 163 -50 249.5t-184 86.5q-109 0 -162 -87t-53 -253q0 -164 54 -247t166 -83zM530 -20q-196 0 -317 146t-121 429q0 286 124.5 434t336.5 148q119 0 195 -42t126 -126h15q9 35 26 76.5t41 72.5h252q-15 -44 -31.5 -115.5
t-28 -158.5t-11.5 -178v-312q0 -69 25 -93.5t59 -24.5q14 0 33 3.5t26 6.5v-240q-10 -6 -34 -12t-52 -10t-51 -4q-103 0 -166 36t-98 131h-21q-30 -46 -74.5 -84t-107 -60.5t-146.5 -22.5zM542 1241v31q12 36 24 81.5t23.5 94.5t20.5 96t14 86h283v-24q-22 -53 -51 -113
t-63 -123.5t-73 -128.5h-178z" />
    <glyph glyph-name="epsilontonos" unicode="&#x3ad;" horiz-adv-x="1137" 
d="M840 688v-211h-168q-105 0 -169.5 -15.5t-94 -46t-29.5 -75.5q0 -37 26.5 -65t85.5 -44t156 -16q125 0 233.5 27t178.5 59v-244q-77 -35 -187 -56t-247 -21q-289 0 -418 89.5t-129 239.5q0 123 74.5 184.5t197.5 84.5v10q-107 25 -160 91.5t-53 166.5q0 107 66 171
t177 93t245 29q116 0 233 -23t203 -61l-94 -221q-74 30 -152.5 54.5t-181.5 24.5q-112 0 -167.5 -25t-55.5 -79q0 -66 67 -93.5t209 -27.5h154zM530 1241v31q12 36 24 81.5t23.5 94.5t20.5 96t14 86h283v-24q-22 -53 -51 -113t-63 -123.5t-73 -128.5h-178z" />
    <glyph glyph-name="etatonos" unicode="&#x3ae;" horiz-adv-x="1346" 
d="M795 1139q120 0 209 -42.5t138.5 -133t49.5 -234.5v-1221h-305v1145q0 120 -43.5 181t-136.5 61t-146 -42.5t-74.5 -125t-21.5 -201.5v-526h-305v1118h233l41 -143h17q36 58 89.5 94t119 53t135.5 17zM583 1241v31q12 36 24 81.5t23.5 94.5t20.5 96t14 86h283v-24
q-22 -53 -51 -113t-63 -123.5t-73 -128.5h-178z" />
    <glyph glyph-name="iotatonos" unicode="&#x3af;" horiz-adv-x="834" 
d="M465 1118v-768q0 -64 36.5 -95.5t96.5 -31.5q51 0 98 10t95 25v-227q-46 -22 -114.5 -36.5t-148.5 -14.5q-104 0 -187.5 32.5t-132 113t-48.5 224.5v768h305zM217 1241v31q12 36 24 81.5t23.5 94.5t20.5 96t14 86h283v-24q-22 -53 -51 -113t-63 -123.5t-73 -128.5h-178z
" />
    <glyph glyph-name="upsilondieresistonos" unicode="&#x3b0;" horiz-adv-x="1321" 
d="M657 -18q-200 0 -312 70t-157 190t-45 268v608h306v-618q0 -146 52.5 -210.5t166.5 -64.5q119 0 179 88t60 301q0 133 -19.5 251t-51.5 253h307q23 -89 38 -170t23 -163.5t8 -178.5q0 -322 -140.5 -473t-414.5 -151zM882 1716v-20q-20 -45 -49 -96t-64 -104.5t-73 -106.5
h-137v26q11 40 23.5 93.5t22.5 108.5t15 99h262zM387 1540q57 0 94 -32t37 -103q0 -67 -37 -100t-94 -33q-58 0 -93.5 33t-35.5 100q0 71 35.5 103t93.5 32zM936 1540q56 0 93.5 -32t37.5 -103q0 -67 -37.5 -100t-93.5 -33q-60 0 -95.5 33t-35.5 100q0 71 35.5 103t95.5 32z
" />
    <glyph glyph-name="alpha" unicode="&#x3b1;" horiz-adv-x="1325" 
d="M623 223q84 0 133.5 34t71.5 105.5t24 182.5v12q0 163 -50 249.5t-184 86.5q-109 0 -162 -87t-53 -253q0 -164 54 -247t166 -83zM530 -20q-196 0 -317 146t-121 429q0 286 124.5 434t336.5 148q119 0 195 -42t126 -126h15q9 35 26 76.5t41 72.5h252q-15 -44 -31.5 -115.5
t-28 -158.5t-11.5 -178v-312q0 -69 25 -93.5t59 -24.5q14 0 33 3.5t26 6.5v-240q-10 -6 -34 -12t-52 -10t-51 -4q-103 0 -166 36t-98 131h-21q-30 -46 -74.5 -84t-107 -60.5t-146.5 -22.5z" />
    <glyph glyph-name="beta" unicode="&#x3b2;" horiz-adv-x="1352" 
d="M694 1567q147 0 261 -43.5t179.5 -131t65.5 -218.5q0 -148 -76.5 -235t-216.5 -110v-6q174 -21 273.5 -113t99.5 -278q0 -143 -60.5 -244.5t-170.5 -154.5t-258 -53q-99 0 -181.5 16t-144.5 47v-535h-305v1588q0 165 70.5 269t191.5 153t272 49zM686 1329
q-60 0 -110.5 -22.5t-80.5 -79t-30 -160.5v-774q50 -32 120.5 -51t127.5 -19q128 0 190 62.5t62 173.5q0 84 -35 133.5t-94 70.5t-131 21h-72v242h53q107 0 158 58.5t51 152.5q0 97 -57.5 144.5t-151.5 47.5z" />
    <glyph glyph-name="gamma" unicode="&#x3b3;" horiz-adv-x="1163" 
d="M1163 1118l-413 -1100q-32 -82 -54 -174t-33.5 -179.5t-11.5 -156.5h-323q0 57 13 143t36 181.5t51 179.5l-426 1106h317l164 -493q19 -54 40 -129t38 -143.5t23 -104.5h6q3 31 16.5 91t33.5 132.5t42 138.5l164 508h317z" />
    <glyph glyph-name="delta" unicode="&#x3b4;" horiz-adv-x="1268" 
d="M702 1567q140 0 246 -30t215 -81l-121 -215q-91 44 -177.5 72t-174.5 28q-81 0 -114 -30t-33 -70q0 -36 30.5 -70.5t92 -73t153.5 -85.5q123 -62 202 -137.5t117 -165.5t38 -197q0 -183 -68 -301t-191 -174.5t-288 -56.5q-156 0 -277 53.5t-190.5 156t-69.5 248.5
q0 142 52 236.5t141.5 153t199.5 90.5q-62 40 -116.5 90.5t-87.5 113t-33 138.5q0 149 124.5 228t329.5 79zM664 793q-55 -15 -115 -54.5t-101.5 -109.5t-41.5 -178q0 -64 26 -115.5t76.5 -81t122.5 -29.5q74 0 126 30.5t79.5 90.5t27.5 146q0 106 -55 179t-145 122z" />
    <glyph glyph-name="epsilon" unicode="&#x3b5;" horiz-adv-x="1137" 
d="M840 688v-211h-168q-105 0 -169.5 -15.5t-94 -46t-29.5 -75.5q0 -37 26.5 -65t85.5 -44t156 -16q125 0 233.5 27t178.5 59v-244q-77 -35 -187 -56t-247 -21q-289 0 -418 89.5t-129 239.5q0 123 74.5 184.5t197.5 84.5v10q-107 25 -160 91.5t-53 166.5q0 107 66 171
t177 93t245 29q116 0 233 -23t203 -61l-94 -221q-74 30 -152.5 54.5t-181.5 24.5q-112 0 -167.5 -25t-55.5 -79q0 -66 67 -93.5t209 -27.5h154z" />
    <glyph glyph-name="zeta" unicode="&#x3b6;" horiz-adv-x="1020" 
d="M1010 -37q0 -89 -43.5 -180t-94.5 -162h-307q39 53 73 108t54.5 104t20.5 83q0 18 -13 33.5t-51.5 30t-116.5 28.5q-137 25 -235.5 81t-151.5 149.5t-53 228.5q0 131 45.5 250t125 228.5t182 210t217.5 194.5q-25 -6 -67.5 -10t-85.5 -5.5t-69 -1.5h-290v223h854v-182
q-203 -167 -323 -303t-179 -244.5t-77.5 -194t-18.5 -151.5q0 -99 34 -148t97 -70.5t149 -39.5q122 -24 193 -61.5t101 -87t30 -111.5z" />
    <glyph glyph-name="eta" unicode="&#x3b7;" horiz-adv-x="1346" 
d="M795 1139q120 0 209 -42.5t138.5 -133t49.5 -234.5v-1221h-305v1145q0 120 -43.5 181t-136.5 61t-146 -42.5t-74.5 -125t-21.5 -201.5v-526h-305v1118h233l41 -143h17q36 58 89.5 94t119 53t135.5 17z" />
    <glyph glyph-name="theta" unicode="&#x3b8;" horiz-adv-x="1266" 
d="M1174 774q0 -249 -54.5 -426.5t-173.5 -272.5t-315 -95q-274 0 -406.5 210.5t-132.5 583.5q0 249 53.5 426.5t172.5 272t313 94.5q273 0 408 -208t135 -585zM631 201q116 0 170.5 115.5t58.5 349.5h-457q4 -231 57 -348t171 -117zM633 1346q-115 0 -167 -113.5
t-60 -339.5h454q-7 226 -60.5 339.5t-166.5 113.5z" />
    <glyph glyph-name="iota" unicode="&#x3b9;" horiz-adv-x="834" 
d="M465 1118v-768q0 -64 36.5 -95.5t96.5 -31.5q51 0 98 10t95 25v-227q-46 -22 -114.5 -36.5t-148.5 -14.5q-104 0 -187.5 32.5t-132 113t-48.5 224.5v768h305z" />
    <glyph glyph-name="kappa" unicode="&#x3ba;" horiz-adv-x="1270" 
d="M1243 1118l-440 -512l467 -606h-348l-314 426l-143 -90v-336h-305v1118h305v-293l-2 -122t-4 -121h4q35 43 69.5 85t71.5 85l314 366h325z" />
    <glyph glyph-name="lambda" unicode="&#x3bb;" horiz-adv-x="1260" 
d="M8 0l473 1057l-35 92q-43 106 -92 135t-131 29q-28 0 -55 -4t-47 -9v252q19 5 48.5 8.5t61.5 6t56 2.5q130 0 213 -42t136.5 -122.5t94.5 -194.5l281 -772q31 -85 58 -128.5t54 -58.5t56 -15q15 0 33 3t36 7v-236q-16 -8 -48 -15t-67 -11t-61 -4q-83 0 -138.5 28
t-91.5 79.5t-61 119.5l-96 272q-12 33 -22.5 65.5t-20.5 63t-17.5 58l-13.5 49.5h-6q-15 -54 -35.5 -117t-40.5 -113l-206 -485h-316z" />
    <glyph glyph-name="uni03BC" unicode="&#x3bc;" horiz-adv-x="1352" 
d="M1192 1118v-1118h-231l-43 150h-15q-27 -56 -63 -94t-82 -57t-105 -19q-61 0 -110.5 23.5t-81.5 66.5h-6q3 -21 5 -64.5t3.5 -92t1.5 -85.5v-320h-305v1610h305v-653q0 -120 44 -181t138 -61q91 0 143.5 42.5t74.5 125t22 201.5v526h305z" />
    <glyph glyph-name="nu" unicode="&#x3bd;" horiz-adv-x="1219" 
d="M6 1118h313l218 -620q10 -31 23 -73.5t25.5 -84.5t20.5 -70h8q78 103 126 225t69.5 275.5t21.5 347.5h308q0 -221 -38 -410.5t-133.5 -362.5t-267.5 -345h-274z" />
    <glyph glyph-name="xi" unicode="&#x3be;" horiz-adv-x="1020" 
d="M92 438q0 90 36 161.5t99.5 124t147.5 85.5v10q-69 17 -118 50.5t-75 84t-26 119.5q0 73 30.5 125t94 88t163.5 60q-48 -3 -104.5 -6t-103 -5t-64.5 -2h-22v223h804v-210h-75q-83 0 -158.5 -16t-134.5 -47.5t-93 -79t-34 -111.5q0 -86 57.5 -131.5t218.5 -45.5h166v-210
h-168q-115 0 -187.5 -27.5t-106 -82t-33.5 -136.5q0 -88 34 -132.5t97 -65t149 -38.5q122 -24 193 -61.5t101 -87t30 -111.5q0 -89 -43.5 -180t-94.5 -162h-307q39 53 73 108t54.5 104t20.5 83q0 18 -13 33.5t-51.5 30t-116.5 28.5q-137 25 -235.5 79t-151.5 141.5
t-53 209.5z" />
    <glyph glyph-name="omicron" unicode="&#x3bf;" horiz-adv-x="1268" 
d="M1176 561q0 -140 -37.5 -248t-109 -182.5t-172 -112.5t-226.5 -38q-118 0 -216.5 38t-171 112.5t-112 182.5t-39.5 248q0 186 66 315t188 196t291 67q157 0 278.5 -67t191 -196t69.5 -315zM403 561q0 -110 24 -185t75 -113t133 -38q81 0 131.5 38t74 113t23.5 185
q0 111 -23.5 184.5t-74.5 110.5t-133 37q-121 0 -175.5 -83t-54.5 -249z" />
    <glyph glyph-name="pi" unicode="&#x3c0;" horiz-adv-x="1513" 
d="M1300 219q36 0 68.5 9.5t61.5 25.5v-219q-36 -22 -97.5 -38.5t-124.5 -16.5q-141 0 -224 77.5t-83 249.5v578h-338v-885h-305v885h-233v131l178 102h1239v-233h-236v-566q0 -50 27 -75t67 -25z" />
    <glyph glyph-name="rho" unicode="&#x3c1;" horiz-adv-x="1266" 
d="M1174 559q0 -185 -56.5 -314.5t-160.5 -197t-246 -67.5q-79 0 -152 21.5t-129 55.5h-18q5 -47 10.5 -125t5.5 -143v-281h-307v1053q0 184 62.5 313t181.5 197t288 68q151 0 268.5 -68t185 -197.5t67.5 -314.5zM647 893q-110 0 -164.5 -74t-54.5 -244v-264
q43 -43 101 -64.5t118 -21.5q114 0 163.5 78t49.5 256q0 179 -49.5 256.5t-163.5 77.5z" />
    <glyph glyph-name="uni03C2" unicode="&#x3c2;" horiz-adv-x="1020" 
d="M651 1139q92 0 183.5 -21t173.5 -59l-88 -232q-76 29 -145 47.5t-132 18.5q-126 0 -183 -98t-57 -293q0 -92 35.5 -140.5t99 -71.5t148.5 -42q122 -25 193 -64.5t101 -91.5t30 -115q0 -91 -43.5 -186.5t-94.5 -169.5h-307q39 56 73 114t54.5 110t20.5 87q0 19 -13 35.5
t-51.5 32.5t-116.5 31q-103 20 -184.5 58t-138.5 95.5t-87 134.5t-30 175q0 246 69.5 386.5t195.5 199.5t294 59z" />
    <glyph glyph-name="sigma" unicode="&#x3c3;" horiz-adv-x="1337" 
d="M1192 475q0 -140 -63 -252t-186.5 -177.5t-303.5 -65.5q-164 0 -287 64t-191.5 190t-68.5 311q0 206 76.5 332.5t218 184.5t336.5 58h573v-223h-284q74 -78 127 -180t53 -242zM406 545q0 -96 24.5 -168t76.5 -112t136 -40q125 0 180.5 82t55.5 215q0 82 -14.5 148
t-43 121.5t-69.5 105.5h-50q-154 0 -225 -77t-71 -275z" />
    <glyph glyph-name="tau" unicode="&#x3c4;" horiz-adv-x="1102" 
d="M1024 1118v-229h-397v-539q0 -64 36.5 -95.5t96.5 -31.5q50 0 97.5 10t94.5 25v-227q-46 -22 -114 -36.5t-148 -14.5q-104 0 -187.5 32.5t-132 113t-48.5 224.5v539h-281v127l176 102h807z" />
    <glyph glyph-name="upsilon" unicode="&#x3c5;" horiz-adv-x="1321" 
d="M657 -18q-200 0 -312 70t-157 190t-45 268v608h306v-618q0 -146 52.5 -210.5t166.5 -64.5q119 0 179 88t60 301q0 133 -19.5 251t-51.5 253h307q23 -89 38 -170t23 -163.5t8 -178.5q0 -322 -140.5 -473t-414.5 -151z" />
    <glyph glyph-name="phi" unicode="&#x3c6;" horiz-adv-x="1622" 
d="M322 1141l221 -144q-79 -106 -121.5 -210.5t-42.5 -239.5q0 -105 36 -172.5t97.5 -104t136.5 -51.5v516q0 197 113 298.5t287 101.5q149 0 256.5 -65.5t166 -187.5t58.5 -290q0 -191 -84 -320t-220 -199t-294 -85v-480h-283v480q-158 18 -284.5 80.5t-199.5 181
t-73 303.5q0 175 63.5 318.5t166.5 269.5zM1053 913q-57 0 -89 -39.5t-32 -136.5v-518q93 9 161.5 58t106 129.5t37.5 183.5q0 88 -17.5 161.5t-57.5 117.5t-109 44z" />
    <glyph glyph-name="chi" unicode="&#x3c7;" horiz-adv-x="1212" 
d="M240 1133q97 0 156 -30t97.5 -93t71.5 -164l74 -221l279 493h307l-455 -762l195 -475q20 -45 42.5 -70.5t51 -36t65.5 -10.5q22 0 45.5 3t55.5 10v-238q-43 -15 -86.5 -23t-108.5 -8q-90 0 -153 33t-107 98t-76 162l-104 326l-314 -619h-325l502 885l-134 352
q-27 77 -65.5 104.5t-85.5 27.5q-20 0 -50.5 -4t-64.5 -15v244q44 12 88.5 21.5t98.5 9.5z" />
    <glyph glyph-name="psi" unicode="&#x3c8;" horiz-adv-x="1714" 
d="M1008 1554v-1337q109 11 179 47t104 111t34 203q0 135 -22.5 266.5t-57.5 273.5h283q40 -144 59 -275.5t19 -267.5q0 -209 -80 -336.5t-215.5 -187.5t-302.5 -69v-474h-283v474q-170 6 -301.5 63.5t-206 181t-74.5 328.5v563h291v-571q0 -116 27.5 -186t91.5 -104
t172 -42v1339h283z" />
    <glyph glyph-name="omega" unicode="&#x3c9;" horiz-adv-x="1767" 
d="M1546 1118q39 -98 64 -188t37 -183.5t12 -203.5q0 -165 -50.5 -292t-150.5 -199t-250 -72q-130 0 -205.5 56.5t-113.5 153.5h-10q-39 -97 -114 -153.5t-206 -56.5q-149 0 -249.5 72t-150.5 199t-50 292q0 110 12 203.5t36.5 183.5t63.5 188h293q-64 -135 -94.5 -274
t-30.5 -291q0 -149 46 -242.5t149 -93.5q62 0 96.5 29t48.5 85t14 136v295h281v-295q0 -80 14.5 -136t49.5 -85t96 -29q69 0 111.5 42.5t62.5 117.5t20 172q0 151 -30 292.5t-95 276.5h293z" />
    <glyph glyph-name="iotadieresis" unicode="&#x3ca;" horiz-adv-x="834" 
d="M465 1118v-768q0 -64 36.5 -95.5t96.5 -31.5q51 0 98 10t95 25v-227q-46 -22 -114.5 -36.5t-148.5 -14.5q-104 0 -187.5 32.5t-132 113t-48.5 224.5v768h305zM-14 1405q0 71 40.5 103t98.5 32q57 0 99 -32t42 -103q0 -67 -42 -100t-99 -33q-58 0 -98.5 33t-40.5 100z
M389 1405q0 71 40.5 103t100.5 32q57 0 99.5 -32t42.5 -103q0 -67 -42.5 -100t-99.5 -33q-60 0 -100.5 33t-40.5 100z" />
    <glyph glyph-name="upsilondieresis" unicode="&#x3cb;" horiz-adv-x="1321" 
d="M657 -18q-200 0 -312 70t-157 190t-45 268v608h306v-618q0 -146 52.5 -210.5t166.5 -64.5q119 0 179 88t60 301q0 133 -19.5 251t-51.5 253h307q23 -89 38 -170t23 -163.5t8 -178.5q0 -322 -140.5 -473t-414.5 -151zM304 1405q0 71 40.5 103t98.5 32q57 0 99 -32t42 -103
q0 -67 -42 -100t-99 -33q-58 0 -98.5 33t-40.5 100zM707 1405q0 71 40.5 103t100.5 32q57 0 99.5 -32t42.5 -103q0 -67 -42.5 -100t-99.5 -33q-60 0 -100.5 33t-40.5 100z" />
    <glyph glyph-name="omicrontonos" unicode="&#x3cc;" horiz-adv-x="1268" 
d="M1176 561q0 -140 -37.5 -248t-109 -182.5t-172 -112.5t-226.5 -38q-118 0 -216.5 38t-171 112.5t-112 182.5t-39.5 248q0 186 66 315t188 196t291 67q157 0 278.5 -67t191 -196t69.5 -315zM403 561q0 -110 24 -185t75 -113t133 -38q81 0 131.5 38t74 113t23.5 185
q0 111 -23.5 184.5t-74.5 110.5t-133 37q-121 0 -175.5 -83t-54.5 -249zM522 1241v31q12 36 24 81.5t23.5 94.5t20.5 96t14 86h283v-24q-22 -53 -51 -113t-63 -123.5t-73 -128.5h-178z" />
    <glyph glyph-name="upsilontonos" unicode="&#x3cd;" horiz-adv-x="1321" 
d="M657 -18q-200 0 -312 70t-157 190t-45 268v608h306v-618q0 -146 52.5 -210.5t166.5 -64.5q119 0 179 88t60 301q0 133 -19.5 251t-51.5 253h307q23 -89 38 -170t23 -163.5t8 -178.5q0 -322 -140.5 -473t-414.5 -151zM534 1241v31q12 36 24 81.5t23.5 94.5t20.5 96t14 86
h283v-24q-22 -53 -51 -113t-63 -123.5t-73 -128.5h-178z" />
    <glyph glyph-name="omegatonos" unicode="&#x3ce;" horiz-adv-x="1767" 
d="M1546 1118q39 -98 64 -188t37 -183.5t12 -203.5q0 -165 -50.5 -292t-150.5 -199t-250 -72q-130 0 -205.5 56.5t-113.5 153.5h-10q-39 -97 -114 -153.5t-206 -56.5q-149 0 -249.5 72t-150.5 199t-50 292q0 110 12 203.5t36.5 183.5t63.5 188h293q-64 -135 -94.5 -274
t-30.5 -291q0 -149 46 -242.5t149 -93.5q62 0 96.5 29t48.5 85t14 136v295h281v-295q0 -80 14.5 -136t49.5 -85t96 -29q69 0 111.5 42.5t62.5 117.5t20 172q0 151 -30 292.5t-95 276.5h293zM780 1241v31q12 36 24 81.5t23.5 94.5t20.5 96t14 86h283v-24q-22 -53 -51 -113
t-63 -123.5t-73 -128.5h-178z" />
    <glyph glyph-name="uni0401" unicode="&#x401;" horiz-adv-x="1147" 
d="M1026 0h-842v1462h842v-254h-532v-321h495v-254h-495v-377h532v-256zM273 1749q0 71 40.5 103t98.5 32q57 0 99 -32t42 -103q0 -67 -42 -100t-99 -33q-58 0 -98.5 33t-40.5 100zM676 1749q0 71 40.5 103t100.5 32q57 0 99.5 -32t42.5 -103q0 -67 -42.5 -100t-99.5 -33
q-60 0 -100.5 33t-40.5 100z" />
    <glyph glyph-name="uni0402" unicode="&#x402;" horiz-adv-x="1649" 
d="M1133 -18q-52 0 -104.5 9.5t-98.5 28.5v256q46 -19 90.5 -31t81.5 -12q34 0 63 9t47.5 42t18.5 103v127q0 89 -41.5 124.5t-136.5 35.5h-336v-674h-309v1204h-367v258h1114v-258h-438v-272h348q230 0 352.5 -104t122.5 -291v-129q0 -208 -103 -317t-304 -109z" />
    <glyph glyph-name="uni0403" unicode="&#x403;" horiz-adv-x="1149" 
d="M1108 1462v-256h-614v-1206h-310v1462h924zM1060 1913v-21q-29 -28 -76 -69t-101 -85.5t-106 -85t-91 -67.5h-203v27q33 38 76.5 90.5t86.5 108.5t72 102h342z" />
    <glyph glyph-name="uni0404" unicode="&#x404;" horiz-adv-x="1386" 
d="M842 1225q-83 0 -153 -23.5t-122.5 -70t-83.5 -113.5t-37 -154h633v-254h-635q6 -89 34.5 -158t79 -117t122.5 -72.5t166 -24.5q98 0 197.5 20t216.5 57v-260q-105 -40 -206 -57.5t-227 -17.5q-243 0 -400 93.5t-232.5 262t-75.5 393.5q0 166 48 304t142 239t231.5 156
t315.5 55q131 0 241 -27.5t218 -75.5l-111 -252q-91 39 -173.5 68t-188.5 29z" />
    <glyph glyph-name="uni0405" unicode="&#x405;" horiz-adv-x="1128" 
d="M1047 406q0 -130 -63 -226t-183.5 -148t-292.5 -52q-76 0 -148.5 10t-139 29.5t-126.5 48.5v288q104 -46 216 -83t222 -37q76 0 122.5 20t67.5 55t21 80q0 55 -37 94t-101.5 73t-145.5 73q-51 24 -111 58.5t-114 84.5t-88.5 121.5t-34.5 171.5q0 131 60 224t171.5 142.5
t263.5 49.5q114 0 217.5 -26.5t216.5 -76.5l-100 -241q-101 41 -181 63.5t-163 22.5q-58 0 -99 -18.5t-62 -52t-21 -77.5q0 -52 30.5 -87.5t92 -68.5t153.5 -77q112 -53 191.5 -110.5t122.5 -135t43 -192.5z" />
    <glyph glyph-name="uni0406" unicode="&#x406;" horiz-adv-x="678" 
d="M184 0v1462h310v-1462h-310z" />
    <glyph glyph-name="uni0407" unicode="&#x407;" horiz-adv-x="678" 
d="M184 0v1462h310v-1462h-310zM-4 1749q0 71 40.5 103t98.5 32q57 0 99 -32t42 -103q0 -67 -42 -100t-99 -33q-58 0 -98.5 33t-40.5 100zM399 1749q0 71 40.5 103t100.5 32q57 0 99.5 -32t42.5 -103q0 -67 -42.5 -100t-99.5 -33q-60 0 -100.5 33t-40.5 100z" />
    <glyph glyph-name="uni0408" unicode="&#x408;" horiz-adv-x="678" 
d="M31 -430q-60 0 -105.5 6.5t-77.5 15.5v258q32 -7 68.5 -13.5t77.5 -6.5q54 0 97 20.5t68 77.5t25 164v1370h310v-1368q0 -188 -58.5 -303.5t-163 -168t-241.5 -52.5z" />
    <glyph glyph-name="uni0409" unicode="&#x409;" horiz-adv-x="2046" 
d="M164 -20q-41 0 -78.5 6t-69.5 16v254q26 -9 52 -14.5t57 -5.5q40 0 66.5 26.5t47.5 91t42 178.5q9 50 24 141.5t34 215t39.5 269.5t39.5 304h856v-561h115q195 0 320 -57t185 -157.5t60 -229.5q0 -217 -139.5 -337t-442.5 -120h-407v1204h-291q-9 -76 -20 -162.5
t-23 -177t-24.5 -178t-25.5 -165.5t-26 -140q-26 -128 -70.5 -217.5t-121 -136.5t-199.5 -47zM1274 254h94q126 0 199 45.5t73 157.5q0 78 -35.5 119t-101.5 56t-157 15h-72v-393z" />
    <glyph glyph-name="uni040A" unicode="&#x40a;" horiz-adv-x="2052" 
d="M184 0v1462h310v-573h477v573h309v-561h115q195 0 320 -57t185 -157.5t60 -229.5q0 -217 -139.5 -337t-442.5 -120h-407v631h-477v-631h-310zM1280 254h94q126 0 199.5 45.5t73.5 157.5q0 78 -36 119t-102 56t-157 15h-72v-393z" />
    <glyph glyph-name="uni040B" unicode="&#x40b;" horiz-adv-x="1649" 
d="M1155 1462v-258h-438v-272h385q207 0 322.5 -104t115.5 -291v-537h-309v514q0 89 -35 124.5t-115 35.5h-364v-674h-309v1204h-367v258h1114z" />
    <glyph glyph-name="uni040C" unicode="&#x40c;" horiz-adv-x="1376" 
d="M1376 0h-352l-530 741v-741h-310v1462h310v-708l524 708h330l-533 -702zM1140 1913v-21q-29 -28 -76 -69t-101 -85.5t-106 -85t-91 -67.5h-203v27q33 38 76.5 90.5t86.5 108.5t72 102h342z" />
    <glyph glyph-name="uni040E" unicode="&#x40e;" horiz-adv-x="1358" 
d="M1358 1462l-453 -1034q-61 -140 -130 -240.5t-175 -154t-278 -53.5q-54 0 -117 7.5t-117 22.5v266q50 -19 108.5 -27.5t110.5 -8.5q68 0 110 23t67 62t42 87l-506 1050h328l273 -633q9 -20 23.5 -53.5t29 -68t22.5 -60.5h11q8 25 21.5 60.5t28.5 73l27 67.5l254 614h320z
M1186 1943q-11 -106 -60 -187t-153 -126t-280 -45q-181 0 -282 43.5t-144 124t-52 190.5h273q9 -113 57 -149.5t154 -36.5q88 0 144 40t67 146h276z" />
    <glyph glyph-name="uni040F" unicode="&#x40f;" horiz-adv-x="1526" 
d="M1341 0h-428v-426h-299v426h-430v1462h310v-1204h538v1204h309v-1462z" />
    <glyph glyph-name="uni0410" unicode="&#x410;" horiz-adv-x="1413" 
d="M1079 0l-106 348h-533l-106 -348h-334l516 1468h379l518 -1468h-334zM899 608l-106 340q-10 34 -26.5 87.5t-33 109t-26.5 96.5q-10 -41 -27.5 -101.5t-33.5 -114.5t-23 -77l-105 -340h381z" />
    <glyph glyph-name="uni0411" unicode="&#x411;" horiz-adv-x="1307" 
d="M184 0v1462h924v-256h-614v-305h122q206 0 338.5 -57t196 -157.5t63.5 -229.5q0 -217 -144.5 -337t-459.5 -120h-426zM494 254h104q141 0 222 45.5t81 157.5q0 78 -39.5 119t-113 56t-175.5 15h-79v-393z" />
    <glyph glyph-name="uni0412" unicode="&#x412;" horiz-adv-x="1376" 
d="M184 1462h455q292 0 442 -82t150 -288q0 -83 -26.5 -150t-76.5 -110t-122 -56v-10q73 -15 132 -51.5t94.5 -106t35.5 -184.5q0 -133 -65 -228t-185.5 -145.5t-286.5 -50.5h-547v1462zM494 883h180q135 0 187 42.5t52 125.5q0 84 -61.5 120.5t-194.5 36.5h-163v-325z
M494 637v-381h202q140 0 195 54t55 145q0 54 -24 95t-80.5 64t-155.5 23h-192z" />
    <glyph glyph-name="uni0413" unicode="&#x413;" horiz-adv-x="1149" 
d="M1108 1462v-256h-614v-1206h-310v1462h924z" />
    <glyph glyph-name="uni0414" unicode="&#x414;" horiz-adv-x="1565" 
d="M1329 1462v-1204h195v-684h-299v426h-916v-426h-299v684h113q57 114 110 241t99 273t83 317t62 373h852zM1020 1204h-297q-15 -106 -41 -226t-61.5 -244.5t-79 -245.5t-92.5 -230h571v946z" />
    <glyph glyph-name="uni0415" unicode="&#x415;" horiz-adv-x="1147" 
d="M1026 0h-842v1462h842v-254h-532v-321h495v-254h-495v-377h532v-256z" />
    <glyph glyph-name="uni0416" unicode="&#x416;" horiz-adv-x="1931" 
d="M520 760l-491 702h319l473 -708v708h289v-708l473 708h320l-492 -702l520 -760h-332l-489 741v-741h-289v741l-489 -741h-332z" />
    <glyph glyph-name="uni0417" unicode="&#x417;" horiz-adv-x="1327" 
d="M1194 1120q0 -147 -105 -237t-266 -113v-6q200 -20 308 -111t108 -237q0 -128 -70 -226.5t-207 -154t-339 -55.5q-166 0 -294.5 20.5t-222.5 58.5v260q64 -30 143.5 -51.5t161.5 -33t152 -11.5q194 0 281.5 56t87.5 159q0 105 -127 153t-342 48h-137v242h123
q174 0 270.5 22.5t135 65t38.5 102.5q0 75 -67 119.5t-199 44.5q-114 0 -213 -32.5t-185 -86.5l-135 207q75 49 160.5 85t187.5 55.5t228 19.5q165 0 282 -47t179.5 -128.5t62.5 -187.5z" />
    <glyph glyph-name="uni0418" unicode="&#x418;" horiz-adv-x="1686" 
d="M184 1462h279v-706q0 -52 -1.5 -115t-4 -123.5t-4.5 -105.5t-4 -60h6l675 1110h371v-1462h-276v702q0 56 2 122t5.5 128t6.5 107.5t4 60.5h-8l-678 -1120h-373v1462z" />
    <glyph glyph-name="uni0419" unicode="&#x419;" horiz-adv-x="1686" 
d="M184 1462h279v-706q0 -52 -1.5 -115t-4 -123.5t-4.5 -105.5t-4 -60h6l675 1110h371v-1462h-276v702q0 56 2 122t5.5 128t6.5 107.5t4 60.5h-8l-678 -1120h-373v1462zM1362 1943q-11 -106 -60 -187t-153 -126t-280 -45q-181 0 -282 43.5t-144 124t-52 190.5h273
q9 -113 57 -149.5t154 -36.5q88 0 144 40t67 146h276z" />
    <glyph glyph-name="uni041A" unicode="&#x41a;" horiz-adv-x="1376" 
d="M1376 0h-352l-530 741v-741h-310v1462h310v-708l524 708h330l-533 -702z" />
    <glyph glyph-name="uni041B" unicode="&#x41b;" horiz-adv-x="1526" 
d="M1341 0h-309v1204h-358q-12 -94 -26 -205t-29 -224t-31.5 -215t-32.5 -179q-26 -128 -70.5 -217.5t-121 -136.5t-199.5 -47q-41 0 -78.5 6t-69.5 16v254q26 -9 52 -14.5t57 -5.5q40 0 66.5 26.5t47.5 91t42 178.5q9 50 24 141.5t34 215t39.5 269.5t39.5 304h923v-1462z
" />
    <glyph glyph-name="uni041C" unicode="&#x41c;" horiz-adv-x="1931" 
d="M803 0l-352 1147h-9q2 -41 6.5 -123.5t8.5 -175.5t4 -168v-680h-277v1462h422l346 -1118h6l367 1118h422v-1462h-289v692q0 69 2.5 159t6.5 171.5t6 122.5h-9l-377 -1145h-284z" />
    <glyph glyph-name="uni041D" unicode="&#x41d;" horiz-adv-x="1567" 
d="M1382 0h-309v631h-579v-631h-310v1462h310v-573h579v573h309v-1462z" />
    <glyph glyph-name="uni041E" unicode="&#x41e;" horiz-adv-x="1630" 
d="M1511 733q0 -169 -42 -307.5t-127.5 -238.5t-216.5 -153.5t-310 -53.5t-310 53.5t-216.5 153.5t-127.5 239t-42 309q0 227 74.5 395.5t229.5 261.5t394 93q238 0 391.5 -93t228 -262t74.5 -397zM444 733q0 -153 38.5 -263.5t120.5 -170t212 -59.5q132 0 214 59.5
t119.5 170t37.5 263.5q0 230 -86 362t-283 132q-131 0 -213.5 -59.5t-121 -170t-38.5 -264.5z" />
    <glyph glyph-name="uni041F" unicode="&#x41f;" horiz-adv-x="1526" 
d="M184 0v1462h1157v-1462h-309v1204h-538v-1204h-310z" />
    <glyph glyph-name="uni0420" unicode="&#x420;" horiz-adv-x="1286" 
d="M651 1462q283 0 413 -121.5t130 -334.5q0 -96 -29 -183.5t-94.5 -155.5t-174.5 -107.5t-269 -39.5h-133v-520h-310v1462h467zM635 1208h-141v-434h102q87 0 151 23t99 72t35 126q0 108 -60 160.5t-186 52.5z" />
    <glyph glyph-name="uni0421" unicode="&#x421;" horiz-adv-x="1305" 
d="M805 1225q-89 0 -157.5 -34.5t-115 -99.5t-70.5 -157t-24 -207q0 -155 38.5 -264.5t119.5 -167t209 -57.5q89 0 178.5 20t194.5 57v-260q-97 -40 -191 -57.5t-211 -17.5q-226 0 -371.5 93.5t-215.5 262t-70 393.5q0 166 45 304t132 239t215 156t294 55q109 0 218.5 -27.5
t209.5 -75.5l-100 -252q-82 39 -165 68t-163 29z" />
    <glyph glyph-name="uni0422" unicode="&#x422;" horiz-adv-x="1186" 
d="M748 0h-310v1204h-397v258h1104v-258h-397v-1204z" />
    <glyph glyph-name="uni0423" unicode="&#x423;" horiz-adv-x="1358" 
d="M1358 1462l-453 -1034q-61 -140 -130 -240.5t-175 -154t-278 -53.5q-54 0 -117 7.5t-117 22.5v266q50 -19 108.5 -27.5t110.5 -8.5q68 0 110 23t67 62t42 87l-506 1050h328l273 -633q9 -20 23.5 -53.5t29 -68t22.5 -60.5h11q8 25 21.5 60.5t28.5 73l27 67.5l254 614h320z
" />
    <glyph glyph-name="uni0424" unicode="&#x424;" horiz-adv-x="1761" 
d="M1020 1483v-180q239 -6 381 -83t205 -198.5t63 -263.5q0 -93 -32 -189t-106.5 -177t-199.5 -132t-311 -55v-225h-279v225q-189 4 -314.5 55.5t-199 133t-104.5 177.5t-31 187q0 107 34.5 203t111 171.5t200.5 120.5t303 50v180h279zM741 1061q-133 -6 -211.5 -46
t-112.5 -105.5t-34 -149.5q0 -92 37.5 -161t117 -109t203.5 -46v617zM1020 1061v-617q125 6 204 46t116.5 109t37.5 161q0 84 -34 149.5t-112.5 105.5t-211.5 46z" />
    <glyph glyph-name="uni0425" unicode="&#x425;" horiz-adv-x="1366" 
d="M1366 0h-354l-340 553l-340 -553h-332l485 754l-454 708h342l315 -526l309 526h334l-459 -725z" />
    <glyph glyph-name="uni0426" unicode="&#x426;" horiz-adv-x="1599" 
d="M1559 246v-672h-299v426h-1076v1462h310v-1204h538v1204h309v-1216h218z" />
    <glyph glyph-name="uni0427" unicode="&#x427;" horiz-adv-x="1491" 
d="M1307 0h-310v565q-129 -44 -236 -67t-216 -23q-206 0 -321 99.5t-115 283.5v604h309v-516q0 -106 49 -159.5t166 -53.5q86 0 172 18.5t192 55.5v655h310v-1462z" />
    <glyph glyph-name="uni0428" unicode="&#x428;" horiz-adv-x="2208" 
d="M2023 0h-1839v1462h310v-1204h454v1204h312v-1204h454v1204h309v-1462z" />
    <glyph glyph-name="uni0429" unicode="&#x429;" horiz-adv-x="2281" 
d="M2241 246v-672h-299v426h-1758v1462h310v-1204h454v1204h312v-1204h454v1204h309v-1216h218z" />
    <glyph glyph-name="uni042A" unicode="&#x42a;" horiz-adv-x="1489" 
d="M367 0v1204h-367v258h676v-561h123q206 0 338 -57t196 -157.5t64 -229.5q0 -217 -145 -337t-459 -120h-426zM676 254h104q142 0 222.5 45.5t80.5 157.5q0 78 -39.5 119t-113 56t-174.5 15h-80v-393z" />
    <glyph glyph-name="uni042B" unicode="&#x42b;" horiz-adv-x="1855" 
d="M184 0v1462h310v-561h100q203 0 333.5 -57t193.5 -157.5t63 -229.5q0 -217 -143.5 -337t-456.5 -120h-400zM494 254h81q137 0 216 45.5t79 157.5q0 78 -36 119t-105 56t-168 15h-67v-393zM1362 0v1462h309v-1462h-309z" />
    <glyph glyph-name="uni042C" unicode="&#x42c;" horiz-adv-x="1307" 
d="M184 0v1462h310v-561h122q206 0 338.5 -57t196 -157.5t63.5 -229.5q0 -217 -144.5 -337t-459.5 -120h-426zM494 254h104q141 0 222 45.5t81 157.5q0 78 -39.5 119t-113 56t-175.5 15h-79v-393z" />
    <glyph glyph-name="uni042D" unicode="&#x42d;" horiz-adv-x="1358" 
d="M553 1225q-98 0 -194.5 -28t-188.5 -67l-98 250q107 48 228 75.5t259 27.5q161 0 287.5 -50.5t214 -147.5t133 -237t45.5 -319q0 -225 -75.5 -393.5t-232.5 -262t-401 -93.5q-126 0 -226.5 17.5t-205.5 57.5v260q117 -37 216.5 -57t197.5 -20q94 0 166.5 23.5t123 70
t79 116t32.5 162.5h-634v254h632q-3 86 -29 152.5t-73 113.5t-111.5 71t-144.5 24z" />
    <glyph glyph-name="uni042E" unicode="&#x42e;" horiz-adv-x="2191" 
d="M2073 733q0 -169 -39.5 -307.5t-119.5 -238.5t-203 -153.5t-290 -53.5q-204 0 -342.5 80.5t-213.5 227t-91 343.5h-280v-631h-310v1462h310v-573h286q22 182 99 316t212.5 207t331.5 73q222 0 366 -93t214 -262t70 -397zM1092 733q0 -153 35 -263.5t108 -170t186 -59.5
q117 0 190.5 59.5t107.5 170t34 263.5q0 154 -34 264.5t-106.5 170t-187.5 59.5t-189 -59.5t-109 -170t-35 -264.5z" />
    <glyph glyph-name="uni042F" unicode="&#x42f;" horiz-adv-x="1362" 
d="M676 561l-342 -561h-344l416 643q-59 25 -118.5 73t-98.5 128.5t-39 199.5q0 203 145 310.5t407 107.5h476v-1462h-310v561h-192zM868 1208h-153q-80 0 -136.5 -19t-86 -59.5t-29.5 -107.5q0 -97 64 -153t196 -56h145v395z" />
    <glyph glyph-name="uni0430" unicode="&#x430;" horiz-adv-x="1237" 
d="M618 1141q225 0 345 -98t120 -298v-745h-213l-59 152h-8q-48 -60 -98 -98t-115 -56t-158 -18q-99 0 -177.5 38t-123.5 116.5t-45 199.5q0 178 125 262.5t375 93.5l194 6v49q0 88 -46 129t-128 41q-81 0 -159 -23t-156 -58l-101 206q89 47 199.5 74t228.5 27zM780 518
l-118 -4q-148 -4 -205.5 -53t-57.5 -129q0 -70 41 -99.5t107 -29.5q98 0 165.5 58t67.5 165v92z" />
    <glyph glyph-name="uni0431" unicode="&#x431;" horiz-adv-x="1274" 
d="M92 670q0 247 61 420t194 276.5t349 140.5q108 19 219.5 31.5t231.5 28.5l35 -267q-52 -6 -113 -13t-123 -14.5t-120 -15t-105 -14.5q-102 -16 -170 -50t-104 -108t-44 -213h15q24 38 68 77.5t109 66t150 26.5q134 0 232 -55t151.5 -163.5t53.5 -270.5
q0 -190 -69.5 -317.5t-192.5 -191.5t-285 -64q-124 0 -224 45t-171.5 133t-109.5 216.5t-38 295.5zM653 227q65 0 113.5 28.5t76 94t27.5 176.5q0 134 -44.5 212.5t-151.5 78.5q-65 0 -121.5 -31.5t-95.5 -72t-54 -68.5q0 -79 12.5 -153.5t40.5 -134.5t76.5 -95t120.5 -35z
" />
    <glyph glyph-name="uni0432" unicode="&#x432;" horiz-adv-x="1288" 
d="M1151 825q0 -90 -56.5 -153.5t-166.5 -81.5v-8q116 -14 187 -80.5t71 -167.5q0 -96 -50 -171.5t-159 -119t-285 -43.5h-532v1118h532q131 0 235 -27.5t164 -91.5t60 -174zM870 350q0 66 -51.5 95.5t-152.5 29.5h-201v-264h207q86 0 142 32t56 107zM842 801q0 52 -41 77
t-121 25h-215v-221h180q97 0 147 28t50 91z" />
    <glyph glyph-name="uni0433" unicode="&#x433;" horiz-adv-x="979" 
d="M932 1118v-229h-467v-889h-305v1118h772z" />
    <glyph glyph-name="uni0434" unicode="&#x434;" horiz-adv-x="1360" 
d="M1165 1118v-895h164v-624h-274v401h-752v-401h-274v624h94q74 113 124.5 258t82 307.5t45.5 329.5h790zM860 889h-229q-16 -124 -40.5 -239.5t-60.5 -222t-88 -204.5h418v666z" />
    <glyph glyph-name="uni0435" unicode="&#x435;" horiz-adv-x="1210" 
d="M621 1139q155 0 267 -59.5t173 -172.5t61 -276v-148h-721q5 -129 77.5 -202.5t201.5 -73.5q107 0 196 22t183 66v-236q-83 -41 -173.5 -60t-219.5 -19q-168 0 -297.5 62t-203 189t-73.5 320q0 196 66.5 326.5t185.5 196t277 65.5zM623 922q-89 0 -147.5 -57t-67.5 -179
h428q-1 68 -24.5 121t-70 84t-118.5 31z" />
    <glyph glyph-name="uni0436" unicode="&#x436;" horiz-adv-x="1788" 
d="M1749 1118l-412 -536l451 -582h-326l-426 567v-567h-284v567l-426 -567h-326l451 582l-412 536h315l398 -543v543h284v-543l398 543h315z" />
    <glyph glyph-name="uni0437" unicode="&#x437;" horiz-adv-x="1137" 
d="M567 1139q121 0 226 -31.5t170 -97t65 -168.5q0 -101 -61 -160.5t-162 -85.5v-10q71 -17 128.5 -46t91.5 -80t34 -134q0 -93 -59 -171.5t-180.5 -126.5t-311.5 -48q-90 0 -169.5 8t-145.5 23.5t-115 37.5v252q69 -32 170.5 -59t216.5 -27q83 0 150.5 12t107 40.5
t39.5 76.5q0 45 -34.5 74.5t-105 44t-178.5 14.5h-118v211h112q152 0 235 25t83 92q0 54 -53 81t-175 27q-79 0 -174 -18.5t-178 -52.5l-90 213q97 37 210.5 60.5t270.5 23.5z" />
    <glyph glyph-name="uni0438" unicode="&#x438;" horiz-adv-x="1475" 
d="M455 1118v-442q0 -34 -2.5 -85.5t-6.5 -104.5t-8 -95t-6 -57l516 784h367v-1118h-295v446q0 55 4 121.5t9 125.5t7 89l-514 -782h-366v1118h295z" />
    <glyph glyph-name="uni0439" unicode="&#x439;" horiz-adv-x="1475" 
d="M455 1118v-442q0 -34 -2.5 -85.5t-6.5 -104.5t-8 -95t-6 -57l516 784h367v-1118h-295v446q0 55 4 121.5t9 125.5t7 89l-514 -782h-366v1118h295zM1231 1599q-11 -106 -60 -187t-153 -126t-280 -45q-181 0 -282 43.5t-144 124t-52 190.5h273q9 -113 57 -149.5t154 -36.5
q88 0 144 40t67 146h276z" />
    <glyph glyph-name="uni043A" unicode="&#x43a;" horiz-adv-x="1268" 
d="M893 1118h336l-443 -536l482 -582h-346l-457 567v-567h-305v1118h305v-543z" />
    <glyph glyph-name="uni043B" unicode="&#x43b;" horiz-adv-x="1321" 
d="M1161 0h-305v889h-281q-21 -246 -50 -419t-74 -281.5t-112 -158.5t-165 -50q-54 0 -96.5 8t-77.5 24v244q22 -9 47 -14.5t51 -5.5q29 0 55 23t49 79.5t43.5 156.5t37.5 253t32 370h846v-1118z" />
    <glyph glyph-name="uni043C" unicode="&#x43c;" horiz-adv-x="1729" 
d="M1569 1118v-1118h-285v549q0 81 3 159t9 144h-6l-309 -852h-229l-314 854h-8q8 -67 11 -144t3 -169v-541h-284v1118h432l278 -758l283 758h416z" />
    <glyph glyph-name="uni043D" unicode="&#x43d;" horiz-adv-x="1356" 
d="M465 1118v-430h426v430h305v-1118h-305v461h-426v-461h-305v1118h305z" />
    <glyph glyph-name="uni043E" unicode="&#x43e;" horiz-adv-x="1268" 
d="M1176 561q0 -140 -37.5 -248t-109 -182.5t-172 -112.5t-226.5 -38q-118 0 -216.5 38t-171 112.5t-112 182.5t-39.5 248q0 186 66 315t188 196t291 67q157 0 278.5 -67t191 -196t69.5 -315zM403 561q0 -110 24 -185t75 -113t133 -38q81 0 131.5 38t74 113t23.5 185
q0 111 -23.5 184.5t-74.5 110.5t-133 37q-121 0 -175.5 -83t-54.5 -249z" />
    <glyph glyph-name="uni043F" unicode="&#x43f;" horiz-adv-x="1335" 
d="M1176 1118v-1118h-306v889h-405v-889h-305v1118h1016z" />
    <glyph glyph-name="uni0440" unicode="&#x440;" horiz-adv-x="1296" 
d="M782 1139q189 0 305.5 -147t116.5 -431q0 -190 -55 -319.5t-152 -195.5t-223 -66q-81 0 -139 20.5t-99 53t-71 69.5h-16q8 -40 12 -82t4 -82v-451h-305v1610h248l43 -145h14q30 45 73 83t103.5 60.5t140.5 22.5zM684 895q-80 0 -127 -33t-68.5 -99t-23.5 -167v-33
q0 -108 20.5 -183t69 -114t133.5 -39q70 0 115 39t67.5 114.5t22.5 184.5q0 164 -51 247t-158 83z" />
    <glyph glyph-name="uni0441" unicode="&#x441;" horiz-adv-x="1053" 
d="M614 -20q-166 0 -283 60.5t-178 187.5t-61 325q0 205 69.5 334.5t193 190.5t286.5 61q116 0 200.5 -22.5t147.5 -53.5l-90 -236q-72 29 -134 47.5t-124 18.5q-80 0 -133 -37.5t-79 -112.5t-26 -188q0 -111 28 -184t81 -108.5t129 -35.5q95 0 169 25.5t144 71.5v-261
q-70 -44 -146.5 -63.5t-193.5 -19.5z" />
    <glyph glyph-name="uni0442" unicode="&#x442;" horiz-adv-x="1133" 
d="M1085 889h-366v-889h-305v889h-367v229h1038v-229z" />
    <glyph glyph-name="uni0443" unicode="&#x443;" horiz-adv-x="1165" 
d="M0 1118h334l211 -629q10 -30 17 -61t12 -64t8 -69h6q6 54 16.5 101t26.5 93l207 629h327l-473 -1261q-43 -116 -112 -193.5t-158.5 -116.5t-196.5 -39q-52 0 -90 5.5t-65 11.5v242q21 -5 53 -9t67 -4q64 0 110 27t77 72.5t49 99.5l18 55z" />
    <glyph glyph-name="uni0444" unicode="&#x444;" horiz-adv-x="1667" 
d="M977 1556v-432q194 -16 327 -90.5t202 -196t69 -278.5q0 -156 -66.5 -278t-199 -197t-332.5 -92v-484h-283v484q-193 18 -327 93.5t-204.5 197t-70.5 276.5q0 160 65 282.5t198.5 196t338.5 86.5v432h283zM694 895q-89 -12 -153.5 -58t-99.5 -117.5t-35 -160.5
q0 -91 33.5 -162.5t98 -116.5t156.5 -57v672zM977 891v-668q91 12 154.5 57t97 116.5t33.5 162.5q0 134 -76.5 224.5t-208.5 107.5z" />
    <glyph glyph-name="uni0445" unicode="&#x445;" horiz-adv-x="1184" 
d="M389 571l-360 547h346l217 -356l219 356h346l-364 -547l381 -571h-347l-235 383l-236 -383h-346z" />
    <glyph glyph-name="uni0446" unicode="&#x446;" horiz-adv-x="1409" 
d="M1380 -401h-274v401h-946v1118h305v-889h446v889h306v-895h163v-624z" />
    <glyph glyph-name="uni0447" unicode="&#x447;" horiz-adv-x="1343" 
d="M428 1118v-409q0 -73 35.5 -109.5t99.5 -36.5q88 0 163.5 20t152.5 52v483h305v-1118h-305v444q-73 -38 -164.5 -70t-208.5 -32q-175 0 -279 89.5t-104 270.5v416h305z" />
    <glyph glyph-name="uni0448" unicode="&#x448;" horiz-adv-x="1985" 
d="M1825 1118v-1118h-1665v1118h305v-889h375v889h305v-889h375v889h305z" />
    <glyph glyph-name="uni0449" unicode="&#x449;" horiz-adv-x="2017" 
d="M1825 1118v-895h164v-624h-275v401h-1554v1118h305v-889h375v889h305v-889h375v889h305z" />
    <glyph glyph-name="uni044A" unicode="&#x44a;" horiz-adv-x="1454" 
d="M662 1118v-432h215q172 0 284 -36t166.5 -109.5t54.5 -184.5q0 -108 -50 -188t-158.5 -124t-284.5 -44h-533v889h-356v229h662zM870 475h-208v-264h212q89 0 146 32.5t57 108.5q0 65 -51.5 94t-155.5 29z" />
    <glyph glyph-name="uni044B" unicode="&#x44b;" horiz-adv-x="1741" 
d="M160 0v1118h305v-432h147q171 0 282.5 -36t165.5 -109.5t54 -184.5q0 -108 -50 -188t-158 -124t-283 -44h-463zM465 211h141q89 0 146 32.5t57 108.5q0 65 -52 94t-155 29h-137v-264zM1276 0v1118h305v-1118h-305z" />
    <glyph glyph-name="uni044C" unicode="&#x44c;" horiz-adv-x="1257" 
d="M465 686h215q172 0 284 -36t167 -109.5t55 -184.5q0 -108 -50 -188t-159 -124t-285 -44h-532v1118h305v-432zM881 352q0 65 -52 94t-155 29h-209v-264h213q89 0 146 32.5t57 108.5z" />
    <glyph glyph-name="uni044D" unicode="&#x44d;" horiz-adv-x="1049" 
d="M418 -20q-106 0 -189 16t-155 53v238q74 -34 156.5 -57t170.5 -23q70 0 121.5 26t82 82.5t36.5 147.5h-422v203h422q-7 124 -60.5 185.5t-154.5 61.5q-72 0 -138 -19t-122 -44l-86 209q65 29 158 54.5t200 25.5q147 0 264 -51t185.5 -174.5t68.5 -342.5q0 -201 -63 -332
t-183.5 -195t-291.5 -64z" />
    <glyph glyph-name="uni044E" unicode="&#x44e;" horiz-adv-x="1796" 
d="M1704 561q0 -186 -63.5 -316t-181 -197.5t-279.5 -67.5q-138 0 -247 52t-178 158.5t-89 270.5h-201v-461h-305v1118h305v-430h205q21 146 89.5 246.5t177.5 152.5t249 52q151 0 267.5 -67t183.5 -196t67 -315zM973 561q0 -110 21.5 -185t68 -113t121.5 -38q74 0 120 38
t67.5 113t21.5 185q0 111 -21.5 184.5t-68 110.5t-121.5 37q-74 0 -120 -37t-67.5 -110.5t-21.5 -184.5z" />
    <glyph glyph-name="uni044F" unicode="&#x44f;" horiz-adv-x="1214" 
d="M330 0h-330l301 442q-57 24 -107 66.5t-81 107.5t-31 156q0 167 126.5 256.5t326.5 89.5h520v-1118h-305v416h-168zM381 770q0 -70 55.5 -109.5t143.5 -39.5h170v282h-209q-82 0 -121 -39.5t-39 -93.5z" />
    <glyph glyph-name="uni0451" unicode="&#x451;" horiz-adv-x="1210" 
d="M621 1139q155 0 267 -59.5t173 -172.5t61 -276v-148h-721q5 -129 77.5 -202.5t201.5 -73.5q107 0 196 22t183 66v-236q-83 -41 -173.5 -60t-219.5 -19q-168 0 -297.5 62t-203 189t-73.5 320q0 196 66.5 326.5t185.5 196t277 65.5zM623 922q-89 0 -147.5 -57t-67.5 -179
h428q-1 68 -24.5 121t-70 84t-118.5 31zM263 1405q0 71 40.5 103t98.5 32q57 0 99 -32t42 -103q0 -67 -42 -100t-99 -33q-58 0 -98.5 33t-40.5 100zM666 1405q0 71 40.5 103t100.5 32q57 0 99.5 -32t42.5 -103q0 -67 -42.5 -100t-99.5 -33q-60 0 -100.5 33t-40.5 100z" />
    <glyph glyph-name="uni0452" unicode="&#x452;" horiz-adv-x="1346" 
d="M829 -492q-47 0 -98.5 7.5t-85.5 17.5v240q31 -10 58 -14.5t61 -4.5q50 0 86.5 34.5t36.5 135.5v690q0 110 -47 165t-133 55q-92 0 -145 -43t-75 -125t-22 -201v-465h-305v1196h-156v199h156v161h305v-161h315v-199h-315v-18q0 -83 -5.5 -158.5t-8.5 -106.5h18
q36 58 85 94t109 53t130 17q121 0 210.5 -42.5t139 -133t49.5 -233.5v-789q0 -102 -36 -186.5t-115.5 -134.5t-211.5 -50z" />
    <glyph glyph-name="uni0453" unicode="&#x453;" horiz-adv-x="979" 
d="M932 1118v-229h-467v-889h-305v1118h772zM954 1569v-21q-29 -28 -76 -69t-101 -85.5t-106 -85t-91 -67.5h-203v27q33 38 76.5 90.5t86.5 108.5t72 102h342z" />
    <glyph glyph-name="uni0454" unicode="&#x454;" horiz-adv-x="1073" 
d="M653 -20q-172 0 -298 59.5t-194.5 186t-68.5 327.5q0 223 69.5 351t195.5 181.5t294 53.5q92 0 183.5 -19.5t173.5 -54.5l-88 -217q-76 29 -145 47t-132 18q-69 0 -118 -27.5t-78 -82t-39 -137.5h421v-203h-421q9 -87 36.5 -143.5t75 -84.5t115.5 -28q98 0 177.5 22.5
t162.5 57.5v-234q-72 -37 -149.5 -55t-172.5 -18z" />
    <glyph glyph-name="uni0455" unicode="&#x455;" horiz-adv-x="1018" 
d="M940 332q0 -114 -53.5 -192.5t-159.5 -119t-264 -40.5q-117 0 -200.5 15t-168.5 50v252q91 -41 195.5 -67.5t183.5 -26.5q89 0 127.5 26.5t38.5 69.5q0 28 -15.5 50.5t-66.5 51t-160 74.5q-105 44 -172.5 89t-100 106.5t-32.5 156.5q0 155 120.5 233.5t322.5 78.5
q104 0 198.5 -21t194.5 -67l-92 -220q-83 36 -156.5 59t-149.5 23q-67 0 -101 -18t-34 -55q0 -27 17.5 -48t68 -46.5t148.5 -65.5q95 -39 165 -81.5t108 -105t38 -161.5z" />
    <glyph glyph-name="uni0456" unicode="&#x456;" horiz-adv-x="625" 
d="M465 1118v-1118h-305v1118h305zM313 1556q68 0 117 -31.5t49 -117.5q0 -85 -49 -117.5t-117 -32.5q-69 0 -117.5 32.5t-48.5 117.5q0 86 48.5 117.5t117.5 31.5z" />
    <glyph glyph-name="uni0457" unicode="&#x457;" horiz-adv-x="625" 
d="M465 0h-305v1118h305v-1118zM-30 1405q0 71 40.5 103t98.5 32q57 0 99 -32t42 -103q0 -67 -42 -100t-99 -33q-58 0 -98.5 33t-40.5 100zM373 1405q0 71 40.5 103t100.5 32q57 0 99.5 -32t42.5 -103q0 -67 -42.5 -100t-99.5 -33q-60 0 -100.5 33t-40.5 100z" />
    <glyph glyph-name="uni0458" unicode="&#x458;" horiz-adv-x="625" 
d="M70 -492q-52 0 -108 7.5t-93 17.5v240q37 -10 69.5 -14.5t73.5 -4.5q62 0 105 34.5t43 135.5v1194h305v-1239q0 -102 -39 -186.5t-126 -134.5t-230 -50zM147 1407q0 86 48.5 117.5t117.5 31.5q68 0 117 -31.5t49 -117.5q0 -85 -49 -117.5t-117 -32.5q-69 0 -117.5 32.5
t-48.5 117.5z" />
    <glyph glyph-name="uni0459" unicode="&#x459;" horiz-adv-x="1819" 
d="M1118 1118v-432h142q166 0 273.5 -36t160.5 -109.5t53 -184.5q0 -108 -48.5 -188t-154.5 -124t-278 -44h-453v889h-238q-21 -246 -50 -419t-74 -281.5t-112 -158.5t-165 -50q-54 0 -96.5 8t-77.5 24v244q22 -9 47 -14.5t51 -5.5q29 0 55 23t49 79.5t43.5 156.5t37.5 253
t32 370h803zM1247 475h-129v-264h133q83 0 137 32.5t54 108.5q0 65 -49 94t-146 29z" />
    <glyph glyph-name="uni045A" unicode="&#x45a;" horiz-adv-x="1819" 
d="M1118 1118v-432h142q166 0 273.5 -36t160.5 -109.5t53 -184.5q0 -108 -48.5 -188t-154.5 -124t-278 -44h-453v461h-348v-461h-305v1118h305v-430h348v430h305zM1247 475h-129v-264h133q83 0 137 32.5t54 108.5q0 65 -49 94t-146 29z" />
    <glyph glyph-name="uni045B" unicode="&#x45b;" horiz-adv-x="1346" 
d="M465 1556v-161h315v-199h-315v-18q0 -83 -5.5 -158.5t-8.5 -106.5h18q36 58 85 94t109 53t130 17q121 0 210.5 -42.5t139 -133t49.5 -233.5v-668h-305v592q0 120 -44 181t-136 61t-145 -43t-75 -125t-22 -201v-465h-305v1196h-156v199h156v161h305z" />
    <glyph glyph-name="uni045C" unicode="&#x45c;" horiz-adv-x="1268" 
d="M893 1118h336l-443 -536l482 -582h-346l-457 567v-567h-305v1118h305v-543zM1067 1569v-21q-29 -28 -76 -69t-101 -85.5t-106 -85t-91 -67.5h-203v27q33 38 76.5 90.5t86.5 108.5t72 102h342z" />
    <glyph glyph-name="uni045E" unicode="&#x45e;" horiz-adv-x="1165" 
d="M0 1118h334l211 -629q10 -30 17 -61t12 -64t8 -69h6q6 54 16.5 101t26.5 93l207 629h327l-473 -1261q-43 -116 -112 -193.5t-158.5 -116.5t-196.5 -39q-52 0 -90 5.5t-65 11.5v242q21 -5 53 -9t67 -4q64 0 110 27t77 72.5t49 99.5l18 55zM1077 1599q-11 -106 -60 -187
t-153 -126t-280 -45q-181 0 -282 43.5t-144 124t-52 190.5h273q9 -113 57 -149.5t154 -36.5q88 0 144 40t67 146h276z" />
    <glyph glyph-name="uni045F" unicode="&#x45f;" horiz-adv-x="1376" 
d="M551 0h-391v1118h305v-889h446v889h306v-1118h-392v-401h-274v401z" />
    <glyph glyph-name="uni0490" unicode="&#x490;" horiz-adv-x="1190" 
d="M1149 1772v-566h-655v-1206h-310v1462h697v310h268z" />
    <glyph glyph-name="uni0491" unicode="&#x491;" horiz-adv-x="1049" 
d="M975 1423v-534h-510v-889h-305v1118h540v305h275z" />
    <glyph glyph-name="Wgrave" unicode="&#x1e80;" horiz-adv-x="1980" 
d="M1980 1462l-372 -1462h-353l-198 768q-6 22 -16 67t-21 98.5t-19.5 101t-11.5 75.5q-3 -28 -11.5 -75t-19 -100t-20.5 -99t-16 -70l-197 -766h-352l-373 1462h305l187 -798q8 -36 18.5 -86t21 -104.5t19 -105t12.5 -87.5q5 38 13 88.5t17.5 103t19.5 97.5t18 73l213 819
h293l213 -819q7 -27 16.5 -72.5t19.5 -98.5t18.5 -103.5t12.5 -87.5q7 50 19.5 121.5t27 142.5t25.5 119l186 798h305zM942 1913q30 -46 72.5 -102t86.5 -108.5t76 -90.5v-27h-202q-39 27 -91 67.5t-106.5 85t-101.5 85.5t-76 69v21h342z" />
    <glyph glyph-name="wgrave" unicode="&#x1e81;" horiz-adv-x="1753" 
d="M1079 0l-86 391q-7 35 -23 103.5t-34.5 147t-34 145.5t-22.5 98h-9q-7 -31 -22 -98t-33.5 -146t-34.5 -148.5t-24 -105.5l-90 -387h-328l-318 1118h304l129 -495q13 -52 25 -123.5t21.5 -138t14.5 -105.5h8q2 29 8.5 77t15 99.5t16 93t11.5 56.5l138 536h336l131 -536
q7 -29 18.5 -92t20.5 -129.5t10 -104.5h8q4 34 14 101t23.5 140.5t27.5 125.5l134 495h299l-322 -1118h-332zM827 1569q30 -46 72.5 -102t86.5 -108.5t76 -90.5v-27h-202q-39 27 -91 67.5t-106.5 85t-101.5 85.5t-76 69v21h342z" />
    <glyph glyph-name="Wacute" unicode="&#x1e82;" horiz-adv-x="1980" 
d="M1980 1462l-372 -1462h-353l-198 768q-6 22 -16 67t-21 98.5t-19.5 101t-11.5 75.5q-3 -28 -11.5 -75t-19 -100t-20.5 -99t-16 -70l-197 -766h-352l-373 1462h305l187 -798q8 -36 18.5 -86t21 -104.5t19 -105t12.5 -87.5q5 38 13 88.5t17.5 103t19.5 97.5t18 73l213 819
h293l213 -819q7 -27 16.5 -72.5t19.5 -98.5t18.5 -103.5t12.5 -87.5q7 50 19.5 121.5t27 142.5t25.5 119l186 798h305zM1384 1913v-21q-29 -28 -76 -69t-101 -85.5t-106 -85t-91 -67.5h-203v27q33 38 76.5 90.5t86.5 108.5t72 102h342z" />
    <glyph glyph-name="wacute" unicode="&#x1e83;" horiz-adv-x="1753" 
d="M1079 0l-86 391q-7 35 -23 103.5t-34.5 147t-34 145.5t-22.5 98h-9q-7 -31 -22 -98t-33.5 -146t-34.5 -148.5t-24 -105.5l-90 -387h-328l-318 1118h304l129 -495q13 -52 25 -123.5t21.5 -138t14.5 -105.5h8q2 29 8.5 77t15 99.5t16 93t11.5 56.5l138 536h336l131 -536
q7 -29 18.5 -92t20.5 -129.5t10 -104.5h8q4 34 14 101t23.5 140.5t27.5 125.5l134 495h299l-322 -1118h-332zM1269 1569v-21q-29 -28 -76 -69t-101 -85.5t-106 -85t-91 -67.5h-203v27q33 38 76.5 90.5t86.5 108.5t72 102h342z" />
    <glyph glyph-name="Wdieresis" unicode="&#x1e84;" horiz-adv-x="1980" 
d="M1980 1462l-372 -1462h-353l-198 768q-6 22 -16 67t-21 98.5t-19.5 101t-11.5 75.5q-3 -28 -11.5 -75t-19 -100t-20.5 -99t-16 -70l-197 -766h-352l-373 1462h305l187 -798q8 -36 18.5 -86t21 -104.5t19 -105t12.5 -87.5q5 38 13 88.5t17.5 103t19.5 97.5t18 73l213 819
h293l213 -819q7 -27 16.5 -72.5t19.5 -98.5t18.5 -103.5t12.5 -87.5q7 50 19.5 121.5t27 142.5t25.5 119l186 798h305zM648 1749q0 71 40.5 103t98.5 32q57 0 99 -32t42 -103q0 -67 -42 -100t-99 -33q-58 0 -98.5 33t-40.5 100zM1051 1749q0 71 40.5 103t100.5 32
q57 0 99.5 -32t42.5 -103q0 -67 -42.5 -100t-99.5 -33q-60 0 -100.5 33t-40.5 100z" />
    <glyph glyph-name="wdieresis" unicode="&#x1e85;" horiz-adv-x="1753" 
d="M1079 0l-86 391q-7 35 -23 103.5t-34.5 147t-34 145.5t-22.5 98h-9q-7 -31 -22 -98t-33.5 -146t-34.5 -148.5t-24 -105.5l-90 -387h-328l-318 1118h304l129 -495q13 -52 25 -123.5t21.5 -138t14.5 -105.5h8q2 29 8.5 77t15 99.5t16 93t11.5 56.5l138 536h336l131 -536
q7 -29 18.5 -92t20.5 -129.5t10 -104.5h8q4 34 14 101t23.5 140.5t27.5 125.5l134 495h299l-322 -1118h-332zM533 1405q0 71 40.5 103t98.5 32q57 0 99 -32t42 -103q0 -67 -42 -100t-99 -33q-58 0 -98.5 33t-40.5 100zM936 1405q0 71 40.5 103t100.5 32q57 0 99.5 -32
t42.5 -103q0 -67 -42.5 -100t-99.5 -33q-60 0 -100.5 33t-40.5 100z" />
    <glyph glyph-name="Ygrave" unicode="&#x1ef2;" horiz-adv-x="1278" 
d="M639 860l305 602h334l-485 -893v-569h-308v559l-485 903h336zM590 1913q30 -46 72.5 -102t86.5 -108.5t76 -90.5v-27h-202q-39 27 -91 67.5t-106.5 85t-101.5 85.5t-76 69v21h342z" />
    <glyph glyph-name="ygrave" unicode="&#x1ef3;" horiz-adv-x="1165" 
d="M0 1118h334l211 -629q10 -30 17 -61t12 -64t8 -69h6q6 54 16.5 101t26.5 93l207 629h327l-473 -1261q-43 -116 -112 -193.5t-158.5 -116.5t-196.5 -39q-52 0 -90 5.5t-65 11.5v242q21 -5 53 -9t67 -4q64 0 110 27t77 72.5t49 99.5l18 55zM535 1569q30 -46 72.5 -102
t86.5 -108.5t76 -90.5v-27h-202q-39 27 -91 67.5t-106.5 85t-101.5 85.5t-76 69v21h342z" />
    <glyph glyph-name="endash" unicode="&#x2013;" horiz-adv-x="1024" 
d="M82 436v230h860v-230h-860z" />
    <glyph glyph-name="emdash" unicode="&#x2014;" horiz-adv-x="2048" 
d="M82 436v230h1884v-230h-1884z" />
    <glyph glyph-name="uni2015" unicode="&#x2015;" horiz-adv-x="2048" 
d="M82 436v230h1884v-230h-1884z" />
    <glyph glyph-name="underscoredbl" unicode="&#x2017;" horiz-adv-x="842" 
d="M846 -463h-850v139h850v-139zM846 -184h-850v139h850v-139z" />
    <glyph glyph-name="quoteleft" unicode="&#x2018;" horiz-adv-x="444" 
d="M39 961l-14 22q18 73 46.5 155.5t62 166t67.5 157.5h219q-19 -81 -38.5 -170t-35.5 -174.5t-27 -156.5h-280z" />
    <glyph glyph-name="quoteright" unicode="&#x2019;" horiz-adv-x="444" 
d="M406 1462l14 -22q-18 -73 -46.5 -155.5t-62 -165.5t-67.5 -158h-219q14 60 28.5 126t28 132t24.5 128t19 115h281z" />
    <glyph glyph-name="quotesinglbase" unicode="&#x201a;" horiz-adv-x="584" 
d="M445 237l14 -22q-18 -73 -46.5 -155.5t-62 -165.5t-67.5 -158h-219q14 60 28.5 126t28 132t24.5 128t19 115h281z" />
    <glyph glyph-name="quotereversed" unicode="&#x201b;" horiz-adv-x="444" 
d="M319 1462q11 -70 27 -156t35.5 -175t38.5 -170h-219q-34 75 -67.5 158t-62 165.5t-46.5 155.5l14 22h280z" />
    <glyph glyph-name="quotedblleft" unicode="&#x201c;" horiz-adv-x="911" 
d="M887 1462q-19 -81 -38.5 -170t-35.5 -174.5t-27 -156.5h-280l-14 22q18 73 46.5 155.5t62 166t67.5 157.5h219zM420 1462q-19 -81 -38.5 -170t-35.5 -174.5t-27 -156.5h-280l-14 22q18 73 46.5 155.5t62 166t67.5 157.5h219z" />
    <glyph glyph-name="quotedblright" unicode="&#x201d;" horiz-adv-x="911" 
d="M872 1462l15 -22q-18 -73 -47 -155.5t-62 -165.5t-67 -158h-219q19 81 38 170t35.5 175t26.5 156h280zM406 1462l14 -22q-18 -73 -46.5 -155.5t-62 -165.5t-67.5 -158h-219q14 60 28.5 126t28 132t24.5 128t19 115h281z" />
    <glyph glyph-name="quotedblbase" unicode="&#x201e;" horiz-adv-x="1051" 
d="M911 237l15 -22q-18 -73 -47 -155.5t-62 -165.5t-67 -158h-219q19 81 38 170t35.5 175t26.5 156h280zM445 237l14 -22q-18 -73 -46.5 -155.5t-62 -165.5t-67.5 -158h-219q14 60 28.5 126t28 132t24.5 128t19 115h281z" />
    <glyph glyph-name="dagger" unicode="&#x2020;" horiz-adv-x="1057" 
d="M934 928l-332 30l55 -958h-278l55 958l-311 -30v241l311 -30l-55 417h278l-55 -417l332 30v-241z" />
    <glyph glyph-name="daggerdbl" unicode="&#x2021;" horiz-adv-x="1057" 
d="M612 557l332 31v-242l-332 31l56 -377h-279l55 377l-331 -31v242l331 -31l-47 229l47 213l-331 -30v241l331 -30l-55 376h279l-56 -376l332 30v-241l-332 30l47 -213z" />
    <glyph glyph-name="bullet" unicode="&#x2022;" horiz-adv-x="770" 
d="M98 748q0 115 38 184.5t103 101t146 31.5q79 0 144 -31.5t104 -101t39 -184.5q0 -113 -39 -183t-104 -102.5t-144 -32.5q-81 0 -146 32.5t-103 102.5t-38 183z" />
    <glyph glyph-name="ellipsis" unicode="&#x2026;" horiz-adv-x="1751" 
d="M117 143q0 94 51.5 132t124.5 38q71 0 122.5 -38t51.5 -132q0 -90 -51.5 -130t-122.5 -40q-73 0 -124.5 40t-51.5 130zM701 143q0 94 51.5 132t124.5 38q71 0 122.5 -38t51.5 -132q0 -90 -51.5 -130t-122.5 -40q-73 0 -124.5 40t-51.5 130zM1284 143q0 94 51.5 132
t124.5 38q71 0 122.5 -38t51.5 -132q0 -90 -51.5 -130t-122.5 -40q-73 0 -124.5 40t-51.5 130z" />
    <glyph glyph-name="perthousand" unicode="&#x2030;" horiz-adv-x="2623" 
d="M408 1483q172 0 261 -120t89 -337t-84 -339t-266 -122q-169 0 -257 122t-88 339t82.5 337t262.5 120zM410 1274q-49 0 -72 -62t-23 -188t23 -189t72 -63t72.5 62.5t23.5 189.5q0 126 -23.5 188t-72.5 62zM1446 1462l-811 -1462h-240l811 1462h240zM1432 899
q172 0 261 -120t89 -337q0 -216 -84 -338t-266 -122q-169 0 -257 122t-88 338q0 217 82.5 337t262.5 120zM1434 690q-49 0 -72 -62t-23 -188t23 -189t72 -63t72.5 62.5t23.5 189.5q0 126 -23.5 188t-72.5 62zM2210 899q172 0 261 -120t89 -337q0 -216 -83.5 -338
t-266.5 -122q-169 0 -256.5 122t-87.5 338q0 217 82 337t262 120zM2212 690q-49 0 -71.5 -62t-22.5 -188t22.5 -189t71.5 -63t72.5 62.5t23.5 189.5q0 126 -23.5 188t-72.5 62z" />
    <glyph glyph-name="minute" unicode="&#x2032;" horiz-adv-x="621" 
d="M358 1462h279l-346 -528h-197z" />
    <glyph glyph-name="second" unicode="&#x2033;" horiz-adv-x="1073" 
d="M547 934l264 528h279l-347 -528h-196zM94 934l264 528h279l-346 -528h-197z" />
    <glyph glyph-name="guilsinglleft" unicode="&#x2039;" horiz-adv-x="754" 
d="M82 573l371 455l219 -119l-279 -348l279 -348l-219 -119l-371 453v26z" />
    <glyph glyph-name="guilsinglright" unicode="&#x203a;" horiz-adv-x="754" 
d="M301 1028l371 -455v-26l-371 -453l-219 119l278 348l-278 348z" />
    <glyph glyph-name="exclamdbl" unicode="&#x203c;" horiz-adv-x="1167" 
d="M416 485h-244l-51 977h346zM117 143q0 94 51.5 132t124.5 38q71 0 122.5 -38t51.5 -132q0 -90 -51.5 -130t-122.5 -40q-73 0 -124.5 40t-51.5 130zM1000 485h-244l-51 977h346zM701 143q0 94 51.5 132t124.5 38q71 0 122.5 -38t51.5 -132q0 -90 -51.5 -130t-122.5 -40
q-73 0 -124.5 40t-51.5 130z" />
    <glyph glyph-name="fraction" unicode="&#x2044;" horiz-adv-x="266" 
d="M657 1462l-811 -1462h-239l811 1462h239z" />
    <glyph glyph-name="uni207F" unicode="&#x207f;" horiz-adv-x="874" 
d="M517 1271q116 0 187 -58t71 -188v-437h-198v392q0 72 -28.5 108.5t-88.5 36.5q-92 0 -125 -57t-33 -164v-316h-198v671h151l27 -86h11q35 52 95.5 75t128.5 23z" />
    <glyph glyph-name="franc" unicode="&#x20a3;" horiz-adv-x="1171" 
d="M184 0v262h-149v178h149v1022h879v-254h-574v-336h537v-254h-537v-178h316v-178h-316v-262h-305z" />
    <glyph glyph-name="afii08941" unicode="&#x20a4;" horiz-adv-x="1171" 
d="M705 1483q116 0 210.5 -24t174.5 -58l-93 -230q-78 29 -143.5 46.5t-134.5 17.5q-72 0 -114 -38.5t-42 -133.5v-113h359v-176h-359v-115h359v-178h-361q0 -35 -14 -76t-46.5 -79t-88.5 -66h718v-260h-1048v248q66 24 105.5 59.5t57 80t17.5 93.5h-178v178h178v115h-178
v176h178v115q0 151 57.5 242.5t157.5 133.5t228 42z" />
    <glyph glyph-name="peseta" unicode="&#x20a7;" horiz-adv-x="1827" 
d="M557 1462q289 0 422 -121.5t133 -334.5q0 -96 -30 -183.5t-97.5 -155.5t-180.5 -107.5t-278 -39.5h-53v-520h-289v1462h373zM557 1208h-84v-434h66q138 0 209 52.5t71 168.5q0 108 -63.5 160.5t-198.5 52.5zM1485 1083v-237h272v-209h-272v-307q0 -60 36 -93.5t87 -33.5
q47 0 85 9.5t76 25.5v-207q-41 -22 -102.5 -36.5t-132.5 -14.5q-95 0 -165.5 31t-109 105t-38.5 203v318h-146v108l168 103l88 235h154z" />
    <glyph glyph-name="Euro" unicode="&#x20ac;" horiz-adv-x="1171" 
d="M803 1473q101 0 187 -21t165 -61l-98 -232q-69 31 -129 48.5t-125 17.5q-61 0 -111.5 -18t-89.5 -53t-65 -86t-37 -118h403v-176h-418q0 -7 -1 -21t-1 -32q0 -16 0.5 -30.5t1.5 -31.5h355v-178h-338q17 -79 58.5 -133.5t107.5 -82t155 -27.5q79 0 147 15.5t128 41.5v-256
q-57 -29 -128 -44t-165 -15q-160 0 -285.5 58.5t-206.5 170.5t-110 272h-137v178h118q-1 11 -2.5 28.5t-1.5 33.5q0 15 0.5 29.5t1.5 23.5h-116v176h133q26 164 108 281t209 179.5t287 62.5z" />
    <glyph glyph-name="uni2105" unicode="&#x2105;" horiz-adv-x="1628" 
d="M1311 1462l-811 -1462h-240l811 1462h240zM1565 344q0 -173 -91.5 -268.5t-246.5 -95.5q-145 0 -238.5 95.5t-93.5 268.5t90.5 268t247.5 95q141 0 236.5 -95t95.5 -268zM1098 344q0 -100 31.5 -150.5t101.5 -50.5q68 0 98.5 50.5t30.5 150.5t-30.5 149.5t-98.5 49.5
q-70 0 -101.5 -49.5t-31.5 -149.5zM420 756q-158 0 -257.5 88t-99.5 266q0 131 46 211t126.5 116t182.5 36q56 0 112 -12.5t105 -37.5l-55 -155q-45 18 -87 29.5t-79 11.5q-77 0 -111.5 -54t-34.5 -143t33.5 -139.5t106.5 -50.5q61 0 113 11.5t93 31.5v-164
q-35 -20 -86 -32.5t-108 -12.5z" />
    <glyph glyph-name="uni2113" unicode="&#x2113;" horiz-adv-x="1065" 
d="M641 190q60 0 98.5 50t44.5 151h207q-6 -129 -43.5 -220.5t-118.5 -140t-219 -48.5q-118 0 -205 45t-134.5 134.5t-47.5 223.5v127q-38 -10 -84.5 -22.5t-97.5 -26.5v196q49 13 95 26.5t87 27.5v411q0 127 44 205.5t129.5 115t211.5 36.5q163 0 258 -86.5t95 -237.5
q0 -132 -51 -230.5t-150 -175t-244 -143.5v-233q0 -82 29 -133.5t96 -51.5zM698 1151q0 65 -21 102t-69 37q-53 0 -72.5 -38t-19.5 -101v-328q97 42 139.5 130.5t42.5 197.5z" />
    <glyph glyph-name="uni2116" unicode="&#x2116;" horiz-adv-x="2105" 
d="M135 0v1462h330l506 -1040h18q-5 50 -10.5 120.5t-9.5 145.5t-4 137v637h266v-1462h-328l-510 1047h-14q5 -56 10.5 -132.5t9.5 -152.5t4 -133v-629h-268zM1370 0v188h639v-188h-639zM1688 274q-98 0 -174.5 43t-120 125t-43.5 197q0 173 92 267.5t250 94.5
q96 0 172.5 -42.5t121 -123t44.5 -196.5q0 -173 -93 -269t-249 -96zM1690 438q71 0 103 50.5t32 150.5t-32 149.5t-103 49.5q-73 0 -105.5 -49.5t-32.5 -149.5t32.5 -150.5t105.5 -50.5z" />
    <glyph glyph-name="trademark" unicode="&#x2122;" horiz-adv-x="1583" 
d="M666 741v721h192l193 -555l198 555h187v-721h-131v418q0 17 2.5 65t3.5 72h-8l-207 -555h-109l-196 555h-9q2 -32 4 -73t2 -54v-428h-122zM242 741v611h-207v110h545v-110h-209v-611h-129z" />
    <glyph glyph-name="uni2126" unicode="&#x2126;" horiz-adv-x="1610" 
d="M805 1227q-117 0 -201.5 -48t-130 -141.5t-45.5 -230.5q0 -118 24.5 -217t82.5 -177.5t159 -133.5v-279h-639v260h371q-96 59 -167.5 150t-110.5 208t-39 254q0 186 85 323.5t241 213.5t370 76t370 -76t241 -214t85 -325q0 -137 -39.5 -253.5t-111.5 -206.5t-170 -150
h374v-260h-643v279q103 53 162 132.5t84 180t25 217.5q0 136 -45.5 229t-130 141t-201.5 48z" />
    <glyph glyph-name="estimated" unicode="&#x212e;" horiz-adv-x="1268" 
d="M633 -35q-173 0 -291.5 80t-179 209t-60.5 276q0 148 46.5 255t124.5 176t172 102t188 33q151 0 270.5 -69t189.5 -195.5t70 -301.5h-827v-356q44 -47 124.5 -85t172.5 -38q149 0 237.5 61.5t157.5 172.5l72 -41q-48 -76 -108 -139.5t-146 -101.5t-213 -38zM932 616v277
q-38 40 -116.5 79.5t-184.5 39.5q-101 0 -174.5 -35.5t-120.5 -81.5v-279h596z" />
    <glyph glyph-name="oneeighth" unicode="&#x215b;" horiz-adv-x="1819" 
d="M295 0l811 1462h240l-811 -1462h-240zM309 586v446q0 27 1 70t3 82.5t4 54.5q-12 -16 -35 -40t-40 -38l-78 -61l-109 127l301 235h191v-876h-238zM1364 137q59 0 89 29t30 74q0 41 -32 71t-89 49l-12 5q-32 -14 -54.5 -32t-34.5 -40.5t-12 -52.5q0 -45 29 -74t86 -29z
M1368 -20q-167 0 -255.5 72.5t-88.5 187.5q0 56 22 96t58 69.5t78 51.5q-54 38 -90.5 88.5t-36.5 126.5q0 110 92 167.5t221 57.5t219 -56.5t90 -168.5q0 -76 -41.5 -124.5t-101.5 -82.5q68 -37 122 -86t54 -133q0 -115 -94 -190.5t-248 -75.5zM1368 551q38 20 63 45t25 68
q0 29 -21 52t-69 23q-43 0 -65.5 -23t-22.5 -52q0 -42 26 -66.5t64 -46.5z" />
    <glyph glyph-name="threeeighths" unicode="&#x215c;" horiz-adv-x="1819" 
d="M367 0l811 1462h239l-811 -1462h-239zM332 569q-76 0 -142 17.5t-131 52.5v190q66 -40 132 -65t139 -25q74 0 108.5 27.5t34.5 79.5q0 41 -34.5 73.5t-131.5 32.5h-112v160h92q104 0 134 33.5t30 75.5q0 38 -25 63t-76 25q-47 0 -89 -19t-99 -59l-101 141q62 47 137.5 78
t178.5 31q125 0 207 -62.5t82 -169.5q0 -69 -40.5 -119t-129.5 -79v-13q101 -21 149.5 -79.5t48.5 -129.5q0 -121 -88 -190.5t-274 -69.5zM1401 137q59 0 89 29t30 74q0 41 -32 71t-89 49l-13 5q-31 -14 -53.5 -32t-34.5 -40.5t-12 -52.5q0 -45 29 -74t86 -29zM1405 -20
q-167 0 -255.5 72.5t-88.5 187.5q0 56 22 96t58 69.5t78 51.5q-54 38 -90.5 88.5t-36.5 126.5q0 110 92 167.5t221 57.5t219 -56.5t90 -168.5q0 -76 -41.5 -124.5t-101.5 -82.5q68 -37 122 -86t54 -133q0 -115 -94 -190.5t-248 -75.5zM1405 551q38 20 63 45t25 68
q0 29 -21.5 52t-68.5 23q-43 0 -65.5 -23t-22.5 -52q0 -42 26 -66.5t64 -46.5z" />
    <glyph glyph-name="fiveeighths" unicode="&#x215d;" horiz-adv-x="1819" 
d="M381 0l811 1462h240l-811 -1462h-240zM354 569q-70 0 -139 13t-119 39v192q50 -32 117 -53t121 -21q78 0 125 30.5t47 100.5q0 63 -43.5 95t-124.5 32q-25 0 -59.5 -5t-59.5 -13l-108 43l36 440h521v-184h-357l-16 -135q22 3 50.5 5.5t64.5 2.5q134 0 225.5 -70.5
t91.5 -206.5q0 -144 -95.5 -224.5t-277.5 -80.5zM1419 135q59 0 89 29t30 74q0 41 -32 71t-89 49l-12 4q-32 -14 -54.5 -31.5t-34 -40t-11.5 -52.5q0 -45 28.5 -74t85.5 -29zM1423 -23q-167 0 -255.5 73t-88.5 188q0 56 22 96t58 69.5t78 51.5q-54 38 -90.5 88.5
t-36.5 126.5q0 110 92 167.5t221 57.5t219.5 -56.5t90.5 -168.5q0 -76 -42 -124.5t-102 -82.5q68 -37 122 -86t54 -133q0 -115 -94 -191t-248 -76zM1423 549q39 20 63.5 45t24.5 68q0 29 -21 52t-69 23q-43 0 -65.5 -23t-22.5 -52q0 -42 26 -66.5t64 -46.5z" />
    <glyph glyph-name="seveneighths" unicode="&#x215e;" horiz-adv-x="1819" 
d="M297 0l811 1462h240l-811 -1462h-240zM154 586l340 692h-435v184h668v-149l-321 -727h-252zM1368 137q59 0 89 29t30 74q0 41 -32 71t-89 49l-12 5q-32 -14 -54.5 -32t-34.5 -40.5t-12 -52.5q0 -45 29 -74t86 -29zM1372 -20q-167 0 -255.5 72.5t-88.5 187.5
q0 84 47.5 133.5t110.5 83.5q-54 38 -90.5 88.5t-36.5 126.5q0 110 92 167.5t221 57.5t219 -56.5t90 -168.5q0 -76 -41.5 -124.5t-101.5 -82.5q68 -37 122 -86t54 -133q0 -115 -94 -190.5t-248 -75.5zM1372 551q38 20 63 45t25 68q0 29 -21 52t-69 23q-43 0 -65.5 -23
t-22.5 -52q0 -42 26 -66.5t64 -46.5z" />
    <glyph glyph-name="partialdiff" unicode="&#x2202;" horiz-adv-x="1190" 
d="M647 1483q137 0 228.5 -46.5t145.5 -125.5t77.5 -180t23.5 -211q0 -126 -24 -258t-73.5 -254t-127 -218.5t-184 -153t-244.5 -56.5q-159 0 -248.5 60t-125.5 156t-36 203q0 73 18 159t57.5 171t104.5 155t158 112t219 42q57 0 110.5 -27.5t84.5 -70.5v19v18q0 85 -28 142
t-75 85.5t-104 28.5q-60 0 -138.5 -30t-154.5 -81v271q54 29 109.5 49t112.5 30.5t114 10.5zM639 811q-67 0 -116 -43t-80.5 -110.5t-46.5 -142.5t-15 -140q0 -72 23.5 -112t76.5 -40q56 0 104.5 39.5t87.5 107.5t67.5 155t43.5 182q-13 52 -52.5 78t-92.5 26z" />
    <glyph glyph-name="uni2206" unicode="&#x2206;" horiz-adv-x="1348" 
d="M850 1468l440 -1292v-176h-1233v178l443 1290h350zM975 258l-252 768q-5 15 -16.5 55.5t-21.5 80.5t-11 52q-1 -12 -11 -52t-21.5 -81t-16.5 -57l-252 -766h602z" />
    <glyph glyph-name="product" unicode="&#x220f;" horiz-adv-x="1518" 
d="M166 -457v1919h1186v-1919h-318v1661h-551v-1661h-317z" />
    <glyph glyph-name="summation" unicode="&#x2211;" horiz-adv-x="1292" 
d="M41 -457v170l575 834l-559 749v166h1166v-252h-756l494 -657l-519 -756h840v-254h-1241z" />
    <glyph glyph-name="minus" unicode="&#x2212;" horiz-adv-x="1171" 
d="M88 612v219h993v-219h-993z" />
    <glyph glyph-name="radical" unicode="&#x221a;" horiz-adv-x="1124" 
d="M481 -14l-268 737h-176v213h325l205 -567l490 1388h219l-612 -1771h-183z" />
    <glyph glyph-name="infinity" unicode="&#x221e;" horiz-adv-x="1448" 
d="M1335 717q0 -90 -40 -167t-111.5 -124t-165.5 -47q-88 0 -162 43.5t-137 132.5q-58 -76 -132 -123t-153 -47q-94 0 -166.5 42t-113.5 118t-41 178q0 93 40 169.5t112 121.5t169 45q82 0 156 -40t135 -134q59 80 130.5 125t162.5 45q141 0 229 -93t88 -245zM610 723
q-38 68 -78 101.5t-90 33.5q-58 0 -91.5 -40t-33.5 -97q0 -52 31.5 -92.5t95.5 -40.5q45 0 85.5 33t80.5 102zM1130 719q0 57 -35 95t-91 38q-43 0 -85 -32.5t-83 -100.5q38 -64 81 -100.5t89 -36.5q56 0 90 40t34 97z" />
    <glyph glyph-name="integral" unicode="&#x222b;" horiz-adv-x="844" 
d="M195 -492q-55 0 -104.5 11t-90.5 30v254q35 -15 76.5 -27t81.5 -12q59 0 84.5 36.5t25.5 105.5v1272q0 133 47.5 216.5t133.5 122.5t200 39q56 0 104.5 -10t90.5 -30v-254q-35 15 -76.5 26.5t-81.5 11.5q-34 0 -59 -16.5t-38.5 -47t-13.5 -73.5v-1276q0 -199 -104 -289
t-276 -90z" />
    <glyph glyph-name="approxequal" unicode="&#x2248;" horiz-adv-x="1171" 
d="M549 813q-75 32 -128 44t-99 12q-58 0 -120.5 -35.5t-113.5 -85.5v231q51 54 114.5 81.5t141.5 27.5q60 0 120 -11.5t157 -52.5q75 -32 128.5 -43.5t98.5 -11.5q59 0 121 35t112 86v-231q-50 -54 -113.5 -81.5t-142.5 -27.5q-60 0 -119.5 11.5t-156.5 51.5zM549 413
q-75 32 -128 44t-99 12q-58 0 -120.5 -35.5t-113.5 -85.5v231q51 54 114.5 81.5t141.5 27.5q60 0 120 -11.5t157 -52.5q75 -32 128.5 -43.5t98.5 -11.5q59 0 121 35t112 86v-231q-50 -54 -113.5 -81.5t-142.5 -27.5q-60 0 -119.5 11.5t-156.5 51.5z" />
    <glyph glyph-name="notequal" unicode="&#x2260;" horiz-adv-x="1171" 
d="M735 1305l201 -86l-92 -195h237v-217h-338l-79 -170h417v-219h-520l-127 -275l-201 84l89 191h-234v219h336l80 170h-416v217h516z" />
    <glyph glyph-name="lessequal" unicode="&#x2264;" horiz-adv-x="1171" 
d="M1081 264l-993 438v143l993 496v-240l-684 -317l684 -281v-239zM88 0v219h993v-219h-993z" />
    <glyph glyph-name="greaterequal" unicode="&#x2265;" horiz-adv-x="1171" 
d="M88 503l684 281l-684 317v240l993 -496v-143l-993 -438v239zM88 0v219h993v-219h-993z" />
    <glyph glyph-name="lozenge" unicode="&#x25ca;" horiz-adv-x="1194" 
d="M539 0l-451 735l451 738h114l451 -738l-451 -735h-114zM596 326l244 409l-244 410l-244 -410z" />
    <glyph glyph-name="cyrillicbreve" horiz-adv-x="1182" 
d="M1075 1599q-11 -106 -60 -187t-153 -126t-280 -45q-181 0 -282 43.5t-144 124t-52 190.5h273q9 -113 57 -149.5t154 -36.5q88 0 144 40t67 146h276z" />
    <glyph glyph-name="caroncommaaccent" horiz-adv-x="1024" 
d="M694 1556v-20q-20 -45 -45.5 -95.5t-55.5 -104t-65 -107.5h-178v26q9 30 18 68t17.5 79.5t15.5 81t11 72.5h282z" />
    <glyph glyph-name="uni0326" unicode="&#x326;" 
d="M172 -125v-20q-20 -45 -45.5 -95.5t-55.5 -104t-65 -108.5h-178v27q12 40 24 93.5t22.5 108.5t15.5 99h282z" />
    <glyph glyph-name="commaaccentrotate" horiz-adv-x="1024" 
d="M678 1569v-27q-11 -40 -23.5 -93.5t-22.5 -108.5t-16 -99h-282v21q21 45 46 95.5t55 104t65 107.5h178z" />
    <glyph glyph-name="uni2074" unicode="&#x2074;" horiz-adv-x="776" 
d="M758 1004h-125v-152h-238v152h-383v153l385 578h236v-564h125v-167zM395 1171v164q0 42 1.5 89t4.5 96q-10 -28 -34.5 -79t-42.5 -79l-127 -191h198z" />
    <glyph glyph-name="uni2075" unicode="&#x2075;" horiz-adv-x="776" 
d="M655 1729v-185h-356l-16 -135q21 3 50 5.5t64 2.5q134 0 226 -70.5t92 -205.5q0 -145 -95.5 -225t-277.5 -80q-70 0 -139 12.5t-119 38.5v192q50 -32 117 -52.5t121 -20.5q78 0 125 30t47 101q0 63 -43.5 95t-124.5 32q-25 0 -59.5 -5.5t-59.5 -13.5l-109 43l37 441h520z
" />
    <glyph glyph-name="uni2077" unicode="&#x2077;" horiz-adv-x="776" 
d="M154 852l340 692h-435v185h668v-150l-321 -727h-252z" />
    <glyph glyph-name="uni2078" unicode="&#x2078;" horiz-adv-x="776" 
d="M389 1749q129 0 219 -56.5t90 -168.5q0 -76 -41.5 -124.5t-101.5 -82.5q68 -37 122 -86t54 -133q0 -115 -94 -191t-248 -76q-111 0 -188 33t-116.5 92t-39.5 136q0 56 22 96t58 69.5t78 51.5q-54 38 -90.5 88.5t-36.5 126.5q0 110 92 167.5t221 57.5zM371 1217
q-32 -14 -54.5 -32t-34.5 -40.5t-12 -52.5q0 -45 29 -74t86 -29q59 0 89 29t30 74q0 41 -32 71t-89 49zM387 1591q-43 0 -65.5 -23t-22.5 -52q0 -42 26 -66.5t64 -46.5q38 20 63 45t25 68q0 29 -21 52t-69 23z" />
    <glyph glyph-name="uni2000" unicode="&#x2000;" horiz-adv-x="1024" 
 />
    <glyph glyph-name="uni2001" unicode="&#x2001;" horiz-adv-x="2048" 
 />
    <glyph glyph-name="uni2002" unicode="&#x2002;" horiz-adv-x="1024" 
 />
    <glyph glyph-name="uni2003" unicode="&#x2003;" horiz-adv-x="2048" 
 />
    <glyph glyph-name="uni2004" unicode="&#x2004;" horiz-adv-x="682" 
 />
    <glyph glyph-name="uni2005" unicode="&#x2005;" horiz-adv-x="512" 
 />
    <glyph glyph-name="uni2006" unicode="&#x2006;" horiz-adv-x="342" 
 />
    <glyph glyph-name="uni2007" unicode="&#x2007;" horiz-adv-x="1171" 
 />
    <glyph glyph-name="uni2008" unicode="&#x2008;" horiz-adv-x="584" 
 />
    <glyph glyph-name="uni2009" unicode="&#x2009;" horiz-adv-x="340" 
 />
    <glyph glyph-name="uni200A" unicode="&#x200a;" horiz-adv-x="205" 
 />
    <glyph glyph-name="uni200B" unicode="&#x200b;" 
 />
    <glyph glyph-name="uniFEFF" unicode="&#xfeff;" 
 />
    </font>
</defs>
</svg>
